Truculenta-Thin.ufo
<glyph name="exclam" format="2">
  <advance width="292"/>
  <unicode hex="0021"/>
  <outline>
    <contour>
      <point x="132" y="216" type="curve"/>
      <point x="160" y="216" type="line"/>
      <point x="161" y="250"/>
      <point x="162" y="367"/>
      <point x="163" y="425" type="curve" smooth="yes"/>
      <point x="164" y="487"/>
      <point x="170" y="655"/>
      <point x="172" y="708" type="curve"/>
      <point x="120" y="705" type="line"/>
      <point x="121" y="659"/>
      <point x="126" y="513"/>
      <point x="128" y="423" type="curve" smooth="yes"/>
      <point x="130" y="346"/>
      <point x="131" y="244"/>
    </contour>
    <contour>
      <point x="170" y="0" type="line"/>
      <point x="165" y="101" type="line"/>
      <point x="128" y="99" type="line"/>
      <point x="125" y="0" type="line"/>
    </contour>
  </outline>
</glyph>
<glyph name="quotedbl" format="2">
  <advance width="459"/>
  <unicode hex="0022"/>
  <outline>
    <contour>
      <point x="283" y="498" type="curve"/>
      <point x="314" y="503" type="line"/>
      <point x="318" y="532"/>
      <point x="323" y="569"/>
      <point x="328" y="604" type="curve" smooth="yes"/>
      <point x="333" y="642"/>
      <point x="339" y="678"/>
      <point x="344" y="699" type="curve"/>
      <point x="289" y="700" type="line"/>
      <point x="289" y="681"/>
      <point x="289" y="635"/>
      <point x="287" y="603" type="curve" smooth="yes"/>
      <point x="286" y="570"/>
      <point x="284" y="520"/>
    </contour>
    <contour>
      <point x="123" y="496" type="curve"/>
      <point x="154" y="504" type="line"/>
      <point x="155" y="531"/>
      <point x="157" y="568"/>
      <point x="160" y="604" type="curve" smooth="yes"/>
      <point x="163" y="646"/>
      <point x="166" y="684"/>
      <point x="169" y="702" type="curve"/>
      <point x="115" y="698" type="line"/>
      <point x="116" y="679"/>
      <point x="119" y="634"/>
      <point x="120" y="602" type="curve" smooth="yes"/>
      <point x="122" y="568"/>
      <point x="122" y="518"/>
    </contour>
  </outline>
</glyph>
<glyph name="numbersign" format="2">
  <advance width="845"/>
  <unicode hex="0023"/>
  <outline>
    <contour>
      <point x="175" y="1" type="line"/>
      <point x="211" y="3" type="line"/>
      <point x="294" y="378" type="line"/>
      <point x="377" y="695" type="line"/>
      <point x="342" y="693" type="line"/>
      <point x="273" y="381" type="line"/>
    </contour>
    <contour>
      <point x="95" y="192" type="line"/>
      <point x="143" y="194"/>
      <point x="318" y="197"/>
      <point x="416" y="196" type="curve" smooth="yes"/>
      <point x="514" y="195"/>
      <point x="661" y="194"/>
      <point x="703" y="194" type="curve"/>
      <point x="701" y="223" type="line"/>
      <point x="661" y="222"/>
      <point x="512" y="220"/>
      <point x="419" y="220" type="curve" smooth="yes"/>
      <point x="327" y="220"/>
      <point x="144" y="222"/>
      <point x="95" y="223" type="curve"/>
    </contour>
    <contour>
      <point x="466" y="0" type="line"/>
      <point x="502" y="1" type="line"/>
      <point x="582" y="367" type="line"/>
      <point x="665" y="682" type="line"/>
      <point x="630" y="683" type="line"/>
      <point x="564" y="381" type="line"/>
    </contour>
    <contour>
      <point x="142" y="479" type="line"/>
      <point x="188" y="481"/>
      <point x="367" y="484"/>
      <point x="467" y="483" type="curve" smooth="yes"/>
      <point x="565" y="482"/>
      <point x="710" y="481"/>
      <point x="750" y="480" type="curve"/>
      <point x="750" y="510" type="line"/>
      <point x="709" y="509"/>
      <point x="561" y="507"/>
      <point x="469" y="507" type="curve" smooth="yes"/>
      <point x="378" y="507"/>
      <point x="191" y="509"/>
      <point x="138" y="510" type="curve"/>
    </contour>
  </outline>
</glyph>
<glyph name="quotesingle" format="2">
  <advance width="284"/>
  <unicode hex="0027"/>
  <outline>
    <contour>
      <point x="123" y="496" type="curve"/>
      <point x="154" y="504" type="line"/>
      <point x="155" y="531"/>
      <point x="157" y="568"/>
      <point x="160" y="604" type="curve" smooth="yes"/>
      <point x="163" y="646"/>
      <point x="166" y="684"/>
      <point x="169" y="702" type="curve"/>
      <point x="115" y="698" type="line"/>
      <point x="116" y="679"/>
      <point x="119" y="634"/>
      <point x="120" y="602" type="curve" smooth="yes"/>
      <point x="122" y="568"/>
      <point x="122" y="518"/>
    </contour>
  </outline>
</glyph>
<glyph name="parenleft" format="2">
  <advance width="396"/>
  <unicode hex="0028"/>
  <outline>
    <contour>
      <point x="268" y="-139" type="curve"/>
      <point x="276" y="-117" type="line"/>
      <point x="173" y="-57"/>
      <point x="147" y="111"/>
      <point x="147" y="281" type="curve" smooth="yes"/>
      <point x="147" y="452"/>
      <point x="170" y="619"/>
      <point x="276" y="680" type="curve"/>
      <point x="268" y="702" type="line"/>
      <point x="170" y="650"/>
      <point x="120" y="528"/>
      <point x="120" y="281" type="curve" smooth="yes"/>
      <point x="120" y="35"/>
      <point x="168" y="-86"/>
    </contour>
  </outline>
</glyph>
<glyph name="parenright" format="2">
  <advance width="396"/>
  <unicode hex="0029"/>
  <outline>
    <contour>
      <point x="128" y="702" type="curve"/>
      <point x="120" y="680" type="line"/>
      <point x="223" y="620"/>
      <point x="249" y="452"/>
      <point x="249" y="282" type="curve" smooth="yes"/>
      <point x="249" y="111"/>
      <point x="226" y="-56"/>
      <point x="120" y="-117" type="curve"/>
      <point x="128" y="-139" type="line"/>
      <point x="226" y="-87"/>
      <point x="276" y="35"/>
      <point x="276" y="282" type="curve" smooth="yes"/>
      <point x="276" y="528"/>
      <point x="228" y="649"/>
    </contour>
  </outline>
</glyph>
<glyph name="asterisk" format="2">
  <advance width="585"/>
  <unicode hex="002A"/>
  <outline>
    <contour>
      <point x="438" y="436" type="curve"/>
      <point x="465" y="460" type="line"/>
      <point x="427" y="483"/>
      <point x="327" y="544"/>
      <point x="291" y="565" type="curve" smooth="yes"/>
      <point x="251" y="588"/>
      <point x="172" y="648"/>
      <point x="145" y="668" type="curve"/>
      <point x="120" y="638" type="line"/>
      <point x="155" y="621"/>
      <point x="245" y="570"/>
      <point x="287" y="546" type="curve" smooth="yes"/>
      <point x="328" y="522"/>
      <point x="412" y="457"/>
    </contour>
    <contour>
      <point x="139" y="428" type="line"/>
      <point x="173" y="454"/>
      <point x="263" y="523"/>
      <point x="304" y="546" type="curve" smooth="yes"/>
      <point x="347" y="570"/>
      <point x="436" y="625"/>
      <point x="464" y="640" type="curve"/>
      <point x="455" y="673" type="line"/>
      <point x="421" y="649"/>
      <point x="337" y="587"/>
      <point x="300" y="565" type="curve" smooth="yes"/>
      <point x="262" y="542"/>
      <point x="159" y="477"/>
      <point x="127" y="457" type="curve"/>
    </contour>
    <contour>
      <point x="317" y="361" type="line"/>
      <point x="313" y="400"/>
      <point x="306" y="509"/>
      <point x="306" y="562" type="curve" smooth="yes"/>
      <point x="306" y="616"/>
      <point x="312" y="704"/>
      <point x="315" y="736" type="curve"/>
      <point x="278" y="739" type="line"/>
      <point x="280" y="704"/>
      <point x="284" y="611"/>
      <point x="285" y="561" type="curve" smooth="yes"/>
      <point x="286" y="511"/>
      <point x="281" y="401"/>
      <point x="279" y="364" type="curve"/>
    </contour>
  </outline>
</glyph>
<glyph name="plus" format="2">
  <advance width="500"/>
  <unicode hex="002B"/>
  <outline>
    <contour>
      <point x="271" y="120" type="line"/>
      <point x="268" y="151"/>
      <point x="263" y="251"/>
      <point x="263" y="302" type="curve" smooth="yes"/>
      <point x="263" y="352"/>
      <point x="267" y="448"/>
      <point x="269" y="470" type="curve"/>
      <point x="230" y="467" type="line"/>
      <point x="231" y="441"/>
      <point x="233" y="348"/>
      <point x="234" y="301" type="curve" smooth="yes"/>
      <point x="235" y="253"/>
      <point x="232" y="145"/>
      <point x="231" y="117" type="curve"/>
    </contour>
    <contour>
      <point x="82" y="273" type="line"/>
      <point x="110" y="275"/>
      <point x="219" y="278"/>
      <point x="262" y="278" type="curve" smooth="yes"/>
      <point x="305" y="278"/>
      <point x="391" y="276"/>
      <point x="409" y="274" type="curve"/>
      <point x="418" y="309" type="line"/>
      <point x="394" y="308"/>
      <point x="300" y="307"/>
      <point x="261" y="306" type="curve" smooth="yes"/>
      <point x="219" y="305"/>
      <point x="111" y="307"/>
      <point x="86" y="307" type="curve"/>
    </contour>
  </outline>
</glyph>
<glyph name="comma" format="2">
  <advance width="292"/>
  <unicode hex="002C"/>
  <outline>
    <contour>
      <point x="148" y="-100" type="line"/>
      <point x="164" y="-73"/>
      <point x="172" y="-38"/>
      <point x="172" y="5" type="curve" smooth="yes"/>
      <point x="172" y="98" type="line"/>
      <point x="120" y="93" type="line"/>
      <point x="122" y="1" type="line"/>
      <point x="144" y="-1" type="line"/>
      <point x="145" y="-33"/>
      <point x="137" y="-61"/>
      <point x="124" y="-91" type="curve"/>
    </contour>
  </outline>
</glyph>
<glyph name="hyphen" format="2">
  <advance width="399"/>
  <unicode hex="002D"/>
  <outline>
    <contour>
      <point x="75" y="272" type="line"/>
      <point x="75" y="272"/>
      <point x="136" y="274"/>
      <point x="195" y="274" type="curve" smooth="yes"/>
      <point x="251" y="274"/>
      <point x="324" y="272"/>
      <point x="324" y="272" type="curve"/>
      <point x="321" y="310" type="line"/>
      <point x="321" y="310"/>
      <point x="263" y="306"/>
      <point x="201" y="307" type="curve" smooth="yes"/>
      <point x="139" y="308"/>
      <point x="81" y="310"/>
      <point x="81" y="310" type="curve"/>
    </contour>
  </outline>
</glyph>
<glyph name="slash" format="2">
  <advance width="288"/>
  <unicode hex="002F"/>
  <outline>
    <contour>
      <point x="25" y="0" type="curve"/>
      <point x="58" y="1" type="line"/>
      <point x="91" y="116"/>
      <point x="128" y="242"/>
      <point x="163" y="361" type="curve" smooth="yes"/>
      <point x="199" y="486"/>
      <point x="234" y="603"/>
      <point x="263" y="694" type="curve"/>
      <point x="230" y="695" type="line"/>
      <point x="208" y="612"/>
      <point x="175" y="491"/>
      <point x="138" y="365" type="curve" smooth="yes"/>
      <point x="102" y="238"/>
      <point x="60" y="105"/>
    </contour>
  </outline>
</glyph>
<glyph name="zero" format="2">
  <advance width="522"/>
  <unicode hex="0030"/>
  <outline>
    <contour>
      <point x="255" y="-10" type="curve" smooth="yes"/>
      <point x="414" y="-10"/>
      <point x="428" y="170"/>
      <point x="428" y="342" type="curve" smooth="yes"/>
      <point x="428" y="514"/>
      <point x="424" y="706"/>
      <point x="266" y="706" type="curve" smooth="yes"/>
      <point x="114" y="706"/>
      <point x="94" y="518"/>
      <point x="94" y="343" type="curve" smooth="yes"/>
      <point x="94" y="161"/>
      <point x="104" y="-10"/>
    </contour>
    <contour>
      <point x="258" y="18" type="curve" smooth="yes"/>
      <point x="143" y="18"/>
      <point x="129" y="129"/>
      <point x="129" y="338" type="curve" smooth="yes"/>
      <point x="129" y="513"/>
      <point x="142" y="677"/>
      <point x="265" y="677" type="curve" smooth="yes"/>
      <point x="389" y="677"/>
      <point x="395" y="518"/>
      <point x="395" y="353" type="curve" smooth="yes"/>
      <point x="395" y="166"/>
      <point x="381" y="18"/>
    </contour>
  </outline>
</glyph>
<glyph name="one" format="2">
  <advance width="320"/>
  <unicode hex="0031"/>
  <outline>
    <contour>
      <point x="166" y="0" type="curve"/>
      <point x="205" y="0" type="line"/>
      <point x="203" y="48"/>
      <point x="201" y="202"/>
      <point x="201" y="341" type="curve" smooth="yes"/>
      <point x="201" y="481"/>
      <point x="205" y="644"/>
      <point x="206" y="694" type="curve"/>
      <point x="191" y="694" type="line"/>
      <point x="170" y="638" type="line"/>
      <point x="171" y="562"/>
      <point x="170" y="418"/>
      <point x="170" y="342" type="curve" smooth="yes"/>
      <point x="170" y="245"/>
      <point x="168" y="55"/>
    </contour>
    <contour>
      <point x="53" y="619" type="line"/>
      <point x="91" y="620"/>
      <point x="166" y="631"/>
      <point x="193" y="642" type="curve"/>
      <point x="191" y="694" type="line"/>
      <point x="166" y="667"/>
      <point x="98" y="652"/>
      <point x="52" y="646" type="curve"/>
    </contour>
  </outline>
</glyph>
<glyph name="two" format="2">
  <advance width="491"/>
  <unicode hex="0032"/>
  <outline>
    <contour>
      <point x="110" y="20" type="line"/>
      <point x="208" y="137"/>
      <point x="400" y="341"/>
      <point x="400" y="529" type="curve" smooth="yes"/>
      <point x="400" y="637"/>
      <point x="341" y="700"/>
      <point x="253" y="700" type="curve" smooth="yes"/>
      <point x="160" y="700"/>
      <point x="97" y="633"/>
      <point x="97" y="503" type="curve" smooth="yes"/>
      <point x="97" y="485"/>
      <point x="99" y="466"/>
      <point x="101" y="447" type="curve"/>
      <point x="135" y="448" type="line"/>
      <point x="132" y="468"/>
      <point x="130" y="488"/>
      <point x="130" y="506" type="curve" smooth="yes"/>
      <point x="130" y="614"/>
      <point x="177" y="671"/>
      <point x="249" y="671" type="curve" smooth="yes"/>
      <point x="323" y="671"/>
      <point x="365" y="623"/>
      <point x="365" y="521" type="curve" smooth="yes"/>
      <point x="365" y="349"/>
      <point x="196" y="168"/>
      <point x="80" y="27" type="curve"/>
    </contour>
    <contour>
      <point x="80" y="-3" type="line"/>
      <point x="101" y="-2"/>
      <point x="200" y="0"/>
      <point x="244" y="0" type="curve" smooth="yes"/>
      <point x="298" y="0"/>
      <point x="351" y="0"/>
      <point x="405" y="0" type="curve"/>
      <point x="404" y="32" type="line"/>
      <point x="371" y="30"/>
      <point x="297" y="28"/>
      <point x="255" y="28" type="curve" smooth="yes"/>
      <point x="197" y="28"/>
      <point x="138" y="27"/>
      <point x="80" y="27" type="curve"/>
    </contour>
  </outline>
</glyph>
<glyph name="three" format="2">
  <advance width="455"/>
  <unicode hex="0033"/>
  <outline>
    <contour>
      <point x="221" y="-10" type="curve" smooth="yes"/>
      <point x="327" y="-10"/>
      <point x="377" y="48"/>
      <point x="377" y="147" type="curve" smooth="yes"/>
      <point x="377" y="223"/>
      <point x="335" y="279"/>
      <point x="255" y="296" type="curve"/>
      <point x="329" y="333"/>
      <point x="371" y="412"/>
      <point x="371" y="522" type="curve" smooth="yes"/>
      <point x="371" y="612"/>
      <point x="338" y="697"/>
      <point x="223" y="697" type="curve" smooth="yes"/>
      <point x="103" y="697"/>
      <point x="77" y="600"/>
      <point x="75" y="527" type="curve"/>
      <point x="105" y="529" type="line"/>
      <point x="108" y="595"/>
      <point x="125" y="671"/>
      <point x="218" y="671" type="curve" smooth="yes"/>
      <point x="315" y="671"/>
      <point x="339" y="608"/>
      <point x="339" y="512" type="curve" smooth="yes"/>
      <point x="339" y="385"/>
      <point x="274" y="306"/>
      <point x="189" y="306" type="curve" smooth="yes"/>
      <point x="179" y="306"/>
      <point x="145" y="306"/>
      <point x="137" y="307" type="curve"/>
      <point x="138" y="280" type="line"/>
      <point x="149" y="281"/>
      <point x="185" y="281"/>
      <point x="193" y="281" type="curve" smooth="yes"/>
      <point x="295" y="281"/>
      <point x="346" y="234"/>
      <point x="346" y="139" type="curve" smooth="yes"/>
      <point x="346" y="62"/>
      <point x="317" y="16"/>
      <point x="222" y="16" type="curve" smooth="yes"/>
      <point x="131" y="16"/>
      <point x="103" y="75"/>
      <point x="102" y="117" type="curve"/>
      <point x="74" y="118" type="line"/>
      <point x="75" y="61"/>
      <point x="112" y="-10"/>
    </contour>
  </outline>
</glyph>
<glyph name="four" format="2">
  <advance width="494"/>
  <unicode hex="0034"/>
  <outline>
    <contour>
      <point x="84" y="177" type="line"/>
      <point x="111" y="237"/>
      <point x="149" y="319"/>
      <point x="188" y="401" type="curve" smooth="yes"/>
      <point x="233" y="496"/>
      <point x="278" y="590"/>
      <point x="307" y="647" type="curve"/>
      <point x="314" y="664"/>
      <point x="324" y="683"/>
      <point x="335" y="697" type="curve"/>
      <point x="295" y="698" type="line"/>
      <point x="259" y="620"/>
      <point x="210" y="515"/>
      <point x="163" y="415" type="curve" smooth="yes"/>
      <point x="124" y="330"/>
      <point x="85" y="249"/>
      <point x="56" y="191" type="curve"/>
    </contour>
    <contour>
      <point x="62" y="162" type="line"/>
      <point x="89" y="163"/>
      <point x="199" y="165"/>
      <point x="246" y="166" type="curve" smooth="yes"/>
      <point x="294" y="167"/>
      <point x="402" y="166"/>
      <point x="432" y="166" type="curve"/>
      <point x="432" y="198" type="line"/>
      <point x="402" y="196"/>
      <point x="296" y="192"/>
      <point x="246" y="190" type="curve" smooth="yes"/>
      <point x="198" y="188"/>
      <point x="87" y="190"/>
      <point x="56" y="191" type="curve"/>
    </contour>
    <contour>
      <point x="298" y="-1" type="curve"/>
      <point x="334" y="0" type="line"/>
      <point x="333" y="53"/>
      <point x="331" y="236"/>
      <point x="331" y="378" type="curve" smooth="yes"/>
      <point x="331" y="512"/>
      <point x="333" y="651"/>
      <point x="335" y="697" type="curve"/>
      <point x="302" y="692" type="line"/>
      <point x="302" y="645"/>
      <point x="302" y="477"/>
      <point x="302" y="380" type="curve" smooth="yes"/>
      <point x="302" y="282"/>
      <point x="299" y="61"/>
    </contour>
  </outline>
</glyph>
<glyph name="five" format="2">
  <advance width="477"/>
  <unicode hex="0035"/>
  <outline>
    <contour>
      <point x="229" y="-10" type="curve" smooth="yes"/>
      <point x="348" y="-10"/>
      <point x="405" y="78"/>
      <point x="405" y="225" type="curve" smooth="yes"/>
      <point x="405" y="346"/>
      <point x="354" y="427"/>
      <point x="250" y="427" type="curve" smooth="yes"/>
      <point x="176" y="427"/>
      <point x="127" y="389"/>
      <point x="103" y="320" type="curve"/>
      <point x="126" y="318" type="line"/>
      <point x="149" y="373"/>
      <point x="191" y="398"/>
      <point x="247" y="398" type="curve" smooth="yes"/>
      <point x="333" y="398"/>
      <point x="372" y="328"/>
      <point x="372" y="235" type="curve" smooth="yes"/>
      <point x="372" y="94"/>
      <point x="331" y="18"/>
      <point x="233" y="18" type="curve" smooth="yes"/>
      <point x="151" y="18"/>
      <point x="117" y="56"/>
      <point x="113" y="116" type="curve"/>
      <point x="81" y="114" type="line"/>
      <point x="87" y="44"/>
      <point x="134" y="-10"/>
    </contour>
    <contour>
      <point x="126" y="318" type="line"/>
      <point x="127" y="360"/>
      <point x="129" y="446"/>
      <point x="131" y="503" type="curve" smooth="yes"/>
      <point x="133" y="565"/>
      <point x="136" y="661"/>
      <point x="138" y="695" type="curve"/>
      <point x="102" y="698" type="line"/>
      <point x="103" y="663"/>
      <point x="104" y="569"/>
      <point x="102" y="505" type="curve" smooth="yes"/>
      <point x="100" y="438"/>
      <point x="95" y="349"/>
      <point x="93" y="317" type="curve"/>
    </contour>
    <contour>
      <point x="120" y="666" type="line"/>
      <point x="139" y="667"/>
      <point x="208" y="668"/>
      <point x="245" y="668" type="curve" smooth="yes"/>
      <point x="278" y="668"/>
      <point x="362" y="666"/>
      <point x="384" y="665" type="curve"/>
      <point x="386" y="695" type="line"/>
      <point x="362" y="695"/>
      <point x="279" y="695"/>
      <point x="243" y="696" type="curve" smooth="yes"/>
      <point x="209" y="697"/>
      <point x="138" y="698"/>
      <point x="109" y="698" type="curve"/>
    </contour>
  </outline>
</glyph>
<glyph name="six" format="2">
  <advance width="502"/>
  <unicode hex="0036"/>
  <outline>
    <contour>
      <point x="251" y="-10" type="curve" smooth="yes"/>
      <point x="358" y="-10"/>
      <point x="410" y="80"/>
      <point x="410" y="186" type="curve" smooth="yes"/>
      <point x="410" y="296"/>
      <point x="363" y="368"/>
      <point x="260" y="368" type="curve" smooth="yes"/>
      <point x="187" y="368"/>
      <point x="129" y="323"/>
      <point x="110" y="254" type="curve"/>
      <point x="125" y="203" type="line"/>
      <point x="125" y="271"/>
      <point x="173" y="339"/>
      <point x="258" y="339" type="curve" smooth="yes"/>
      <point x="344" y="339"/>
      <point x="377" y="278"/>
      <point x="377" y="185" type="curve" smooth="yes"/>
      <point x="377" y="96"/>
      <point x="342" y="18"/>
      <point x="253" y="18" type="curve" smooth="yes"/>
      <point x="124" y="18"/>
      <point x="122" y="145"/>
      <point x="122" y="370" type="curve" smooth="yes"/>
      <point x="122" y="572"/>
      <point x="168" y="686"/>
      <point x="264" y="686" type="curve" smooth="yes"/>
      <point x="345" y="686"/>
      <point x="370" y="632"/>
      <point x="370" y="550" type="curve" smooth="yes"/>
      <point x="370" y="533"/>
      <point x="369" y="516"/>
      <point x="367" y="497" type="curve"/>
      <point x="399" y="498" type="line"/>
      <point x="401" y="517"/>
      <point x="402" y="534"/>
      <point x="402" y="551" type="curve" smooth="yes"/>
      <point x="402" y="648"/>
      <point x="364" y="713"/>
      <point x="265" y="713" type="curve" smooth="yes"/>
      <point x="156" y="713"/>
      <point x="88" y="616"/>
      <point x="88" y="321" type="curve" smooth="yes"/>
      <point x="88" y="82"/>
      <point x="128" y="-10"/>
    </contour>
  </outline>
</glyph>
<glyph name="seven" format="2">
  <advance width="399"/>
  <unicode hex="0037"/>
  <outline>
    <contour>
      <point x="133" y="-1" type="curve"/>
      <point x="170" y="0" type="line"/>
      <point x="161" y="123"/>
      <point x="174" y="245"/>
      <point x="208" y="360" type="curve" smooth="yes"/>
      <point x="239" y="465"/>
      <point x="288" y="565"/>
      <point x="354" y="657" type="curve"/>
      <point x="354" y="698" type="line"/>
      <point x="280" y="614"/>
      <point x="222" y="505"/>
      <point x="181" y="380" type="curve" smooth="yes"/>
      <point x="144" y="268"/>
      <point x="125" y="141"/>
    </contour>
    <contour>
      <point x="42" y="665" type="line"/>
      <point x="63" y="665"/>
      <point x="141" y="666"/>
      <point x="173" y="666" type="curve" smooth="yes"/>
      <point x="208" y="666"/>
      <point x="323" y="667"/>
      <point x="351" y="668" type="curve"/>
      <point x="354" y="698" type="line"/>
      <point x="326" y="698"/>
      <point x="220" y="697"/>
      <point x="186" y="697" type="curve" smooth="yes"/>
      <point x="152" y="697"/>
      <point x="66" y="698"/>
      <point x="41" y="699" type="curve"/>
    </contour>
  </outline>
</glyph>
<glyph name="eight" format="2">
  <advance width="480"/>
  <unicode hex="0038"/>
  <outline>
    <contour>
      <point x="232" y="289" type="curve" smooth="yes"/>
      <point x="335" y="289"/>
      <point x="387" y="368"/>
      <point x="387" y="495" type="curve" smooth="yes"/>
      <point x="387" y="639"/>
      <point x="343" y="707"/>
      <point x="244" y="707" type="curve" smooth="yes"/>
      <point x="141" y="707"/>
      <point x="92" y="631"/>
      <point x="92" y="486" type="curve" smooth="yes"/>
      <point x="92" y="376"/>
      <point x="139" y="289"/>
    </contour>
    <contour>
      <point x="237" y="-10" type="curve" smooth="yes"/>
      <point x="354" y="-10"/>
      <point x="409" y="47"/>
      <point x="409" y="151" type="curve" smooth="yes"/>
      <point x="409" y="244"/>
      <point x="355" y="314"/>
      <point x="243" y="314" type="curve" smooth="yes"/>
      <point x="127" y="314"/>
      <point x="71" y="240"/>
      <point x="71" y="145" type="curve" smooth="yes"/>
      <point x="71" y="52"/>
      <point x="129" y="-10"/>
    </contour>
    <contour>
      <point x="240" y="15" type="curve" smooth="yes"/>
      <point x="146" y="15"/>
      <point x="102" y="64"/>
      <point x="102" y="149" type="curve" smooth="yes"/>
      <point x="102" y="219"/>
      <point x="144" y="289"/>
      <point x="242" y="289" type="curve" smooth="yes"/>
      <point x="338" y="289"/>
      <point x="378" y="225"/>
      <point x="378" y="146" type="curve" smooth="yes"/>
      <point x="378" y="60"/>
      <point x="339" y="15"/>
    </contour>
    <contour>
      <point x="240" y="318" type="curve" smooth="yes"/>
      <point x="157" y="318"/>
      <point x="125" y="385"/>
      <point x="125" y="493" type="curve" smooth="yes"/>
      <point x="125" y="611"/>
      <point x="159" y="678"/>
      <point x="243" y="678" type="curve" smooth="yes"/>
      <point x="327" y="678"/>
      <point x="355" y="618"/>
      <point x="355" y="486" type="curve" smooth="yes"/>
      <point x="355" y="384"/>
      <point x="317" y="318"/>
    </contour>
  </outline>
</glyph>
<glyph name="nine" format="2">
  <advance width="502"/>
  <unicode hex="0039"/>
  <outline>
    <contour>
      <point x="230" y="-10" type="curve" smooth="yes"/>
      <point x="349" y="-10"/>
      <point x="410" y="87"/>
      <point x="410" y="382" type="curve" smooth="yes"/>
      <point x="410" y="621"/>
      <point x="370" y="713"/>
      <point x="247" y="713" type="curve" smooth="yes"/>
      <point x="130" y="713"/>
      <point x="88" y="603"/>
      <point x="88" y="487" type="curve" smooth="yes"/>
      <point x="88" y="367"/>
      <point x="125" y="275"/>
      <point x="238" y="275" type="curve" smooth="yes"/>
      <point x="311" y="275"/>
      <point x="371" y="320"/>
      <point x="390" y="389" type="curve"/>
      <point x="375" y="440" type="line"/>
      <point x="375" y="372"/>
      <point x="325" y="304"/>
      <point x="240" y="304" type="curve" smooth="yes"/>
      <point x="144" y="304"/>
      <point x="121" y="385"/>
      <point x="121" y="488" type="curve" smooth="yes"/>
      <point x="121" y="587"/>
      <point x="146" y="685"/>
      <point x="245" y="685" type="curve" smooth="yes"/>
      <point x="374" y="685"/>
      <point x="376" y="558"/>
      <point x="376" y="333" type="curve" smooth="yes"/>
      <point x="376" y="131"/>
      <point x="337" y="17"/>
      <point x="231" y="17" type="curve" smooth="yes"/>
      <point x="149" y="17"/>
      <point x="129" y="62"/>
      <point x="129" y="116" type="curve" smooth="yes"/>
      <point x="129" y="125"/>
      <point x="130" y="136"/>
      <point x="131" y="146" type="curve"/>
      <point x="99" y="145" type="line"/>
      <point x="98" y="136"/>
      <point x="97" y="127"/>
      <point x="97" y="118" type="curve" smooth="yes"/>
      <point x="97" y="57"/>
      <point x="125" y="-10"/>
    </contour>
  </outline>
</glyph>
<glyph name="colon" format="2">
  <advance width="282"/>
  <unicode hex="003A"/>
  <outline>
    <contour>
      <point x="162" y="1" type="line"/>
      <point x="162" y="104" type="line"/>
      <point x="120" y="100" type="line"/>
      <point x="123" y="1" type="line"/>
    </contour>
    <contour>
      <point x="162" y="401" type="line"/>
      <point x="162" y="503" type="line"/>
      <point x="120" y="499" type="line"/>
      <point x="123" y="402" type="line"/>
    </contour>
  </outline>
</glyph>
<glyph name="greater" format="2">
  <advance width="500"/>
  <unicode hex="003E"/>
  <outline>
    <contour>
      <point x="40" y="158" type="line"/>
      <point x="85" y="174"/>
      <point x="173" y="203"/>
      <point x="243" y="223" type="curve" smooth="yes"/>
      <point x="320" y="245"/>
      <point x="423" y="277"/>
      <point x="459" y="288" type="curve"/>
      <point x="459" y="324" type="line"/>
      <point x="415" y="311"/>
      <point x="310" y="280"/>
      <point x="241" y="261" type="curve" smooth="yes"/>
      <point x="169" y="241"/>
      <point x="69" y="215"/>
      <point x="37" y="207" type="curve"/>
    </contour>
    <contour>
      <point x="40" y="454" type="curve"/>
      <point x="37" y="405" type="line"/>
      <point x="69" y="397"/>
      <point x="169" y="371"/>
      <point x="241" y="351" type="curve" smooth="yes"/>
      <point x="310" y="332"/>
      <point x="415" y="301"/>
      <point x="459" y="288" type="curve"/>
      <point x="459" y="324" type="line"/>
      <point x="423" y="335"/>
      <point x="320" y="366"/>
      <point x="243" y="389" type="curve" smooth="yes"/>
      <point x="173" y="410"/>
      <point x="85" y="438"/>
    </contour>
  </outline>
</glyph>
<glyph name="question" format="2">
  <advance width="540"/>
  <unicode hex="003F"/>
  <outline>
    <contour>
      <point x="279" y="216" type="line"/>
      <point x="277" y="231"/>
      <point x="275" y="245"/>
      <point x="275" y="259" type="curve" smooth="yes"/>
      <point x="275" y="306"/>
      <point x="302" y="339"/>
      <point x="333" y="375" type="curve" smooth="yes"/>
      <point x="373" y="423"/>
      <point x="420" y="476"/>
      <point x="420" y="574" type="curve" smooth="yes"/>
      <point x="420" y="650"/>
      <point x="380" y="715"/>
      <point x="274" y="715" type="curve" smooth="yes"/>
      <point x="165" y="715"/>
      <point x="120" y="633"/>
      <point x="120" y="544" type="curve" smooth="yes"/>
      <point x="120" y="521"/>
      <point x="123" y="496"/>
      <point x="129" y="473" type="curve"/>
      <point x="159" y="472" type="line"/>
      <point x="153" y="494"/>
      <point x="150" y="518"/>
      <point x="150" y="542" type="curve" smooth="yes"/>
      <point x="150" y="616"/>
      <point x="182" y="686"/>
      <point x="272" y="686" type="curve" smooth="yes"/>
      <point x="360" y="686"/>
      <point x="387" y="639"/>
      <point x="387" y="571" type="curve" smooth="yes"/>
      <point x="387" y="486"/>
      <point x="348" y="438"/>
      <point x="311" y="395" type="curve" smooth="yes"/>
      <point x="277" y="355"/>
      <point x="244" y="320"/>
      <point x="244" y="264" type="curve" smooth="yes"/>
      <point x="244" y="250"/>
      <point x="245" y="234"/>
      <point x="247" y="217" type="curve"/>
    </contour>
    <contour>
      <point x="292" y="-2" type="line"/>
      <point x="285" y="94" type="line"/>
      <point x="248" y="92" type="line"/>
      <point x="247" y="-1" type="line"/>
    </contour>
  </outline>
</glyph>
<glyph name="at" format="2">
  <advance width="938"/>
  <unicode hex="0040"/>
  <outline>
    <contour>
      <point x="453" y="-173" type="curve" smooth="yes"/>
      <point x="552" y="-173"/>
      <point x="634" y="-151"/>
      <point x="701" y="-120" type="curve"/>
      <point x="689" y="-95" type="line"/>
      <point x="629" y="-123"/>
      <point x="545" y="-145"/>
      <point x="453" y="-145" type="curve" smooth="yes"/>
      <point x="226" y="-145"/>
      <point x="119" y="25"/>
      <point x="119" y="247" type="curve" smooth="yes"/>
      <point x="119" y="467"/>
      <point x="240" y="687"/>
      <point x="488" y="687" type="curve" smooth="yes"/>
      <point x="723" y="687"/>
      <point x="814" y="541"/>
      <point x="814" y="344" type="curve" smooth="yes"/>
      <point x="814" y="152"/>
      <point x="735" y="19"/>
      <point x="619" y="19" type="curve" smooth="yes"/>
      <point x="576" y="19"/>
      <point x="562" y="49"/>
      <point x="562" y="103" type="curve" smooth="yes"/>
      <point x="562" y="171"/>
      <point x="600" y="412"/>
      <point x="620" y="555" type="curve"/>
      <point x="586" y="548" type="line"/>
      <point x="576" y="465" type="line"/>
      <point x="557" y="527"/>
      <point x="522" y="560"/>
      <point x="465" y="560" type="curve" smooth="yes"/>
      <point x="369" y="560"/>
      <point x="268" y="450"/>
      <point x="268" y="166" type="curve" smooth="yes"/>
      <point x="268" y="42"/>
      <point x="321" y="-9"/>
      <point x="381" y="-9" type="curve" smooth="yes"/>
      <point x="443" y="-9"/>
      <point x="497" y="37"/>
      <point x="533" y="106" type="curve"/>
      <point x="530" y="37"/>
      <point x="553" y="-10"/>
      <point x="613" y="-10" type="curve" smooth="yes"/>
      <point x="761" y="-10"/>
      <point x="845" y="152"/>
      <point x="845" y="349" type="curve" smooth="yes"/>
      <point x="845" y="542"/>
      <point x="748" y="717"/>
      <point x="490" y="717" type="curve" smooth="yes"/>
      <point x="222" y="717"/>
      <point x="88" y="480"/>
      <point x="88" y="243" type="curve" smooth="yes"/>
      <point x="88" y="18"/>
      <point x="200" y="-173"/>
    </contour>
    <contour>
      <point x="386" y="22" type="curve" smooth="yes"/>
      <point x="321" y="22"/>
      <point x="298" y="71"/>
      <point x="298" y="167" type="curve" smooth="yes"/>
      <point x="298" y="419"/>
      <point x="377" y="531"/>
      <point x="463" y="531" type="curve" smooth="yes"/>
      <point x="536" y="531"/>
      <point x="572" y="446"/>
      <point x="560" y="346" type="curve" smooth="yes"/>
      <point x="547" y="242" type="line" smooth="yes"/>
      <point x="531" y="112"/>
      <point x="456" y="22"/>
    </contour>
  </outline>
</glyph>
<glyph name="A" format="2">
  <advance width="467"/>
  <unicode hex="0041"/>
  <anchor x="232" y="0" name="bottom"/>
  <anchor x="418" y="6" name="ogonek"/>
  <anchor x="236" y="693" name="top"/>
  <outline>
    <contour>
      <point x="386" y="-3" type="curve"/>
      <point x="422" y="0" type="line"/>
      <point x="400" y="95"/>
      <point x="370" y="226"/>
      <point x="340" y="359" type="curve" smooth="yes"/>
      <point x="313" y="480"/>
      <point x="286" y="604"/>
      <point x="264" y="706" type="curve"/>
      <point x="199" y="704" type="line"/>
      <point x="231" y="682" type="line"/>
      <point x="257" y="571"/>
      <point x="283" y="456"/>
      <point x="308" y="349" type="curve" smooth="yes"/>
      <point x="338" y="216"/>
      <point x="366" y="93"/>
    </contour>
    <contour>
      <point x="103" y="180" type="line"/>
      <point x="359" y="184" type="line"/>
      <point x="359" y="212" type="line"/>
      <point x="103" y="216" type="line"/>
    </contour>
    <contour>
      <point x="83" y="6" type="line"/>
      <point x="105" y="105"/>
      <point x="131" y="225"/>
      <point x="158" y="348" type="curve" smooth="yes"/>
      <point x="184" y="465"/>
      <point x="210" y="584"/>
      <point x="232" y="688" type="curve"/>
      <point x="264" y="706" type="line"/>
      <point x="199" y="704" type="line"/>
      <point x="182" y="620"/>
      <point x="154" y="489"/>
      <point x="125" y="358" type="curve" smooth="yes"/>
      <point x="96" y="226"/>
      <point x="66" y="94"/>
      <point x="46" y="7" type="curve"/>
    </contour>
  </outline>
</glyph>
<glyph name="B" format="2">
  <advance width="462"/>
  <unicode hex="0042"/>
  <guideline x="459" y="23" angle="0"/>
  <outline>
    <contour>
      <point x="118" y="222" type="line"/>
      <point x="284" y="222"/>
      <point x="380" y="276"/>
      <point x="380" y="472" type="curve" smooth="yes"/>
      <point x="380" y="667"/>
      <point x="333" y="720"/>
      <point x="185" y="720" type="curve" smooth="yes"/>
      <point x="156" y="720"/>
      <point x="122" y="718"/>
      <point x="84" y="714" type="curve"/>
      <point x="98" y="678" type="line"/>
      <point x="135" y="684"/>
      <point x="166" y="687"/>
      <point x="194" y="687" type="curve" smooth="yes"/>
      <point x="310" y="687"/>
      <point x="345" y="629"/>
      <point x="345" y="469" type="curve" smooth="yes"/>
      <point x="345" y="303"/>
      <point x="273" y="249"/>
      <point x="114" y="249" type="curve"/>
    </contour>
    <contour>
      <point x="192" y="-10" type="curve" smooth="yes"/>
      <point x="306" y="-10"/>
      <point x="390" y="16"/>
      <point x="390" y="124" type="curve" smooth="yes"/>
      <point x="390" y="217"/>
      <point x="304" y="252"/>
      <point x="114" y="249" type="curve"/>
      <point x="118" y="217" type="line"/>
      <point x="135" y="218"/>
      <point x="151" y="218"/>
      <point x="166" y="218" type="curve" smooth="yes"/>
      <point x="281" y="218"/>
      <point x="355" y="191"/>
      <point x="355" y="126" type="curve" smooth="yes"/>
      <point x="355" y="46"/>
      <point x="296" y="21"/>
      <point x="212" y="21" type="curve" smooth="yes"/>
      <point x="180" y="21"/>
      <point x="144" y="24"/>
      <point x="106" y="29" type="curve"/>
      <point x="87" y="-5" type="line"/>
      <point x="124" y="-8"/>
      <point x="159" y="-10"/>
    </contour>
    <contour>
      <point x="87" y="-5" type="curve"/>
      <point x="128" y="1" type="line"/>
      <point x="128" y="1"/>
      <point x="124" y="234"/>
      <point x="124" y="350" type="curve"/>
      <point x="124" y="466"/>
      <point x="127" y="704"/>
      <point x="127" y="704" type="curve"/>
      <point x="84" y="714" type="line"/>
      <point x="84" y="714"/>
      <point x="91" y="523"/>
      <point x="91" y="352" type="curve"/>
      <point x="91" y="180"/>
      <point x="87" y="-5"/>
    </contour>
  </outline>
</glyph>
<glyph name="C" format="2">
  <advance width="456"/>
  <unicode hex="0043"/>
  <anchor x="236" y="0" name="bottom"/>
  <anchor x="244" y="693" name="top"/>
  <outline>
    <contour>
      <point x="237" y="-6" type="curve" smooth="yes"/>
      <point x="353" y="-6"/>
      <point x="392" y="62"/>
      <point x="392" y="157" type="curve" smooth="yes"/>
      <point x="392" y="172"/>
      <point x="391" y="187"/>
      <point x="389" y="203" type="curve"/>
      <point x="356" y="203" type="line"/>
      <point x="358" y="186"/>
      <point x="359" y="167"/>
      <point x="359" y="152" type="curve" smooth="yes"/>
      <point x="359" y="78"/>
      <point x="333" y="26"/>
      <point x="240" y="26" type="curve" smooth="yes"/>
      <point x="171" y="26"/>
      <point x="139" y="66"/>
      <point x="122" y="138" type="curve" smooth="yes"/>
      <point x="110" y="190"/>
      <point x="108" y="259"/>
      <point x="108" y="341" type="curve" smooth="yes"/>
      <point x="108" y="412"/>
      <point x="111" y="475"/>
      <point x="121" y="527" type="curve" smooth="yes"/>
      <point x="138" y="618"/>
      <point x="175" y="674"/>
      <point x="248" y="674" type="curve" smooth="yes"/>
      <point x="342" y="674"/>
      <point x="368" y="604"/>
      <point x="368" y="499" type="curve" smooth="yes"/>
      <point x="368" y="456"/>
      <point x="364" y="407"/>
      <point x="358" y="354" type="curve"/>
      <point x="392" y="354" type="line"/>
      <point x="399" y="405"/>
      <point x="403" y="455"/>
      <point x="403" y="499" type="curve" smooth="yes"/>
      <point x="403" y="620"/>
      <point x="367" y="705"/>
      <point x="251" y="705" type="curve" smooth="yes"/>
      <point x="152" y="705"/>
      <point x="108" y="636"/>
      <point x="87" y="537" type="curve" smooth="yes"/>
      <point x="76" y="484"/>
      <point x="72" y="421"/>
      <point x="72" y="356" type="curve" smooth="yes"/>
      <point x="72" y="264"/>
      <point x="74" y="182"/>
      <point x="90" y="120" type="curve" smooth="yes"/>
      <point x="110" y="42"/>
      <point x="151" y="-6"/>
    </contour>
  </outline>
</glyph>
<glyph name="D" format="2">
  <advance width="477"/>
  <unicode hex="0044"/>
  <anchor x="163" y="348" name="center"/>
  <anchor x="216" y="693" name="top"/>
  <outline>
    <contour>
      <point x="179" y="-11" type="curve" smooth="yes"/>
      <point x="389" y="-11"/>
      <point x="417" y="98"/>
      <point x="417" y="361" type="curve" smooth="yes"/>
      <point x="417" y="631"/>
      <point x="380" y="708"/>
      <point x="178" y="708" type="curve" smooth="yes"/>
      <point x="149" y="708"/>
      <point x="117" y="707"/>
      <point x="82" y="704" type="curve"/>
      <point x="96" y="669" type="line"/>
      <point x="132" y="674"/>
      <point x="172" y="677"/>
      <point x="200" y="677" type="curve" smooth="yes"/>
      <point x="351" y="677"/>
      <point x="382" y="595"/>
      <point x="382" y="364" type="curve" smooth="yes"/>
      <point x="382" y="139"/>
      <point x="366" y="20"/>
      <point x="196" y="20" type="curve" smooth="yes"/>
      <point x="170" y="20"/>
      <point x="140" y="22"/>
      <point x="107" y="28" type="curve"/>
      <point x="85" y="-5" type="line"/>
      <point x="120" y="-9"/>
      <point x="151" y="-11"/>
    </contour>
    <contour>
      <point x="85" y="-5" type="curve"/>
      <point x="126" y="-4" type="line"/>
      <point x="125" y="-3"/>
      <point x="122" y="226"/>
      <point x="122" y="348" type="curve" smooth="yes"/>
      <point x="122" y="421"/>
      <point x="124" y="652"/>
      <point x="125" y="702" type="curve"/>
      <point x="82" y="704" type="line"/>
      <point x="85" y="626"/>
      <point x="89" y="477"/>
      <point x="89" y="352" type="curve"/>
      <point x="89" y="227"/>
      <point x="87" y="75"/>
    </contour>
  </outline>
</glyph>
<glyph name="E" format="2">
  <advance width="423"/>
  <unicode hex="0045"/>
  <anchor x="212" y="0" name="bottom"/>
  <anchor x="329" y="5" name="ogonek"/>
  <anchor x="214" y="693" name="top"/>
  <outline>
    <contour>
      <point x="85" y="-5" type="curve"/>
      <point x="126" y="1" type="line"/>
      <point x="126" y="1"/>
      <point x="122" y="234"/>
      <point x="122" y="350" type="curve"/>
      <point x="122" y="466"/>
      <point x="125" y="687"/>
      <point x="125" y="687" type="curve"/>
      <point x="82" y="699" type="line"/>
      <point x="82" y="699"/>
      <point x="89" y="523"/>
      <point x="89" y="352" type="curve"/>
      <point x="89" y="181"/>
      <point x="85" y="-5"/>
    </contour>
    <contour>
      <point x="85" y="-5" type="line"/>
      <point x="355" y="0" type="line"/>
      <point x="355" y="25" type="line"/>
      <point x="119" y="30" type="line"/>
    </contour>
    <contour>
      <point x="104" y="216" type="line"/>
      <point x="348" y="220" type="line"/>
      <point x="350" y="248" type="line"/>
      <point x="104" y="251" type="line"/>
    </contour>
    <contour>
      <point x="110" y="662" type="line"/>
      <point x="345" y="663" type="line"/>
      <point x="345" y="693" type="line"/>
      <point x="82" y="699" type="line"/>
    </contour>
  </outline>
</glyph>
<glyph name="F" format="2">
  <advance width="400"/>
  <unicode hex="0046"/>
  <outline>
    <contour>
      <point x="85" y="-5" type="curve"/>
      <point x="126" y="1" type="line"/>
      <point x="126" y="1"/>
      <point x="122" y="234"/>
      <point x="122" y="350" type="curve"/>
      <point x="122" y="466"/>
      <point x="125" y="693"/>
      <point x="125" y="693" type="curve"/>
      <point x="82" y="705" type="line"/>
      <point x="82" y="705"/>
      <point x="89" y="523"/>
      <point x="89" y="352" type="curve"/>
      <point x="89" y="181"/>
      <point x="85" y="-5"/>
    </contour>
    <contour>
      <point x="104" y="255" type="line"/>
      <point x="343" y="259" type="line"/>
      <point x="342" y="289" type="line"/>
      <point x="104" y="292" type="line"/>
    </contour>
    <contour>
      <point x="110" y="668" type="line"/>
      <point x="340" y="669" type="line"/>
      <point x="342" y="699" type="line"/>
      <point x="82" y="705" type="line"/>
    </contour>
  </outline>
</glyph>
<glyph name="G" format="2">
  <advance width="459"/>
  <unicode hex="0047"/>
  <anchor x="246" y="0" name="bottom"/>
  <anchor x="244" y="693" name="top"/>
  <outline>
    <contour>
      <point x="72" y="361" type="curve" smooth="yes"/>
      <point x="72" y="266"/>
      <point x="74" y="181"/>
      <point x="90" y="117" type="curve" smooth="yes"/>
      <point x="110" y="38"/>
      <point x="151" y="-10"/>
      <point x="237" y="-10" type="curve" smooth="yes"/>
      <point x="314" y="-10"/>
      <point x="348" y="26"/>
      <point x="366" y="54" type="curve"/>
      <point x="372" y="0" type="line"/>
      <point x="392" y="0" type="line"/>
      <point x="388" y="258" type="line"/>
      <point x="255" y="258" type="line"/>
      <point x="255" y="230" type="line"/>
      <point x="356" y="234" type="line"/>
      <point x="358" y="209"/>
      <point x="360" y="185"/>
      <point x="360" y="163" type="curve" smooth="yes"/>
      <point x="360" y="79"/>
      <point x="337" y="22"/>
      <point x="240" y="22" type="curve" smooth="yes"/>
      <point x="172" y="22"/>
      <point x="139" y="61"/>
      <point x="122" y="136" type="curve" smooth="yes"/>
      <point x="110" y="189"/>
      <point x="108" y="261"/>
      <point x="108" y="350" type="curve" smooth="yes"/>
      <point x="108" y="415"/>
      <point x="111" y="479"/>
      <point x="121" y="533" type="curve" smooth="yes"/>
      <point x="137" y="620"/>
      <point x="173" y="682"/>
      <point x="248" y="682" type="curve" smooth="yes"/>
      <point x="341" y="682"/>
      <point x="368" y="616"/>
      <point x="368" y="511" type="curve" smooth="yes"/>
      <point x="368" y="475"/>
      <point x="365" y="434"/>
      <point x="360" y="389" type="curve"/>
      <point x="394" y="389" type="line"/>
      <point x="400" y="431"/>
      <point x="403" y="472"/>
      <point x="403" y="509" type="curve" smooth="yes"/>
      <point x="403" y="628"/>
      <point x="367" y="713"/>
      <point x="253" y="713" type="curve" smooth="yes"/>
      <point x="154" y="713"/>
      <point x="107" y="643"/>
      <point x="86" y="541" type="curve" smooth="yes"/>
      <point x="75" y="488"/>
      <point x="72" y="426"/>
    </contour>
  </outline>
</glyph>
<glyph name="H" format="2">
  <advance width="502"/>
  <unicode hex="0048"/>
  <anchor x="252" y="0" name="bottom"/>
  <anchor x="251" y="459" name="center"/>
  <anchor x="251" y="693" name="top"/>
  <outline>
    <contour>
      <point x="379" y="-2" type="curve"/>
      <point x="420" y="-2" type="line"/>
      <point x="420" y="-2"/>
      <point x="415" y="210"/>
      <point x="415" y="381" type="curve"/>
      <point x="415" y="552"/>
      <point x="420" y="707"/>
      <point x="420" y="707" type="curve"/>
      <point x="378" y="705" type="line"/>
      <point x="378" y="705"/>
      <point x="381" y="496"/>
      <point x="381" y="379" type="curve"/>
      <point x="381" y="263"/>
      <point x="379" y="-2"/>
    </contour>
    <contour>
      <point x="107" y="250" type="line"/>
      <point x="107" y="216" type="line"/>
      <point x="390" y="216" type="line"/>
      <point x="389" y="255" type="line"/>
    </contour>
    <contour>
      <point x="86" y="0" type="curve"/>
      <point x="129" y="1" type="line"/>
      <point x="129" y="1"/>
      <point x="124" y="234"/>
      <point x="124" y="350" type="curve"/>
      <point x="124" y="466"/>
      <point x="128" y="697"/>
      <point x="128" y="697" type="curve"/>
      <point x="82" y="695" type="line"/>
      <point x="82" y="695"/>
      <point x="91" y="523"/>
      <point x="91" y="352" type="curve"/>
      <point x="91" y="181"/>
      <point x="86" y="0"/>
    </contour>
  </outline>
</glyph>
<glyph name="I" format="2">
  <advance width="239"/>
  <unicode hex="0049"/>
  <anchor x="118" y="0" name="bottom"/>
  <anchor x="140" y="3" name="ogonek"/>
  <anchor x="120" y="693" name="top"/>
  <outline>
    <contour>
      <point x="99" y="700" type="line"/>
      <point x="102" y="644"/>
      <point x="103" y="474"/>
      <point x="102" y="379" type="curve"/>
      <point x="102" y="263"/>
      <point x="100" y="-2"/>
      <point x="100" y="-2" type="curve"/>
      <point x="140" y="-2" type="line"/>
      <point x="140" y="-2"/>
      <point x="136" y="210"/>
      <point x="136" y="381" type="curve"/>
      <point x="136" y="552"/>
      <point x="140" y="702"/>
      <point x="140" y="702" type="curve"/>
    </contour>
  </outline>
</glyph>
<glyph name="K" format="2">
  <advance width="449"/>
  <unicode hex="004B"/>
  <anchor x="239" y="0" name="bottom"/>
  <outline>
    <contour>
      <point x="382" y="1" type="curve"/>
      <point x="431" y="5" type="line"/>
      <point x="335" y="100"/>
      <point x="212" y="227"/>
      <point x="148" y="296" type="curve"/>
      <point x="219" y="400"/>
      <point x="362" y="605"/>
      <point x="433" y="704" type="curve"/>
      <point x="389" y="702" type="line"/>
      <point x="327" y="609"/>
      <point x="209" y="434"/>
      <point x="109" y="289" type="curve"/>
      <point x="197" y="198"/>
      <point x="300" y="89"/>
    </contour>
    <contour>
      <point x="85" y="0" type="curve"/>
      <point x="126" y="1" type="line"/>
      <point x="126" y="1"/>
      <point x="122" y="234"/>
      <point x="122" y="350" type="curve"/>
      <point x="122" y="466"/>
      <point x="125" y="697"/>
      <point x="125" y="697" type="curve"/>
      <point x="82" y="699" type="line"/>
      <point x="82" y="699"/>
      <point x="89" y="523"/>
      <point x="89" y="352" type="curve"/>
      <point x="89" y="181"/>
      <point x="85" y="0"/>
    </contour>
  </outline>
</glyph>
<glyph name="L" format="2">
  <advance width="388"/>
  <unicode hex="004C"/>
  <anchor x="226" y="0" name="bottom"/>
  <anchor x="161" y="350" name="center"/>
  <anchor x="105" y="693" name="top"/>
  <anchor x="223" y="478" name="topright"/>
  <outline>
    <contour>
      <point x="85" y="-5" type="curve"/>
      <point x="126" y="1" type="line"/>
      <point x="126" y="1"/>
      <point x="122" y="234"/>
      <point x="122" y="350" type="curve"/>
      <point x="122" y="466"/>
      <point x="125" y="704"/>
      <point x="125" y="704" type="curve"/>
      <point x="82" y="700" type="line"/>
      <point x="82" y="700"/>
      <point x="89" y="523"/>
      <point x="89" y="352" type="curve"/>
      <point x="89" y="181"/>
      <point x="85" y="-5"/>
    </contour>
    <contour>
      <point x="85" y="-5" type="line"/>
      <point x="355" y="0" type="line"/>
      <point x="355" y="27" type="line"/>
      <point x="119" y="30" type="line"/>
    </contour>
  </outline>
</glyph>
<glyph name="M" format="2">
  <advance width="674"/>
  <unicode hex="004D"/>
  <outline>
    <contour>
      <point x="90" y="-1" type="curve"/>
      <point x="130" y="-1" type="line"/>
      <point x="128" y="122"/>
      <point x="127" y="239"/>
      <point x="127" y="351" type="curve" smooth="yes"/>
      <point x="126" y="450"/>
      <point x="125" y="548"/>
      <point x="125" y="638" type="curve"/>
      <point x="152" y="556"/>
      <point x="183" y="454"/>
      <point x="213" y="355" type="curve" smooth="yes"/>
      <point x="250" y="234"/>
      <point x="286" y="113"/>
      <point x="313" y="26" type="curve"/>
      <point x="353" y="23" type="line"/>
      <point x="380" y="110"/>
      <point x="417" y="231"/>
      <point x="454" y="353" type="curve" smooth="yes"/>
      <point x="485" y="453"/>
      <point x="516" y="557"/>
      <point x="543" y="640" type="curve"/>
      <point x="544" y="547"/>
      <point x="545" y="459"/>
      <point x="544" y="360" type="curve" smooth="yes"/>
      <point x="544" y="261"/>
      <point x="544" y="149"/>
      <point x="543" y="0" type="curve"/>
      <point x="583" y="-1" type="line"/>
      <point x="581" y="104"/>
      <point x="580" y="244"/>
      <point x="580" y="376" type="curve" smooth="yes"/>
      <point x="580" y="503"/>
      <point x="581" y="623"/>
      <point x="582" y="697" type="curve"/>
      <point x="521" y="697" type="line"/>
      <point x="494" y="605"/>
      <point x="458" y="480"/>
      <point x="421" y="356" type="curve" smooth="yes"/>
      <point x="391" y="256"/>
      <point x="360" y="156"/>
      <point x="334" y="74" type="curve"/>
      <point x="313" y="141"/>
      <point x="280" y="246"/>
      <point x="247" y="356" type="curve" smooth="yes"/>
      <point x="209" y="479"/>
      <point x="169" y="610"/>
      <point x="141" y="704" type="curve"/>
      <point x="91" y="702" type="line"/>
      <point x="93" y="611"/>
      <point x="93" y="479"/>
      <point x="93" y="347" type="curve" smooth="yes"/>
      <point x="93" y="217"/>
      <point x="92" y="88"/>
    </contour>
  </outline>
</glyph>
<glyph name="N" format="2">
  <advance width="509"/>
  <unicode hex="004E"/>
  <anchor x="253" y="0" name="bottom"/>
  <anchor x="256" y="693" name="top"/>
  <outline>
    <contour>
      <point x="84" y="704" type="line"/>
      <point x="87" y="616"/>
      <point x="88" y="486"/>
      <point x="89" y="355" type="curve" smooth="yes"/>
      <point x="89" y="225"/>
      <point x="89" y="93"/>
      <point x="87" y="1" type="curve"/>
      <point x="127" y="0" type="line"/>
      <point x="125" y="130"/>
      <point x="125" y="251"/>
      <point x="124" y="364" type="curve" smooth="yes"/>
      <point x="124" y="458"/>
      <point x="123" y="547"/>
      <point x="123" y="628" type="curve"/>
      <point x="140" y="587"/>
      <point x="187" y="472"/>
      <point x="240" y="339" type="curve" smooth="yes"/>
      <point x="285" y="227"/>
      <point x="334" y="104"/>
      <point x="376" y="-1" type="curve"/>
      <point x="423" y="3" type="line"/>
      <point x="421" y="111"/>
      <point x="420" y="255"/>
      <point x="421" y="391" type="curve" smooth="yes"/>
      <point x="421" y="518"/>
      <point x="422" y="637"/>
      <point x="425" y="715" type="curve"/>
      <point x="382" y="715" type="line"/>
      <point x="384" y="600"/>
      <point x="384" y="492"/>
      <point x="385" y="382" type="curve" smooth="yes"/>
      <point x="385" y="283"/>
      <point x="386" y="182"/>
      <point x="386" y="72" type="curve"/>
      <point x="357" y="138"/>
      <point x="311" y="253"/>
      <point x="264" y="372" type="curve" smooth="yes"/>
      <point x="215" y="495"/>
      <point x="165" y="622"/>
      <point x="135" y="704" type="curve"/>
    </contour>
  </outline>
</glyph>
<glyph name="P" format="2">
  <advance width="437"/>
  <unicode hex="0050"/>
  <outline>
    <contour>
      <point x="116" y="220" type="line"/>
      <point x="287" y="220"/>
      <point x="378" y="294"/>
      <point x="378" y="472" type="curve" smooth="yes"/>
      <point x="378" y="663"/>
      <point x="324" y="713"/>
      <point x="180" y="713" type="curve" smooth="yes"/>
      <point x="151" y="713"/>
      <point x="118" y="711"/>
      <point x="82" y="708" type="curve"/>
      <point x="96" y="670" type="line"/>
      <point x="132" y="676"/>
      <point x="163" y="679"/>
      <point x="190" y="679" type="curve" smooth="yes"/>
      <point x="305" y="679"/>
      <point x="343" y="624"/>
      <point x="343" y="469" type="curve" smooth="yes"/>
      <point x="343" y="323"/>
      <point x="275" y="246"/>
      <point x="112" y="254" type="curve"/>
    </contour>
    <contour>
      <point x="85" y="-2" type="curve"/>
      <point x="126" y="1" type="line"/>
      <point x="124" y="101"/>
      <point x="122" y="265"/>
      <point x="122" y="350" type="curve"/>
      <point x="122" y="385"/>
      <point x="124" y="662"/>
      <point x="125" y="698" type="curve"/>
      <point x="82" y="708" type="line"/>
      <point x="85" y="628"/>
      <point x="89" y="477"/>
      <point x="89" y="352" type="curve"/>
      <point x="89" y="227"/>
      <point x="87" y="77"/>
    </contour>
  </outline>
</glyph>
<glyph name="Q" format="2">
  <advance width="489"/>
  <unicode hex="0051"/>
  <outline>
    <contour>
      <point x="240" y="-2" type="curve" smooth="yes"/>
      <point x="322" y="-2"/>
      <point x="368" y="51"/>
      <point x="392" y="131" type="curve" smooth="yes"/>
      <point x="411" y="194"/>
      <point x="417" y="274"/>
      <point x="417" y="359" type="curve" smooth="yes"/>
      <point x="417" y="424"/>
      <point x="416" y="492"/>
      <point x="405" y="550" type="curve" smooth="yes"/>
      <point x="389" y="641"/>
      <point x="349" y="709"/>
      <point x="257" y="709" type="curve" smooth="yes"/>
      <point x="158" y="709"/>
      <point x="111" y="644"/>
      <point x="89" y="554" type="curve" smooth="yes"/>
      <point x="75" y="496"/>
      <point x="72" y="428"/>
      <point x="72" y="360" type="curve" smooth="yes"/>
      <point x="72" y="282"/>
      <point x="75" y="210"/>
      <point x="87" y="151" type="curve" smooth="yes"/>
      <point x="105" y="58"/>
      <point x="148" y="-2"/>
    </contour>
    <contour>
      <point x="241" y="31" type="curve" smooth="yes"/>
      <point x="167" y="31"/>
      <point x="134" y="80"/>
      <point x="119" y="161" type="curve" smooth="yes"/>
      <point x="110" y="213"/>
      <point x="108" y="277"/>
      <point x="108" y="349" type="curve" smooth="yes"/>
      <point x="108" y="417"/>
      <point x="111" y="486"/>
      <point x="123" y="544" type="curve" smooth="yes"/>
      <point x="141" y="623"/>
      <point x="177" y="679"/>
      <point x="250" y="679" type="curve" smooth="yes"/>
      <point x="329" y="679"/>
      <point x="360" y="623"/>
      <point x="372" y="536" type="curve" smooth="yes"/>
      <point x="378" y="487"/>
      <point x="379" y="428"/>
      <point x="379" y="364" type="curve" smooth="yes"/>
      <point x="379" y="274"/>
      <point x="375" y="197"/>
      <point x="359" y="140" type="curve" smooth="yes"/>
      <point x="341" y="71"/>
      <point x="305" y="31"/>
    </contour>
    <contour>
      <point x="420" y="-59" type="line"/>
      <point x="445" y="-36" type="line"/>
      <point x="249" y="134" type="line"/>
      <point x="230" y="114" type="line"/>
    </contour>
  </outline>
</glyph>
<glyph name="R" format="2">
  <advance width="463"/>
  <unicode hex="0052"/>
  <anchor x="240" y="0" name="bottom"/>
  <anchor x="228" y="693" name="top"/>
  <outline>
    <contour>
      <point x="122" y="220" type="line"/>
      <point x="293" y="220"/>
      <point x="384" y="294"/>
      <point x="384" y="472" type="curve" smooth="yes"/>
      <point x="384" y="663"/>
      <point x="330" y="713"/>
      <point x="186" y="713" type="curve" smooth="yes"/>
      <point x="157" y="713"/>
      <point x="124" y="711"/>
      <point x="88" y="708" type="curve"/>
      <point x="102" y="670" type="line"/>
      <point x="138" y="676"/>
      <point x="169" y="679"/>
      <point x="196" y="679" type="curve" smooth="yes"/>
      <point x="311" y="679"/>
      <point x="349" y="624"/>
      <point x="349" y="469" type="curve" smooth="yes"/>
      <point x="349" y="323"/>
      <point x="281" y="246"/>
      <point x="118" y="254" type="curve"/>
    </contour>
    <contour>
      <point x="91" y="-2" type="curve"/>
      <point x="132" y="1" type="line"/>
      <point x="130" y="101"/>
      <point x="128" y="265"/>
      <point x="128" y="350" type="curve"/>
      <point x="128" y="385"/>
      <point x="130" y="662"/>
      <point x="131" y="698" type="curve"/>
      <point x="88" y="708" type="line"/>
      <point x="91" y="628"/>
      <point x="95" y="477"/>
      <point x="95" y="352" type="curve"/>
      <point x="95" y="227"/>
      <point x="93" y="77"/>
    </contour>
    <contour>
      <point x="375" y="-6" type="curve"/>
      <point x="420" y="-3" type="line"/>
      <point x="363" y="93"/>
      <point x="318" y="184"/>
      <point x="277" y="273" type="curve"/>
      <point x="250" y="248" type="line"/>
      <point x="297" y="159"/>
      <point x="337" y="78"/>
    </contour>
  </outline>
</glyph>
<glyph name="S" format="2">
  <advance width="452"/>
  <unicode hex="0053"/>
  <anchor x="227" y="0" name="bottom"/>
  <anchor x="231" y="693" name="top"/>
  <outline>
    <contour>
      <point x="223" y="-10" type="curve" smooth="yes"/>
      <point x="333" y="-10"/>
      <point x="381" y="49"/>
      <point x="381" y="134" type="curve" smooth="yes"/>
      <point x="381" y="231"/>
      <point x="300" y="279"/>
      <point x="227" y="334" type="curve" smooth="yes"/>
      <point x="167" y="379"/>
      <point x="112" y="429"/>
      <point x="112" y="514" type="curve" smooth="yes"/>
      <point x="112" y="614"/>
      <point x="145" y="673"/>
      <point x="232" y="673" type="curve" smooth="yes"/>
      <point x="323" y="673"/>
      <point x="346" y="601"/>
      <point x="346" y="509" type="curve" smooth="yes"/>
      <point x="346" y="483"/>
      <point x="345" y="456"/>
      <point x="342" y="428" type="curve"/>
      <point x="375" y="428" type="line"/>
      <point x="378" y="457"/>
      <point x="379" y="486"/>
      <point x="379" y="514" type="curve" smooth="yes"/>
      <point x="379" y="619"/>
      <point x="353" y="704"/>
      <point x="231" y="704" type="curve" smooth="yes"/>
      <point x="130" y="704"/>
      <point x="78" y="628"/>
      <point x="78" y="526" type="curve" smooth="yes"/>
      <point x="78" y="413"/>
      <point x="139" y="357"/>
      <point x="202" y="311" type="curve" smooth="yes"/>
      <point x="272" y="260"/>
      <point x="346" y="220"/>
      <point x="346" y="127" type="curve" smooth="yes"/>
      <point x="346" y="63"/>
      <point x="314" y="20"/>
      <point x="222" y="20" type="curve" smooth="yes"/>
      <point x="135" y="20"/>
      <point x="112" y="78"/>
      <point x="112" y="135" type="curve" smooth="yes"/>
      <point x="112" y="152"/>
      <point x="114" y="168"/>
      <point x="117" y="183" type="curve"/>
      <point x="83" y="183" type="line"/>
      <point x="81" y="168"/>
      <point x="80" y="152"/>
      <point x="80" y="137" type="curve" smooth="yes"/>
      <point x="80" y="60"/>
      <point x="112" y="-10"/>
    </contour>
  </outline>
</glyph>
<glyph name="U" format="2">
  <advance width="485"/>
  <unicode hex="0055"/>
  <anchor x="244" y="0" name="bottom"/>
  <anchor x="274" y="0" name="ogonek"/>
  <anchor x="245" y="693" name="top"/>
  <anchor x="341" y="693" name="topright"/>
  <outline>
    <contour>
      <point x="242" y="-10" type="curve"/>
      <point x="378" y="-10"/>
      <point x="405" y="94"/>
      <point x="405" y="182" type="curve" smooth="yes"/>
      <point x="405" y="212"/>
      <point x="405" y="308"/>
      <point x="404" y="422" type="curve"/>
      <point x="404" y="554"/>
      <point x="406" y="617"/>
      <point x="407" y="706" type="curve"/>
      <point x="364" y="707" type="line"/>
      <point x="366" y="645"/>
      <point x="369" y="551"/>
      <point x="370" y="424" type="curve"/>
      <point x="370" y="302"/>
      <point x="369" y="186"/>
      <point x="369" y="166" type="curve" smooth="yes"/>
      <point x="369" y="98"/>
      <point x="348" y="19"/>
      <point x="244" y="19" type="curve" smooth="yes"/>
      <point x="148" y="19"/>
      <point x="113" y="82"/>
      <point x="113" y="179" type="curve" smooth="yes"/>
      <point x="113" y="219"/>
      <point x="113" y="349"/>
      <point x="114" y="426" type="curve"/>
      <point x="115" y="494"/>
      <point x="116" y="607"/>
      <point x="119" y="695" type="curve"/>
      <point x="78" y="696" type="line"/>
      <point x="81" y="603"/>
      <point x="81" y="522"/>
      <point x="81" y="432" type="curve"/>
      <point x="81" y="364"/>
      <point x="80" y="250"/>
      <point x="80" y="180" type="curve" smooth="yes"/>
      <point x="80" y="66"/>
      <point x="117" y="-10"/>
    </contour>
  </outline>
</glyph>
<glyph name="V" format="2">
  <advance width="460"/>
  <unicode hex="0056"/>
  <outline>
    <contour>
      <point x="43" y="709" type="line"/>
      <point x="66" y="608"/>
      <point x="96" y="478"/>
      <point x="127" y="344" type="curve" smooth="yes"/>
      <point x="155" y="225"/>
      <point x="184" y="103"/>
      <point x="209" y="-5" type="curve"/>
      <point x="255" y="-6" type="line"/>
      <point x="274" y="79"/>
      <point x="304" y="211"/>
      <point x="334" y="345" type="curve" smooth="yes"/>
      <point x="364" y="477"/>
      <point x="395" y="611"/>
      <point x="417" y="702" type="curve"/>
      <point x="382" y="700" type="line"/>
      <point x="359" y="593"/>
      <point x="331" y="471"/>
      <point x="303" y="349" type="curve" smooth="yes"/>
      <point x="278" y="244"/>
      <point x="254" y="139"/>
      <point x="232" y="44" type="curve"/>
      <point x="207" y="146"/>
      <point x="183" y="246"/>
      <point x="160" y="349" type="curve" smooth="yes"/>
      <point x="133" y="465"/>
      <point x="107" y="583"/>
      <point x="78" y="709" type="curve"/>
    </contour>
  </outline>
</glyph>
<glyph name="W" format="2">
  <advance width="763"/>
  <unicode hex="0057"/>
  <anchor x="381" y="693" name="top"/>
  <outline>
    <contour>
      <point x="249" y="-6" type="line"/>
      <point x="266" y="68"/>
      <point x="296" y="203"/>
      <point x="327" y="339" type="curve" smooth="yes"/>
      <point x="346" y="423"/>
      <point x="365" y="508"/>
      <point x="382" y="577" type="curve"/>
      <point x="399" y="506"/>
      <point x="419" y="421"/>
      <point x="439" y="334" type="curve" smooth="yes"/>
      <point x="467" y="214"/>
      <point x="496" y="90"/>
      <point x="519" y="-5" type="curve"/>
      <point x="580" y="-6" type="line"/>
      <point x="598" y="80"/>
      <point x="625" y="213"/>
      <point x="654" y="347" type="curve" smooth="yes"/>
      <point x="682" y="479"/>
      <point x="710" y="612"/>
      <point x="731" y="702" type="curve"/>
      <point x="692" y="700" type="line"/>
      <point x="671" y="599"/>
      <point x="645" y="473"/>
      <point x="619" y="348" type="curve" smooth="yes"/>
      <point x="595" y="229"/>
      <point x="570" y="111"/>
      <point x="550" y="19" type="curve"/>
      <point x="525" y="119"/>
      <point x="498" y="229"/>
      <point x="473" y="336" type="curve" smooth="yes"/>
      <point x="445" y="452"/>
      <point x="420" y="563"/>
      <point x="401" y="652" type="curve"/>
      <point x="364" y="652" type="line"/>
      <point x="344" y="563"/>
      <point x="320" y="455"/>
      <point x="296" y="350" type="curve" smooth="yes"/>
      <point x="267" y="219"/>
      <point x="237" y="93"/>
      <point x="219" y="19" type="curve"/>
      <point x="192" y="138"/>
      <point x="169" y="246"/>
      <point x="146" y="352" type="curve" smooth="yes"/>
      <point x="121" y="469"/>
      <point x="97" y="584"/>
      <point x="71" y="709" type="curve"/>
      <point x="32" y="709" type="line"/>
      <point x="54" y="608"/>
      <point x="83" y="477"/>
      <point x="113" y="342" type="curve" smooth="yes"/>
      <point x="139" y="224"/>
      <point x="165" y="103"/>
      <point x="188" y="-5" type="curve"/>
    </contour>
  </outline>
</glyph>
<glyph name="X" format="2">
  <advance width="443"/>
  <unicode hex="0058"/>
  <outline>
    <contour>
      <point x="27" y="-1" type="curve"/>
      <point x="71" y="0" type="line"/>
      <point x="89" y="42"/>
      <point x="168" y="207"/>
      <point x="240" y="356" type="curve" smooth="yes"/>
      <point x="305" y="489"/>
      <point x="382" y="641"/>
      <point x="409" y="693" type="curve"/>
      <point x="366" y="694" type="line"/>
      <point x="347" y="651"/>
      <point x="274" y="495"/>
      <point x="206" y="354" type="curve" smooth="yes"/>
      <point x="139" y="215"/>
      <point x="55" y="55"/>
    </contour>
    <contour>
      <point x="372" y="-7" type="curve"/>
      <point x="416" y="-7" type="line"/>
      <point x="388" y="50"/>
      <point x="304" y="224"/>
      <point x="240" y="364" type="curve" smooth="yes"/>
      <point x="178" y="503"/>
      <point x="113" y="644"/>
      <point x="93" y="690" type="curve"/>
      <point x="47" y="691" type="line"/>
      <point x="74" y="638"/>
      <point x="150" y="486"/>
      <point x="213" y="353" type="curve" smooth="yes"/>
      <point x="281" y="207"/>
      <point x="354" y="38"/>
    </contour>
  </outline>
</glyph>
<glyph name="Y" format="2">
  <advance width="409"/>
  <unicode hex="0059"/>
  <anchor x="202" y="0" name="bottom"/>
  <anchor x="204" y="693" name="top"/>
  <outline>
    <contour>
      <point x="183" y="0" type="curve"/>
      <point x="222" y="1" type="line"/>
      <point x="221" y="43"/>
      <point x="219" y="143"/>
      <point x="216" y="222" type="curve"/>
      <point x="183" y="226" type="line"/>
      <point x="184" y="122"/>
      <point x="184" y="43"/>
    </contour>
    <contour>
      <point x="30" y="704" type="line"/>
      <point x="55" y="623"/>
      <point x="83" y="530"/>
      <point x="110" y="438" type="curve" smooth="yes"/>
      <point x="138" y="344"/>
      <point x="165" y="250"/>
      <point x="188" y="171" type="curve"/>
      <point x="213" y="174" type="line"/>
      <point x="234" y="244"/>
      <point x="264" y="340"/>
      <point x="295" y="438" type="curve" smooth="yes"/>
      <point x="324" y="529"/>
      <point x="355" y="621"/>
      <point x="380" y="697" type="curve"/>
      <point x="340" y="695" type="line"/>
      <point x="315" y="613"/>
      <point x="287" y="521"/>
      <point x="261" y="439" type="curve" smooth="yes"/>
      <point x="236" y="359"/>
      <point x="214" y="289"/>
      <point x="200" y="247" type="curve"/>
      <point x="188" y="288"/>
      <point x="165" y="361"/>
      <point x="142" y="444" type="curve" smooth="yes"/>
      <point x="118" y="530"/>
      <point x="93" y="627"/>
      <point x="72" y="704" type="curve"/>
    </contour>
  </outline>
</glyph>
<glyph name="Z" format="2">
  <advance width="393"/>
  <unicode hex="005A"/>
  <anchor x="191" y="693" name="top"/>
  <outline>
    <contour>
      <point x="52" y="693" type="curve"/>
      <point x="50" y="660" type="line"/>
      <point x="82" y="661"/>
      <point x="134" y="662"/>
      <point x="182" y="662" type="curve" smooth="yes"/>
      <point x="220" y="662"/>
      <point x="264" y="661"/>
      <point x="309" y="660" type="curve"/>
      <point x="281" y="593"/>
      <point x="228" y="473"/>
      <point x="171" y="344" type="curve" smooth="yes"/>
      <point x="125" y="239"/>
      <point x="75" y="128"/>
      <point x="33" y="33" type="curve"/>
      <point x="34" y="1" type="line"/>
      <point x="72" y="2"/>
      <point x="143" y="3"/>
      <point x="196" y="3" type="curve" smooth="yes"/>
      <point x="249" y="3"/>
      <point x="318" y="1"/>
      <point x="354" y="0" type="curve"/>
      <point x="358" y="36" type="line"/>
      <point x="323" y="35"/>
      <point x="266" y="34"/>
      <point x="217" y="33" type="curve" smooth="yes"/>
      <point x="178" y="32"/>
      <point x="124" y="33"/>
      <point x="73" y="33" type="curve"/>
      <point x="108" y="116"/>
      <point x="155" y="223"/>
      <point x="201" y="329" type="curve" smooth="yes"/>
      <point x="256" y="458"/>
      <point x="313" y="584"/>
      <point x="350" y="660" type="curve"/>
      <point x="350" y="695" type="line"/>
      <point x="317" y="694"/>
      <point x="259" y="693"/>
      <point x="205" y="692" type="curve" smooth="yes"/>
      <point x="152" y="691"/>
      <point x="87" y="692"/>
    </contour>
  </outline>
</glyph>
<glyph name="bracketleft" format="2">
  <advance width="449"/>
  <unicode hex="005B"/>
  <outline>
    <contour>
      <point x="120" y="-136" type="curve"/>
      <point x="153" y="-131" type="line"/>
      <point x="153" y="-70"/>
      <point x="153" y="196"/>
      <point x="153" y="315" type="curve" smooth="yes"/>
      <point x="153" y="434"/>
      <point x="153" y="635"/>
      <point x="153" y="681" type="curve"/>
      <point x="121" y="691" type="line"/>
      <point x="122" y="637"/>
      <point x="125" y="465"/>
      <point x="125" y="304" type="curve" smooth="yes"/>
      <point x="125" y="136"/>
      <point x="122" y="-78"/>
    </contour>
    <contour>
      <point x="120" y="-136" type="line"/>
      <point x="166" y="-134"/>
      <point x="298" y="-132"/>
      <point x="328" y="-131" type="curve"/>
      <point x="329" y="-105" type="line"/>
      <point x="300" y="-104"/>
      <point x="175" y="-103"/>
      <point x="134" y="-102" type="curve"/>
    </contour>
    <contour>
      <point x="143" y="661" type="line"/>
      <point x="181" y="662"/>
      <point x="301" y="663"/>
      <point x="329" y="663" type="curve"/>
      <point x="326" y="693" type="line"/>
      <point x="298" y="692"/>
      <point x="164" y="691"/>
      <point x="121" y="691" type="curve"/>
    </contour>
  </outline>
</glyph>
<glyph name="backslash" format="2">
  <advance width="288"/>
  <unicode hex="005C"/>
  <outline>
    <contour>
      <point x="263" y="0" type="line"/>
      <point x="228" y="105"/>
      <point x="186" y="238"/>
      <point x="150" y="365" type="curve" smooth="yes"/>
      <point x="113" y="491"/>
      <point x="80" y="612"/>
      <point x="58" y="695" type="curve"/>
      <point x="25" y="694" type="line"/>
      <point x="54" y="603"/>
      <point x="89" y="486"/>
      <point x="125" y="361" type="curve" smooth="yes"/>
      <point x="160" y="242"/>
      <point x="197" y="116"/>
      <point x="230" y="1" type="curve"/>
    </contour>
  </outline>
</glyph>
<glyph name="bracketright" format="2">
  <advance width="449"/>
  <unicode hex="005D"/>
  <outline>
    <contour>
      <point x="328" y="-134" type="line"/>
      <point x="327" y="-80"/>
      <point x="324" y="92"/>
      <point x="324" y="253" type="curve" smooth="yes"/>
      <point x="324" y="421"/>
      <point x="327" y="635"/>
      <point x="329" y="693" type="curve"/>
      <point x="296" y="688" type="line"/>
      <point x="296" y="627"/>
      <point x="296" y="361"/>
      <point x="296" y="242" type="curve" smooth="yes"/>
      <point x="296" y="123"/>
      <point x="296" y="-78"/>
      <point x="296" y="-124" type="curve"/>
    </contour>
    <contour>
      <point x="123" y="-136" type="line"/>
      <point x="151" y="-135"/>
      <point x="285" y="-134"/>
      <point x="328" y="-134" type="curve"/>
      <point x="306" y="-104" type="line"/>
      <point x="268" y="-105"/>
      <point x="148" y="-106"/>
      <point x="120" y="-106" type="curve"/>
    </contour>
    <contour>
      <point x="120" y="662" type="line"/>
      <point x="149" y="661"/>
      <point x="274" y="660"/>
      <point x="315" y="659" type="curve"/>
      <point x="329" y="693" type="line"/>
      <point x="283" y="691"/>
      <point x="151" y="689"/>
      <point x="121" y="688" type="curve"/>
    </contour>
  </outline>
</glyph>
<glyph name="grave" format="2">
  <advance width="189"/>
  <unicode hex="0060"/>
  <anchor x="107" y="555" name="_top"/>
  <outline>
    <contour>
      <point x="163" y="625" type="curve"/>
      <point x="174" y="644" type="line"/>
      <point x="155" y="654"/>
      <point x="130" y="668"/>
      <point x="105" y="682" type="curve" smooth="yes"/>
      <point x="82" y="695"/>
      <point x="58" y="709"/>
      <point x="38" y="722" type="curve"/>
      <point x="21" y="693" type="line"/>
      <point x="44" y="682"/>
      <point x="69" y="671"/>
      <point x="94" y="659" type="curve" smooth="yes"/>
      <point x="117" y="647"/>
      <point x="142" y="635"/>
    </contour>
  </outline>
</glyph>
<glyph name="a" format="2">
  <advance width="388"/>
  <unicode hex="0061"/>
  <anchor x="192" y="0" name="bottom"/>
  <anchor x="324" y="5" name="ogonek"/>
  <anchor x="192" y="515" name="top"/>
  <outline>
    <contour>
      <point x="285" y="0" type="line"/>
      <point x="319" y="-1" type="line"/>
      <point x="316" y="218" type="line"/>
      <point x="319" y="351" type="line" smooth="yes"/>
      <point x="320" y="416"/>
      <point x="307" y="525"/>
      <point x="195" y="525" type="curve" smooth="yes"/>
      <point x="112" y="525"/>
      <point x="71" y="468"/>
      <point x="71" y="392" type="curve" smooth="yes"/>
      <point x="71" y="372"/>
      <point x="73" y="350"/>
      <point x="79" y="328" type="curve"/>
      <point x="110" y="331" type="line"/>
      <point x="105" y="353"/>
      <point x="102" y="374"/>
      <point x="102" y="393" type="curve" smooth="yes"/>
      <point x="102" y="452"/>
      <point x="128" y="495"/>
      <point x="194" y="495" type="curve" smooth="yes"/>
      <point x="252" y="495"/>
      <point x="285" y="458"/>
      <point x="285" y="364" type="curve" smooth="yes"/>
      <point x="285" y="149" type="line"/>
    </contour>
    <contour>
      <point x="157" y="-7" type="curve" smooth="yes"/>
      <point x="277" y="-7"/>
      <point x="308" y="144"/>
      <point x="311" y="257" type="curve"/>
      <point x="287" y="219" type="line"/>
      <point x="287" y="118"/>
      <point x="234" y="25"/>
      <point x="162" y="25" type="curve" smooth="yes"/>
      <point x="108" y="25"/>
      <point x="91" y="61"/>
      <point x="91" y="118" type="curve" smooth="yes"/>
      <point x="91" y="175"/>
      <point x="141" y="209"/>
      <point x="192" y="241" type="curve" smooth="yes"/>
      <point x="246" y="274"/>
      <point x="301" y="303"/>
      <point x="301" y="353" type="curve"/>
      <point x="285" y="364" type="line"/>
      <point x="285" y="328"/>
      <point x="236" y="303"/>
      <point x="184" y="272" type="curve" smooth="yes"/>
      <point x="123" y="235"/>
      <point x="56" y="191"/>
      <point x="56" y="112" type="curve" smooth="yes"/>
      <point x="56" y="30"/>
      <point x="104" y="-7"/>
    </contour>
  </outline>
</glyph>
<glyph name="b" format="2">
  <advance width="430"/>
  <unicode hex="0062"/>
  <outline>
    <contour>
      <point x="221" y="-8" type="curve" smooth="yes"/>
      <point x="280" y="-8"/>
      <point x="315" y="20"/>
      <point x="335" y="72" type="curve" smooth="yes"/>
      <point x="365" y="151"/>
      <point x="374" y="325"/>
      <point x="357" y="417" type="curve" smooth="yes"/>
      <point x="345" y="483"/>
      <point x="314" y="523"/>
      <point x="247" y="523" type="curve" smooth="yes"/>
      <point x="151" y="523"/>
      <point x="87" y="424"/>
      <point x="87" y="250" type="curve"/>
      <point x="114" y="293" type="line"/>
      <point x="114" y="429"/>
      <point x="182" y="493"/>
      <point x="244" y="493" type="curve" smooth="yes"/>
      <point x="295" y="493"/>
      <point x="318" y="463"/>
      <point x="327" y="404" type="curve" smooth="yes"/>
      <point x="339" y="328"/>
      <point x="335" y="163"/>
      <point x="311" y="91" type="curve" smooth="yes"/>
      <point x="296" y="45"/>
      <point x="271" y="21"/>
      <point x="226" y="21" type="curve" smooth="yes"/>
      <point x="142" y="21"/>
      <point x="114" y="99"/>
      <point x="114" y="215" type="curve"/>
      <point x="87" y="256" type="line"/>
      <point x="87" y="47"/>
      <point x="144" y="-8"/>
    </contour>
    <contour>
      <point x="113" y="-1" type="line"/>
      <point x="113" y="93" type="line"/>
      <point x="113" y="173"/>
      <point x="114" y="275"/>
      <point x="114" y="343" type="curve"/>
      <point x="114" y="489"/>
      <point x="115" y="690"/>
      <point x="115" y="690" type="curve"/>
      <point x="81" y="687" type="line"/>
      <point x="81" y="687"/>
      <point x="83" y="488"/>
      <point x="83" y="345" type="curve"/>
      <point x="83" y="201"/>
      <point x="83" y="0"/>
      <point x="83" y="0" type="curve"/>
    </contour>
  </outline>
</glyph>
<glyph name="c" format="2">
  <advance width="403"/>
  <unicode hex="0063"/>
  <anchor x="214" y="0" name="bottom"/>
  <anchor x="211" y="515" name="top"/>
  <outline>
    <contour>
      <point x="206" y="-10" type="curve" smooth="yes"/>
      <point x="301" y="-10"/>
      <point x="342" y="44"/>
      <point x="342" y="131" type="curve" smooth="yes"/>
      <point x="342" y="143"/>
      <point x="341" y="155"/>
      <point x="340" y="167" type="curve"/>
      <point x="309" y="167" type="line"/>
      <point x="310" y="154"/>
      <point x="311" y="142"/>
      <point x="311" y="131" type="curve" smooth="yes"/>
      <point x="311" y="65"/>
      <point x="290" y="20"/>
      <point x="211" y="20" type="curve" smooth="yes"/>
      <point x="153" y="20"/>
      <point x="123" y="59"/>
      <point x="108" y="115" type="curve" smooth="yes"/>
      <point x="96" y="160"/>
      <point x="93" y="215"/>
      <point x="93" y="270" type="curve" smooth="yes"/>
      <point x="93" y="333"/>
      <point x="100" y="394"/>
      <point x="121" y="437" type="curve" smooth="yes"/>
      <point x="140" y="475"/>
      <point x="169" y="499"/>
      <point x="216" y="499" type="curve" smooth="yes"/>
      <point x="291" y="499"/>
      <point x="312" y="438"/>
      <point x="312" y="359" type="curve" smooth="yes"/>
      <point x="312" y="336"/>
      <point x="310" y="310"/>
      <point x="307" y="285" type="curve"/>
      <point x="338" y="285" type="line"/>
      <point x="341" y="308"/>
      <point x="343" y="331"/>
      <point x="343" y="353" type="curve" smooth="yes"/>
      <point x="343" y="446"/>
      <point x="314" y="526"/>
      <point x="221" y="526" type="curve" smooth="yes"/>
      <point x="160" y="526"/>
      <point x="120" y="497"/>
      <point x="96" y="451" type="curve" smooth="yes"/>
      <point x="71" y="404"/>
      <point x="61" y="340"/>
      <point x="61" y="271" type="curve" smooth="yes"/>
      <point x="61" y="208"/>
      <point x="64" y="146"/>
      <point x="79" y="96" type="curve" smooth="yes"/>
      <point x="97" y="33"/>
      <point x="134" y="-10"/>
    </contour>
  </outline>
</glyph>
<glyph name="d" format="2">
  <advance width="424"/>
  <unicode hex="0064"/>
  <anchor x="313" y="606" name="center"/>
  <anchor x="369" y="478" name="topright"/>
  <outline>
    <contour>
      <point x="71" y="240" type="curve" smooth="yes"/>
      <point x="71" y="186"/>
      <point x="73" y="135"/>
      <point x="83" y="94" type="curve" smooth="yes"/>
      <point x="97" y="33"/>
      <point x="127" y="-8"/>
      <point x="193" y="-8" type="curve" smooth="yes"/>
      <point x="270" y="-8"/>
      <point x="306" y="52"/>
      <point x="326" y="104" type="curve"/>
      <point x="326" y="0" type="line"/>
      <point x="358" y="-1" type="line"/>
      <point x="358" y="76"/>
      <point x="355" y="315"/>
      <point x="355" y="337" type="curve" smooth="yes"/>
      <point x="355" y="429"/>
      <point x="356" y="540"/>
      <point x="357" y="692" type="curve"/>
      <point x="326" y="690" type="line"/>
      <point x="326" y="623"/>
      <point x="327" y="507"/>
      <point x="327" y="440" type="curve"/>
      <point x="308" y="495"/>
      <point x="273" y="525"/>
      <point x="215" y="525" type="curve" smooth="yes"/>
      <point x="151" y="525"/>
      <point x="114" y="484"/>
      <point x="94" y="423" type="curve" smooth="yes"/>
      <point x="76" y="371"/>
      <point x="71" y="306"/>
    </contour>
    <contour>
      <point x="103" y="256" type="curve" smooth="yes"/>
      <point x="103" y="304"/>
      <point x="106" y="363"/>
      <point x="121" y="410" type="curve" smooth="yes"/>
      <point x="136" y="459"/>
      <point x="162" y="496"/>
      <point x="209" y="496" type="curve" smooth="yes"/>
      <point x="276" y="496"/>
      <point x="305" y="453"/>
      <point x="316" y="391" type="curve" smooth="yes"/>
      <point x="323" y="355"/>
      <point x="324" y="312"/>
      <point x="324" y="268" type="curve" smooth="yes"/>
      <point x="324" y="224"/>
      <point x="320" y="178"/>
      <point x="309" y="137" type="curve" smooth="yes"/>
      <point x="292" y="72"/>
      <point x="257" y="22"/>
      <point x="196" y="22" type="curve" smooth="yes"/>
      <point x="146" y="22"/>
      <point x="123" y="55"/>
      <point x="112" y="105" type="curve" smooth="yes"/>
      <point x="103" y="146"/>
      <point x="103" y="200"/>
    </contour>
  </outline>
</glyph>
<glyph name="e" format="2">
  <advance width="405"/>
  <unicode hex="0065"/>
  <anchor x="209" y="0" name="bottom"/>
  <anchor x="247" y="-1" name="ogonek"/>
  <anchor x="214" y="515" name="top"/>
  <outline>
    <contour>
      <point x="209" y="-10" type="curve" smooth="yes"/>
      <point x="315" y="-10"/>
      <point x="349" y="51"/>
      <point x="349" y="137" type="curve" smooth="yes"/>
      <point x="349" y="147"/>
      <point x="349" y="157"/>
      <point x="348" y="167" type="curve"/>
      <point x="313" y="167" type="line"/>
      <point x="314" y="155"/>
      <point x="315" y="143"/>
      <point x="315" y="132" type="curve" smooth="yes"/>
      <point x="315" y="65"/>
      <point x="294" y="20"/>
      <point x="214" y="20" type="curve" smooth="yes"/>
      <point x="156" y="20"/>
      <point x="126" y="60"/>
      <point x="111" y="119" type="curve" smooth="yes"/>
      <point x="100" y="162"/>
      <point x="97" y="215"/>
      <point x="97" y="270" type="curve" smooth="yes"/>
      <point x="97" y="323"/>
      <point x="102" y="376"/>
      <point x="117" y="418" type="curve" smooth="yes"/>
      <point x="135" y="466"/>
      <point x="166" y="498"/>
      <point x="219" y="498" type="curve" smooth="yes"/>
      <point x="293" y="498"/>
      <point x="316" y="440"/>
      <point x="316" y="358" type="curve" smooth="yes"/>
      <point x="316" y="335"/>
      <point x="314" y="309"/>
      <point x="311" y="283" type="curve"/>
      <point x="340" y="256" type="line"/>
      <point x="344" y="289"/>
      <point x="347" y="321"/>
      <point x="347" y="350" type="curve" smooth="yes"/>
      <point x="347" y="449"/>
      <point x="318" y="525"/>
      <point x="224" y="525" type="curve" smooth="yes"/>
      <point x="158" y="525"/>
      <point x="117" y="491"/>
      <point x="93" y="438" type="curve" smooth="yes"/>
      <point x="73" y="392"/>
      <point x="65" y="334"/>
      <point x="65" y="271" type="curve" smooth="yes"/>
      <point x="65" y="210"/>
      <point x="68" y="150"/>
      <point x="82" y="101" type="curve" smooth="yes"/>
      <point x="100" y="35"/>
      <point x="136" y="-10"/>
    </contour>
    <contour>
      <point x="81" y="252" type="line"/>
      <point x="115" y="254"/>
      <point x="233" y="256"/>
      <point x="340" y="256" type="curve"/>
      <point x="342" y="286" type="line"/>
      <point x="81" y="284" type="line"/>
    </contour>
  </outline>
</glyph>
<glyph name="f" format="2">
  <advance width="317"/>
  <unicode hex="0066"/>
  <outline>
    <contour>
      <point x="24" y="483" type="line"/>
      <point x="24" y="483"/>
      <point x="129" y="484"/>
      <point x="179" y="484" type="curve"/>
      <point x="229" y="485"/>
      <point x="306" y="485"/>
      <point x="306" y="485" type="curve"/>
      <point x="308" y="513" type="line"/>
      <point x="308" y="513"/>
      <point x="230" y="511"/>
      <point x="181" y="511" type="curve"/>
      <point x="132" y="511"/>
      <point x="28" y="513"/>
      <point x="28" y="513" type="curve"/>
    </contour>
    <contour>
      <point x="245" y="716" type="curve" smooth="yes"/>
      <point x="150" y="716"/>
      <point x="124" y="640"/>
      <point x="124" y="544" type="curve" smooth="yes"/>
      <point x="124" y="449"/>
      <point x="123" y="401"/>
      <point x="123" y="270" type="curve" smooth="yes"/>
      <point x="123" y="124"/>
      <point x="119" y="-3"/>
      <point x="119" y="-3" type="curve"/>
      <point x="155" y="0" type="line"/>
      <point x="155" y="0"/>
      <point x="154" y="128"/>
      <point x="154" y="271" type="curve" smooth="yes"/>
      <point x="154" y="397"/>
      <point x="154" y="474"/>
      <point x="155" y="543" type="curve" smooth="yes"/>
      <point x="157" y="664"/>
      <point x="188" y="690"/>
      <point x="243" y="690" type="curve" smooth="yes"/>
      <point x="297" y="690"/>
      <point x="325" y="660"/>
      <point x="325" y="606" type="curve"/>
      <point x="355" y="604" type="line"/>
      <point x="356" y="665"/>
      <point x="323" y="716"/>
    </contour>
  </outline>
</glyph>
<glyph name="g" format="2">
  <advance width="426"/>
  <unicode hex="0067"/>
  <anchor x="217" y="515" name="top"/>
  <outline>
    <contour>
      <point x="203" y="-166" type="curve"/>
      <point x="321" y="-166"/>
      <point x="347" y="-78"/>
      <point x="347" y="11" type="curve"/>
      <point x="348" y="77"/>
      <point x="347" y="125"/>
      <point x="348" y="277" type="curve"/>
      <point x="348" y="384"/>
      <point x="354" y="475"/>
      <point x="358" y="515" type="curve"/>
      <point x="328" y="515" type="line"/>
      <point x="323" y="474"/>
      <point x="316" y="381"/>
      <point x="316" y="276" type="curve"/>
      <point x="316" y="133"/>
      <point x="315" y="63"/>
      <point x="315" y="13" type="curve"/>
      <point x="315" y="-72"/>
      <point x="297" y="-139"/>
      <point x="208" y="-139" type="curve"/>
      <point x="133" y="-139"/>
      <point x="119" y="-105"/>
      <point x="119" y="-65" type="curve" smooth="yes"/>
      <point x="119" y="-58"/>
      <point x="120" y="-51"/>
      <point x="121" y="-44" type="curve"/>
      <point x="91" y="-50" type="line"/>
      <point x="90" y="-58"/>
      <point x="89" y="-65"/>
      <point x="89" y="-73" type="curve" smooth="yes"/>
      <point x="89" y="-121"/>
      <point x="116" y="-166"/>
    </contour>
    <contour>
      <point x="195" y="-9" type="curve" smooth="yes"/>
      <point x="323" y="-9"/>
      <point x="346" y="166"/>
      <point x="346" y="255" type="curve"/>
      <point x="316" y="212" type="line"/>
      <point x="316" y="82"/>
      <point x="252" y="21"/>
      <point x="199" y="21" type="curve" smooth="yes"/>
      <point x="146" y="21"/>
      <point x="122" y="66"/>
      <point x="111" y="125" type="curve" smooth="yes"/>
      <point x="104" y="165"/>
      <point x="103" y="211"/>
      <point x="103" y="255" type="curve" smooth="yes"/>
      <point x="103" y="306"/>
      <point x="107" y="362"/>
      <point x="120" y="407" type="curve" smooth="yes"/>
      <point x="134" y="458"/>
      <point x="161" y="495"/>
      <point x="209" y="495" type="curve" smooth="yes"/>
      <point x="284" y="495"/>
      <point x="316" y="422"/>
      <point x="316" y="291" type="curve"/>
      <point x="346" y="249" type="line"/>
      <point x="346" y="451"/>
      <point x="298" y="523"/>
      <point x="212" y="523" type="curve" smooth="yes"/>
      <point x="148" y="523"/>
      <point x="111" y="483"/>
      <point x="91" y="424" type="curve" smooth="yes"/>
      <point x="76" y="378"/>
      <point x="71" y="321"/>
      <point x="71" y="261" type="curve" smooth="yes"/>
      <point x="71" y="209"/>
      <point x="73" y="155"/>
      <point x="83" y="108" type="curve" smooth="yes"/>
      <point x="98" y="41"/>
      <point x="130" y="-9"/>
    </contour>
  </outline>
</glyph>
<glyph name="h" format="2">
  <advance width="435"/>
  <unicode hex="0068"/>
  <anchor x="220" y="0" name="bottom"/>
  <anchor x="161" y="616" name="center"/>
  <anchor x="102" y="669" name="top"/>
  <outline>
    <contour>
      <point x="84" y="0" type="curve"/>
      <point x="118" y="0" type="line"/>
      <point x="118" y="0"/>
      <point x="118" y="133"/>
      <point x="118" y="276" type="curve"/>
      <point x="118" y="420"/>
      <point x="120" y="694"/>
      <point x="120" y="694" type="curve"/>
      <point x="84" y="694" type="line"/>
      <point x="84" y="694"/>
      <point x="87" y="431"/>
      <point x="87" y="285" type="curve"/>
      <point x="87" y="140"/>
      <point x="84" y="0"/>
    </contour>
    <contour>
      <point x="358" y="-1" type="line"/>
      <point x="358" y="50"/>
      <point x="355" y="91"/>
      <point x="355" y="224" type="curve" smooth="yes"/>
      <point x="355" y="317"/>
      <point x="355" y="333"/>
      <point x="355" y="381" type="curve" smooth="yes"/>
      <point x="355" y="480"/>
      <point x="316" y="522"/>
      <point x="251" y="522" type="curve" smooth="yes"/>
      <point x="158" y="522"/>
      <point x="95" y="427"/>
      <point x="95" y="263" type="curve"/>
      <point x="118" y="276" type="line"/>
      <point x="118" y="397"/>
      <point x="164" y="492"/>
      <point x="249" y="492" type="curve" smooth="yes"/>
      <point x="300" y="492"/>
      <point x="324" y="457"/>
      <point x="324" y="384" type="curve" smooth="yes"/>
      <point x="324" y="339"/>
      <point x="324" y="295"/>
      <point x="324" y="223" type="curve" smooth="yes"/>
      <point x="324" y="93"/>
      <point x="321" y="46"/>
      <point x="318" y="0" type="curve"/>
    </contour>
  </outline>
</glyph>
<glyph name="i" format="2">
  <advance width="234"/>
  <unicode hex="0069"/>
  <anchor x="116" y="0" name="bottom"/>
  <anchor x="140" y="8" name="ogonek"/>
  <outline>
    <contour>
      <point x="137" y="0" type="line"/>
      <point x="137" y="0"/>
      <point x="135" y="122"/>
      <point x="135" y="265" type="curve"/>
      <point x="135" y="409"/>
      <point x="139" y="516"/>
      <point x="139" y="516" type="curve"/>
      <point x="103" y="516" type="line"/>
      <point x="103" y="516"/>
      <point x="104" y="412"/>
      <point x="104" y="266" type="curve"/>
      <point x="104" y="121"/>
      <point x="100" y="2"/>
      <point x="100" y="2" type="curve"/>
    </contour>
    <contour>
      <point x="140" y="615" type="line"/>
      <point x="140" y="685" type="line"/>
      <point x="99" y="683" type="line"/>
      <point x="102" y="613" type="line"/>
    </contour>
  </outline>
</glyph>
<glyph name="j" format="2">
  <advance width="218"/>
  <unicode hex="006A"/>
  <outline>
    <contour>
      <point x="7" y="-156" type="line"/>
      <point x="79" y="-155"/>
      <point x="124" y="-112"/>
      <point x="128" y="-30" type="curve" smooth="yes"/>
      <point x="131" y="25"/>
      <point x="130" y="122"/>
      <point x="130" y="265" type="curve"/>
      <point x="130" y="409"/>
      <point x="134" y="516"/>
      <point x="134" y="516" type="curve"/>
      <point x="98" y="516" type="line"/>
      <point x="98" y="516"/>
      <point x="99" y="412"/>
      <point x="99" y="266" type="curve"/>
      <point x="99" y="122"/>
      <point x="97" y="9"/>
      <point x="95" y="-32" type="curve" smooth="yes"/>
      <point x="92" y="-94"/>
      <point x="64" y="-128"/>
      <point x="6" y="-127" type="curve"/>
    </contour>
    <contour>
      <point x="97" y="613" type="line"/>
      <point x="135" y="616" type="line"/>
      <point x="135" y="685" type="line"/>
      <point x="94" y="683" type="line"/>
    </contour>
  </outline>
</glyph>
<glyph name="k" format="2">
  <advance width="418"/>
  <unicode hex="006B"/>
  <anchor x="227" y="0" name="bottom"/>
  <outline>
    <contour>
      <point x="356" y="0" type="curve"/>
      <point x="397" y="3" type="line"/>
      <point x="300" y="103"/>
      <point x="230" y="181"/>
      <point x="152" y="270" type="curve"/>
      <point x="225" y="356"/>
      <point x="299" y="438"/>
      <point x="373" y="519" type="curve"/>
      <point x="335" y="521" type="line"/>
      <point x="272" y="445"/>
      <point x="207" y="370"/>
      <point x="117" y="269" type="curve"/>
      <point x="199" y="177"/>
      <point x="279" y="88"/>
    </contour>
    <contour>
      <point x="93" y="0" type="curve"/>
      <point x="127" y="0" type="line"/>
      <point x="127" y="0"/>
      <point x="127" y="141"/>
      <point x="127" y="284" type="curve"/>
      <point x="127" y="428"/>
      <point x="129" y="694"/>
      <point x="129" y="694" type="curve"/>
      <point x="93" y="694" type="line"/>
      <point x="93" y="694"/>
      <point x="96" y="431"/>
      <point x="96" y="285" type="curve"/>
      <point x="96" y="140"/>
      <point x="93" y="0"/>
    </contour>
  </outline>
</glyph>
<glyph name="l" format="2">
  <advance width="221"/>
  <unicode hex="006C"/>
  <anchor x="115" y="0" name="bottom"/>
  <anchor x="115" y="359" name="center"/>
  <anchor x="114" y="693" name="top"/>
  <anchor x="196" y="473" name="topright"/>
  <outline>
    <contour>
      <point x="93" y="0" type="curve"/>
      <point x="127" y="6" type="line"/>
      <point x="127" y="64"/>
      <point x="127" y="180"/>
      <point x="127" y="284" type="curve"/>
      <point x="127" y="389"/>
      <point x="128" y="580"/>
      <point x="129" y="694" type="curve"/>
      <point x="93" y="694" type="line"/>
      <point x="94" y="581"/>
      <point x="96" y="392"/>
      <point x="96" y="285" type="curve"/>
      <point x="96" y="179"/>
      <point x="94" y="60"/>
    </contour>
  </outline>
</glyph>
<glyph name="m" format="2">
  <advance width="643"/>
  <unicode hex="006D"/>
  <outline>
    <contour>
      <point x="311" y="0" type="curve"/>
      <point x="351" y="0" type="line"/>
      <point x="351" y="51"/>
      <point x="348" y="147"/>
      <point x="348" y="280" type="curve" smooth="yes"/>
      <point x="348" y="380"/>
      <point x="366" y="522"/>
      <point x="244" y="522" type="curve" smooth="yes"/>
      <point x="151" y="522"/>
      <point x="96" y="427"/>
      <point x="96" y="263" type="curve"/>
      <point x="119" y="276" type="line"/>
      <point x="119" y="397"/>
      <point x="157" y="492"/>
      <point x="242" y="492" type="curve" smooth="yes"/>
      <point x="293" y="492"/>
      <point x="317" y="457"/>
      <point x="317" y="384" type="curve" smooth="yes"/>
      <point x="317" y="339"/>
      <point x="317" y="275"/>
      <point x="317" y="223" type="curve" smooth="yes"/>
      <point x="317" y="93"/>
      <point x="314" y="46"/>
    </contour>
    <contour>
      <point x="82" y="0" type="curve"/>
      <point x="119" y="0" type="line"/>
      <point x="117" y="50"/>
      <point x="119" y="143"/>
      <point x="119" y="276" type="curve"/>
      <point x="117" y="405"/>
      <point x="119" y="483"/>
      <point x="121" y="519" type="curve"/>
      <point x="82" y="516" type="line"/>
      <point x="84" y="484"/>
      <point x="85" y="381"/>
      <point x="86" y="285" type="curve" smooth="yes"/>
      <point x="87" y="152"/>
      <point x="84" y="51"/>
    </contour>
    <contour>
      <point x="570" y="0" type="line"/>
      <point x="573" y="79"/>
      <point x="575" y="151"/>
      <point x="576" y="228" type="curve" smooth="yes"/>
      <point x="577" y="315"/>
      <point x="577" y="347"/>
      <point x="577" y="385" type="curve" smooth="yes"/>
      <point x="577" y="484"/>
      <point x="538" y="526"/>
      <point x="473" y="526" type="curve" smooth="yes"/>
      <point x="380" y="526"/>
      <point x="325" y="431"/>
      <point x="325" y="267" type="curve"/>
      <point x="348" y="280" type="line"/>
      <point x="348" y="401"/>
      <point x="386" y="496"/>
      <point x="471" y="496" type="curve" smooth="yes"/>
      <point x="522" y="496"/>
      <point x="546" y="461"/>
      <point x="546" y="388" type="curve" smooth="yes"/>
      <point x="546" y="323"/>
      <point x="545" y="263"/>
      <point x="544" y="222" type="curve" smooth="yes"/>
      <point x="542" y="149"/>
      <point x="538" y="94"/>
      <point x="533" y="7" type="curve"/>
    </contour>
  </outline>
</glyph>
<glyph name="n" format="2">
  <advance width="440"/>
  <unicode hex="006E"/>
  <anchor x="222" y="0" name="bottom"/>
  <anchor x="231" y="515" name="top"/>
  <anchor x="147" y="518" name="topright"/>
  <outline>
    <contour>
      <point x="363" y="-1" type="line"/>
      <point x="363" y="50"/>
      <point x="360" y="101"/>
      <point x="360" y="204" type="curve" smooth="yes"/>
      <point x="360" y="297"/>
      <point x="360" y="333"/>
      <point x="360" y="381" type="curve" smooth="yes"/>
      <point x="360" y="480"/>
      <point x="321" y="522"/>
      <point x="256" y="522" type="curve" smooth="yes"/>
      <point x="163" y="522"/>
      <point x="102" y="427"/>
      <point x="102" y="263" type="curve"/>
      <point x="125" y="276" type="line"/>
      <point x="125" y="397"/>
      <point x="169" y="492"/>
      <point x="254" y="492" type="curve" smooth="yes"/>
      <point x="305" y="492"/>
      <point x="329" y="457"/>
      <point x="329" y="384" type="curve" smooth="yes"/>
      <point x="329" y="339"/>
      <point x="329" y="275"/>
      <point x="329" y="203" type="curve" smooth="yes"/>
      <point x="329" y="103"/>
      <point x="326" y="46"/>
      <point x="323" y="0" type="curve"/>
    </contour>
    <contour>
      <point x="88" y="0" type="curve"/>
      <point x="125" y="0" type="line"/>
      <point x="123" y="50"/>
      <point x="125" y="143"/>
      <point x="125" y="276" type="curve"/>
      <point x="123" y="405"/>
      <point x="125" y="483"/>
      <point x="127" y="519" type="curve"/>
      <point x="88" y="516" type="line"/>
      <point x="90" y="484"/>
      <point x="91" y="381"/>
      <point x="92" y="245" type="curve" smooth="yes"/>
      <point x="93" y="112"/>
      <point x="90" y="51"/>
    </contour>
  </outline>
</glyph>
<glyph name="p" format="2">
  <advance width="444"/>
  <unicode hex="0070"/>
  <outline>
    <contour>
      <point x="85" y="-149" type="curve"/>
      <point x="121" y="-147" type="line"/>
      <point x="119" y="59" type="line"/>
      <point x="133" y="25"/>
      <point x="163" y="-10"/>
      <point x="226" y="-10" type="curve" smooth="yes"/>
      <point x="282" y="-10"/>
      <point x="317" y="21"/>
      <point x="339" y="69" type="curve" smooth="yes"/>
      <point x="363" y="123"/>
      <point x="370" y="197"/>
      <point x="370" y="273" type="curve" smooth="yes"/>
      <point x="370" y="331"/>
      <point x="368" y="385"/>
      <point x="356" y="428" type="curve" smooth="yes"/>
      <point x="341" y="484"/>
      <point x="310" y="521"/>
      <point x="248" y="521" type="curve" smooth="yes"/>
      <point x="180" y="521"/>
      <point x="141" y="473"/>
      <point x="119" y="420" type="curve"/>
      <point x="119" y="519" type="line"/>
      <point x="85" y="515" type="line"/>
      <point x="86" y="472"/>
      <point x="87" y="323"/>
      <point x="87" y="208" type="curve" smooth="yes"/>
      <point x="87" y="64"/>
      <point x="85" y="-149"/>
    </contour>
    <contour>
      <point x="118" y="230" type="curve" smooth="yes"/>
      <point x="118" y="274" type="line" smooth="yes"/>
      <point x="118" y="436"/>
      <point x="188" y="491"/>
      <point x="245" y="491" type="curve" smooth="yes"/>
      <point x="294" y="491"/>
      <point x="317" y="460"/>
      <point x="328" y="412" type="curve" smooth="yes"/>
      <point x="338" y="370"/>
      <point x="338" y="315"/>
      <point x="338" y="257" type="curve" smooth="yes"/>
      <point x="338" y="203"/>
      <point x="333" y="136"/>
      <point x="314" y="87" type="curve" smooth="yes"/>
      <point x="298" y="47"/>
      <point x="273" y="19"/>
      <point x="232" y="19" type="curve" smooth="yes"/>
      <point x="137" y="19"/>
      <point x="118" y="97"/>
    </contour>
  </outline>
</glyph>
<glyph name="q" format="2">
  <advance width="423"/>
  <unicode hex="0071"/>
  <outline>
    <contour>
      <point x="66" y="277" type="curve" smooth="yes"/>
      <point x="66" y="204"/>
      <point x="70" y="131"/>
      <point x="89" y="77" type="curve" smooth="yes"/>
      <point x="108" y="26"/>
      <point x="140" y="-8"/>
      <point x="197" y="-8" type="curve" smooth="yes"/>
      <point x="252" y="-8"/>
      <point x="297" y="19"/>
      <point x="322" y="80" type="curve"/>
      <point x="317" y="-146" type="line"/>
      <point x="352" y="-147" type="line"/>
      <point x="350" y="-44"/>
      <point x="349" y="76"/>
      <point x="349" y="198" type="curve" smooth="yes"/>
      <point x="349" y="321"/>
      <point x="351" y="525"/>
      <point x="351" y="525" type="curve"/>
      <point x="318" y="523" type="line"/>
      <point x="321" y="421" type="line"/>
      <point x="305" y="476"/>
      <point x="276" y="525"/>
      <point x="201" y="525" type="curve" smooth="yes"/>
      <point x="141" y="525"/>
      <point x="106" y="491"/>
      <point x="87" y="437" type="curve" smooth="yes"/>
      <point x="71" y="394"/>
      <point x="66" y="337"/>
    </contour>
    <contour>
      <point x="98" y="261" type="curve" smooth="yes"/>
      <point x="98" y="316"/>
      <point x="100" y="372"/>
      <point x="112" y="415" type="curve" smooth="yes"/>
      <point x="126" y="462"/>
      <point x="152" y="495"/>
      <point x="202" y="495" type="curve" smooth="yes"/>
      <point x="268" y="495"/>
      <point x="298" y="439"/>
      <point x="310" y="367" type="curve" smooth="yes"/>
      <point x="316" y="334"/>
      <point x="318" y="297"/>
      <point x="318" y="261" type="curve" smooth="yes"/>
      <point x="318" y="212"/>
      <point x="317" y="164"/>
      <point x="309" y="125" type="curve" smooth="yes"/>
      <point x="296" y="64"/>
      <point x="266" y="21"/>
      <point x="198" y="21" type="curve" smooth="yes"/>
      <point x="158" y="21"/>
      <point x="134" y="47"/>
      <point x="119" y="87" type="curve" smooth="yes"/>
      <point x="102" y="134"/>
      <point x="98" y="199"/>
    </contour>
  </outline>
</glyph>
<glyph name="r" format="2">
  <advance width="366"/>
  <unicode hex="0072"/>
  <anchor x="110" y="0" name="bottom"/>
  <anchor x="219" y="515" name="top"/>
  <outline>
    <contour>
      <point x="303" y="230" type="curve"/>
      <point x="333" y="231" type="line"/>
      <point x="342" y="284"/>
      <point x="349" y="337"/>
      <point x="349" y="384" type="curve" smooth="yes"/>
      <point x="349" y="468"/>
      <point x="327" y="530"/>
      <point x="256" y="530" type="curve" smooth="yes"/>
      <point x="133" y="530"/>
      <point x="104" y="378"/>
      <point x="104" y="248" type="curve"/>
      <point x="128" y="283" type="line"/>
      <point x="128" y="404"/>
      <point x="175" y="502"/>
      <point x="250" y="502" type="curve" smooth="yes"/>
      <point x="304" y="502"/>
      <point x="320" y="459"/>
      <point x="320" y="395" type="curve" smooth="yes"/>
      <point x="320" y="348"/>
      <point x="311" y="290"/>
    </contour>
    <contour>
      <point x="93" y="0" type="curve"/>
      <point x="128" y="0" type="line"/>
      <point x="126" y="50"/>
      <point x="128" y="150"/>
      <point x="128" y="283" type="curve"/>
      <point x="126" y="412"/>
      <point x="126" y="483"/>
      <point x="127" y="519" type="curve"/>
      <point x="88" y="516" type="line"/>
      <point x="92" y="484"/>
      <point x="96" y="381"/>
      <point x="97" y="245" type="curve" smooth="yes"/>
      <point x="98" y="112"/>
      <point x="95" y="51"/>
    </contour>
  </outline>
</glyph>
<glyph name="s" format="2">
  <advance width="379"/>
  <unicode hex="0073"/>
  <anchor x="196" y="0" name="bottom"/>
  <anchor x="194" y="515" name="top"/>
  <outline>
    <contour>
      <point x="191" y="-10" type="curve" smooth="yes"/>
      <point x="285" y="-10"/>
      <point x="333" y="53"/>
      <point x="333" y="121" type="curve" smooth="yes"/>
      <point x="333" y="208"/>
      <point x="251" y="232"/>
      <point x="181" y="266" type="curve" smooth="yes"/>
      <point x="128" y="290"/>
      <point x="83" y="319"/>
      <point x="83" y="382" type="curve" smooth="yes"/>
      <point x="83" y="454"/>
      <point x="121" y="504"/>
      <point x="193" y="504" type="curve" smooth="yes"/>
      <point x="272" y="504"/>
      <point x="299" y="454"/>
      <point x="299" y="375" type="curve" smooth="yes"/>
      <point x="299" y="352"/>
      <point x="297" y="327"/>
      <point x="293" y="300" type="curve"/>
      <point x="326" y="300" type="line"/>
      <point x="329" y="325"/>
      <point x="331" y="348"/>
      <point x="331" y="370" type="curve" smooth="yes"/>
      <point x="331" y="466"/>
      <point x="298" y="532"/>
      <point x="195" y="532" type="curve" smooth="yes"/>
      <point x="116" y="532"/>
      <point x="51" y="477"/>
      <point x="51" y="380" type="curve" smooth="yes"/>
      <point x="51" y="299"/>
      <point x="106" y="266"/>
      <point x="165" y="239" type="curve" smooth="yes"/>
      <point x="231" y="208"/>
      <point x="302" y="186"/>
      <point x="302" y="113" type="curve" smooth="yes"/>
      <point x="302" y="66"/>
      <point x="269" y="18"/>
      <point x="189" y="18" type="curve" smooth="yes"/>
      <point x="111" y="18"/>
      <point x="83" y="70"/>
      <point x="83" y="124" type="curve" smooth="yes"/>
      <point x="83" y="135"/>
      <point x="84" y="146"/>
      <point x="86" y="157" type="curve"/>
      <point x="54" y="157" type="line"/>
      <point x="52" y="146"/>
      <point x="51" y="136"/>
      <point x="51" y="125" type="curve" smooth="yes"/>
      <point x="51" y="57"/>
      <point x="90" y="-10"/>
    </contour>
  </outline>
</glyph>
<glyph name="t" format="2">
  <advance width="387"/>
  <unicode hex="0074"/>
  <anchor x="208" y="0" name="bottom"/>
  <anchor x="163" y="398" name="center"/>
  <anchor x="239" y="555" name="topright"/>
  <outline>
    <contour>
      <point x="198" y="-11" type="curve" smooth="yes"/>
      <point x="310" y="-12"/>
      <point x="339" y="73"/>
      <point x="339" y="150" type="curve" smooth="yes"/>
      <point x="339" y="184"/>
      <point x="337" y="220"/>
      <point x="333" y="258" type="curve"/>
      <point x="302" y="258" type="line"/>
      <point x="307" y="220"/>
      <point x="310" y="182"/>
      <point x="310" y="147" type="curve" smooth="yes"/>
      <point x="310" y="70"/>
      <point x="285" y="16"/>
      <point x="201" y="16" type="curve" smooth="yes"/>
      <point x="138" y="16"/>
      <point x="107" y="60"/>
      <point x="107" y="155" type="curve" smooth="yes"/>
      <point x="107" y="185"/>
      <point x="108" y="217"/>
      <point x="109" y="251" type="curve" smooth="yes"/>
      <point x="112" y="345"/>
      <point x="122" y="442"/>
      <point x="131" y="616" type="curve"/>
      <point x="93" y="615" type="line"/>
      <point x="91" y="455"/>
      <point x="84" y="341"/>
      <point x="79" y="247" type="curve" smooth="yes"/>
      <point x="77" y="210"/>
      <point x="76" y="179"/>
      <point x="76" y="155" type="curve" smooth="yes"/>
      <point x="76" y="66"/>
      <point x="101" y="-10"/>
    </contour>
    <contour>
      <point x="30" y="484" type="line"/>
      <point x="30" y="484"/>
      <point x="107" y="487"/>
      <point x="184" y="488" type="curve"/>
      <point x="234" y="489"/>
      <point x="336" y="488"/>
      <point x="336" y="488" type="curve"/>
      <point x="338" y="515" type="line"/>
      <point x="338" y="515"/>
      <point x="219" y="513"/>
      <point x="170" y="512" type="curve"/>
      <point x="95" y="512"/>
      <point x="32" y="513"/>
      <point x="32" y="513" type="curve"/>
    </contour>
  </outline>
</glyph>
<glyph name="u" format="2">
  <advance width="423"/>
  <unicode hex="0075"/>
  <anchor x="210" y="0" name="bottom"/>
  <anchor x="353" y="5" name="ogonek"/>
  <anchor x="209" y="515" name="top"/>
  <anchor x="274" y="515" name="topright"/>
  <outline>
    <contour>
      <point x="168" y="-10" type="curve" smooth="yes"/>
      <point x="285" y="-10"/>
      <point x="339" y="130"/>
      <point x="339" y="285" type="curve"/>
      <point x="312" y="268" type="line"/>
      <point x="312" y="127"/>
      <point x="260" y="20"/>
      <point x="172" y="20" type="curve" smooth="yes"/>
      <point x="119" y="20"/>
      <point x="108" y="67"/>
      <point x="108" y="133" type="curve" smooth="yes"/>
      <point x="108" y="172"/>
      <point x="108" y="218"/>
      <point x="110" y="266" type="curve" smooth="yes"/>
      <point x="116" y="418"/>
      <point x="122" y="524"/>
      <point x="122" y="524" type="curve"/>
      <point x="83" y="519" type="line"/>
      <point x="83" y="520"/>
      <point x="80" y="426"/>
      <point x="78" y="300" type="curve" smooth="yes"/>
      <point x="77" y="229"/>
      <point x="75" y="161"/>
      <point x="76" y="119" type="curve" smooth="yes"/>
      <point x="78" y="40"/>
      <point x="101" y="-10"/>
    </contour>
    <contour>
      <point x="320" y="0" type="line"/>
      <point x="348" y="0" type="line"/>
      <point x="348" y="90"/>
      <point x="342" y="171"/>
      <point x="342" y="260" type="curve" smooth="yes"/>
      <point x="342" y="384"/>
      <point x="345" y="405"/>
      <point x="346" y="523" type="curve"/>
      <point x="309" y="526" type="line"/>
      <point x="311" y="411"/>
      <point x="312" y="383"/>
      <point x="312" y="268" type="curve" smooth="yes"/>
      <point x="312" y="219"/>
      <point x="312" y="167"/>
      <point x="313" y="116" type="curve"/>
    </contour>
  </outline>
</glyph>
<glyph name="v" format="2">
  <advance width="394"/>
  <unicode hex="0076"/>
  <outline>
    <contour>
      <point x="32" y="521" type="line"/>
      <point x="54" y="434"/>
      <point x="78" y="356"/>
      <point x="105" y="257" type="curve" smooth="yes"/>
      <point x="131" y="162"/>
      <point x="154" y="85"/>
      <point x="176" y="-1" type="curve"/>
      <point x="222" y="-1" type="line"/>
      <point x="249" y="97"/>
      <point x="271" y="167"/>
      <point x="295" y="253" type="curve" smooth="yes"/>
      <point x="322" y="349"/>
      <point x="341" y="422"/>
      <point x="366" y="519" type="curve"/>
      <point x="331" y="515" type="line"/>
      <point x="302" y="397"/>
      <point x="285" y="337"/>
      <point x="267" y="265" type="curve" smooth="yes"/>
      <point x="247" y="186"/>
      <point x="229" y="135"/>
      <point x="201" y="34" type="curve"/>
      <point x="179" y="106"/>
      <point x="160" y="176"/>
      <point x="134" y="265" type="curve" smooth="yes"/>
      <point x="106" y="360"/>
      <point x="87" y="437"/>
      <point x="68" y="521" type="curve"/>
    </contour>
  </outline>
</glyph>
<glyph name="w" format="2">
  <advance width="618"/>
  <unicode hex="0077"/>
  <anchor x="306" y="515" name="top"/>
  <outline>
    <contour>
      <point x="135" y="-1" type="curve"/>
      <point x="175" y="-1" type="line"/>
      <point x="189" y="48"/>
      <point x="225" y="162"/>
      <point x="257" y="262" type="curve" smooth="yes"/>
      <point x="279" y="330"/>
      <point x="299" y="391"/>
      <point x="308" y="420" type="curve"/>
      <point x="317" y="391"/>
      <point x="336" y="326"/>
      <point x="358" y="254" type="curve" smooth="yes"/>
      <point x="386" y="157"/>
      <point x="418" y="48"/>
      <point x="432" y="-1" type="curve"/>
      <point x="474" y="-1" type="line"/>
      <point x="494" y="86"/>
      <point x="515" y="171"/>
      <point x="539" y="268" type="curve" smooth="yes"/>
      <point x="558" y="343"/>
      <point x="579" y="425"/>
      <point x="603" y="519" type="curve"/>
      <point x="565" y="515" type="line"/>
      <point x="544" y="424"/>
      <point x="525" y="346"/>
      <point x="509" y="274" type="curve" smooth="yes"/>
      <point x="488" y="186"/>
      <point x="471" y="110"/>
      <point x="453" y="37" type="curve"/>
      <point x="434" y="101"/>
      <point x="408" y="184"/>
      <point x="384" y="267" type="curve" smooth="yes"/>
      <point x="363" y="338"/>
      <point x="343" y="410"/>
      <point x="328" y="470" type="curve"/>
      <point x="288" y="470" type="line"/>
      <point x="276" y="427"/>
      <point x="255" y="356"/>
      <point x="231" y="277" type="curve" smooth="yes"/>
      <point x="207" y="199"/>
      <point x="180" y="112"/>
      <point x="156" y="37" type="curve"/>
      <point x="141" y="103"/>
      <point x="118" y="201"/>
      <point x="98" y="295" type="curve" smooth="yes"/>
      <point x="78" y="383"/>
      <point x="60" y="468"/>
      <point x="50" y="521" type="curve"/>
      <point x="13" y="521" type="line"/>
      <point x="31" y="443"/>
      <point x="49" y="364"/>
      <point x="68" y="285" type="curve" smooth="yes"/>
      <point x="91" y="187"/>
      <point x="114" y="90"/>
    </contour>
  </outline>
</glyph>
<glyph name="x" format="2">
  <advance width="346"/>
  <unicode hex="0078"/>
  <outline>
    <contour>
      <point x="48" y="-4" type="line"/>
      <point x="91" y="86"/>
      <point x="117" y="135"/>
      <point x="187" y="261" type="curve" smooth="yes"/>
      <point x="255" y="384"/>
      <point x="293" y="446"/>
      <point x="334" y="518" type="curve"/>
      <point x="294" y="518" type="line"/>
      <point x="261" y="448"/>
      <point x="232" y="404"/>
      <point x="163" y="279" type="curve" smooth="yes"/>
      <point x="90" y="147"/>
      <point x="59" y="86"/>
      <point x="6" y="-2" type="curve"/>
    </contour>
    <contour>
      <point x="301" y="2" type="curve"/>
      <point x="341" y="3" type="line"/>
      <point x="302" y="70"/>
      <point x="257" y="142"/>
      <point x="183" y="279" type="curve" smooth="yes"/>
      <point x="117" y="401"/>
      <point x="89" y="454"/>
      <point x="59" y="518" type="curve"/>
      <point x="18" y="515" type="line"/>
      <point x="69" y="425"/>
      <point x="93" y="382"/>
      <point x="159" y="261" type="curve" smooth="yes"/>
      <point x="233" y="125"/>
      <point x="271" y="64"/>
    </contour>
  </outline>
</glyph>
<glyph name="y" format="2">
  <advance width="399"/>
  <unicode hex="0079"/>
  <anchor x="300" y="0" name="bottom"/>
  <anchor x="196" y="555" name="top"/>
  <outline>
    <contour>
      <point x="188" y="-149" type="line"/>
      <point x="227" y="14"/>
      <point x="260" y="131"/>
      <point x="291" y="251" type="curve" smooth="yes"/>
      <point x="318" y="358"/>
      <point x="340" y="432"/>
      <point x="363" y="519" type="curve"/>
      <point x="326" y="519" type="line"/>
      <point x="308" y="441"/>
      <point x="288" y="368"/>
      <point x="261" y="259" type="curve" smooth="yes"/>
      <point x="230" y="138"/>
      <point x="195" y="16"/>
      <point x="154" y="-146" type="curve"/>
    </contour>
    <contour>
      <point x="191" y="-16" type="curve"/>
      <point x="220" y="0" type="line"/>
      <point x="189" y="104"/>
      <point x="163" y="173"/>
      <point x="139" y="260" type="curve" smooth="yes"/>
      <point x="114" y="351"/>
      <point x="93" y="418"/>
      <point x="69" y="514" type="curve"/>
      <point x="32" y="513" type="line"/>
      <point x="59" y="420"/>
      <point x="85" y="340"/>
      <point x="112" y="246" type="curve" smooth="yes"/>
      <point x="141" y="145"/>
      <point x="169" y="67"/>
    </contour>
  </outline>
</glyph>
<glyph name="z" format="2">
  <advance width="317"/>
  <unicode hex="007A"/>
  <anchor x="154" y="515" name="top"/>
  <outline>
    <contour>
      <point x="54" y="10" type="line"/>
      <point x="88" y="84"/>
      <point x="122" y="151"/>
      <point x="166" y="239" type="curve" smooth="yes"/>
      <point x="211" y="329"/>
      <point x="247" y="402"/>
      <point x="283" y="478" type="curve"/>
      <point x="256" y="497" type="line"/>
      <point x="237" y="451"/>
      <point x="192" y="355"/>
      <point x="138" y="246" type="curve" smooth="yes"/>
      <point x="90" y="148"/>
      <point x="50" y="69"/>
      <point x="30" y="30" type="curve"/>
    </contour>
    <contour>
      <point x="31" y="-4" type="line"/>
      <point x="31" y="-4"/>
      <point x="110" y="0"/>
      <point x="160" y="0" type="curve"/>
      <point x="210" y="-1"/>
      <point x="292" y="0"/>
      <point x="292" y="0" type="curve"/>
      <point x="292" y="32" type="line"/>
      <point x="292" y="32"/>
      <point x="223" y="29"/>
      <point x="175" y="29" type="curve" smooth="yes"/>
      <point x="126" y="29"/>
      <point x="30" y="30"/>
      <point x="30" y="30" type="curve"/>
    </contour>
    <contour>
      <point x="39" y="478" type="line"/>
      <point x="39" y="478"/>
      <point x="102" y="480"/>
      <point x="151" y="480" type="curve"/>
      <point x="199" y="480"/>
      <point x="283" y="478"/>
      <point x="283" y="478" type="curve"/>
      <point x="280" y="515" type="line"/>
      <point x="280" y="515"/>
      <point x="217" y="512"/>
      <point x="167" y="512" type="curve"/>
      <point x="117" y="511"/>
      <point x="40" y="512"/>
      <point x="40" y="512" type="curve"/>
    </contour>
  </outline>
</glyph>
<glyph name="braceleft" format="2">
  <advance width="527"/>
  <unicode hex="007B"/>
  <outline>
    <contour>
      <point x="320" y="-129" type="curve" smooth="yes"/>
      <point x="346" y="-129"/>
      <point x="376" y="-123"/>
      <point x="407" y="-113" type="curve"/>
      <point x="402" y="-94" type="line"/>
      <point x="373" y="-101"/>
      <point x="345" y="-106"/>
      <point x="321" y="-106" type="curve" smooth="yes"/>
      <point x="270" y="-106"/>
      <point x="235" y="-85"/>
      <point x="235" y="-20" type="curve" smooth="yes"/>
      <point x="235" y="22"/>
      <point x="256" y="133"/>
      <point x="256" y="172" type="curve" smooth="yes"/>
      <point x="256" y="225"/>
      <point x="220" y="263"/>
      <point x="158" y="274" type="curve"/>
      <point x="222" y="288"/>
      <point x="254" y="325"/>
      <point x="254" y="379" type="curve" smooth="yes"/>
      <point x="254" y="420"/>
      <point x="223" y="545"/>
      <point x="223" y="594" type="curve" smooth="yes"/>
      <point x="223" y="656"/>
      <point x="256" y="677"/>
      <point x="307" y="677" type="curve" smooth="yes"/>
      <point x="330" y="677"/>
      <point x="356" y="673"/>
      <point x="385" y="666" type="curve"/>
      <point x="392" y="687" type="line"/>
      <point x="362" y="697"/>
      <point x="333" y="702"/>
      <point x="307" y="702" type="curve" smooth="yes"/>
      <point x="242" y="702"/>
      <point x="195" y="668"/>
      <point x="195" y="586" type="curve" smooth="yes"/>
      <point x="195" y="539"/>
      <point x="227" y="433"/>
      <point x="227" y="384" type="curve" smooth="yes"/>
      <point x="227" y="328"/>
      <point x="193" y="302"/>
      <point x="120" y="288" type="curve"/>
      <point x="123" y="257" type="line"/>
      <point x="195" y="246"/>
      <point x="227" y="225"/>
      <point x="227" y="167" type="curve" smooth="yes"/>
      <point x="227" y="119"/>
      <point x="205" y="34"/>
      <point x="205" y="-13" type="curve" smooth="yes"/>
      <point x="205" y="-94"/>
      <point x="253" y="-129"/>
    </contour>
  </outline>
</glyph>
<glyph name="bar" format="2">
  <advance width="250"/>
  <unicode hex="007C"/>
  <outline>
    <contour>
      <point x="145" y="-136" type="line"/>
      <point x="143" y="-77"/>
      <point x="137" y="142"/>
      <point x="137" y="289" type="curve" smooth="yes"/>
      <point x="137" y="436"/>
      <point x="142" y="639"/>
      <point x="144" y="694" type="curve"/>
      <point x="106" y="693" type="line"/>
      <point x="107" y="639"/>
      <point x="107" y="433"/>
      <point x="107" y="288" type="curve" smooth="yes"/>
      <point x="107" y="142"/>
      <point x="106" y="-78"/>
      <point x="105" y="-134" type="curve"/>
    </contour>
  </outline>
</glyph>
<glyph name="braceright" format="2">
  <advance width="527"/>
  <unicode hex="007D"/>
  <outline>
    <contour>
      <point x="220" y="-129" type="curve" smooth="yes"/>
      <point x="285" y="-129"/>
      <point x="332" y="-95"/>
      <point x="332" y="-13" type="curve" smooth="yes"/>
      <point x="332" y="34"/>
      <point x="300" y="140"/>
      <point x="300" y="189" type="curve" smooth="yes"/>
      <point x="300" y="245"/>
      <point x="334" y="271"/>
      <point x="407" y="285" type="curve"/>
      <point x="404" y="316" type="line"/>
      <point x="332" y="327"/>
      <point x="300" y="348"/>
      <point x="300" y="406" type="curve" smooth="yes"/>
      <point x="300" y="454"/>
      <point x="322" y="539"/>
      <point x="322" y="586" type="curve" smooth="yes"/>
      <point x="322" y="667"/>
      <point x="274" y="702"/>
      <point x="207" y="702" type="curve" smooth="yes"/>
      <point x="181" y="702"/>
      <point x="151" y="696"/>
      <point x="120" y="686" type="curve"/>
      <point x="125" y="667" type="line"/>
      <point x="154" y="674"/>
      <point x="182" y="679"/>
      <point x="206" y="679" type="curve" smooth="yes"/>
      <point x="257" y="679"/>
      <point x="292" y="658"/>
      <point x="292" y="593" type="curve" smooth="yes"/>
      <point x="292" y="551"/>
      <point x="271" y="440"/>
      <point x="271" y="401" type="curve" smooth="yes"/>
      <point x="271" y="348"/>
      <point x="307" y="310"/>
      <point x="369" y="299" type="curve"/>
      <point x="305" y="285"/>
      <point x="273" y="248"/>
      <point x="273" y="194" type="curve" smooth="yes"/>
      <point x="273" y="153"/>
      <point x="304" y="28"/>
      <point x="304" y="-21" type="curve" smooth="yes"/>
      <point x="304" y="-83"/>
      <point x="271" y="-104"/>
      <point x="220" y="-104" type="curve" smooth="yes"/>
      <point x="197" y="-104"/>
      <point x="171" y="-100"/>
      <point x="142" y="-93" type="curve"/>
      <point x="135" y="-114" type="line"/>
      <point x="165" y="-124"/>
      <point x="194" y="-129"/>
    </contour>
  </outline>
</glyph>
<glyph name="asciitilde" format="2">
  <advance width="500"/>
  <unicode hex="007E"/>
  <outline>
    <contour>
      <point x="84" y="274" type="line"/>
      <point x="106" y="280"/>
      <point x="140" y="284"/>
      <point x="164" y="284" type="curve" smooth="yes"/>
      <point x="212" y="284"/>
      <point x="253" y="268"/>
      <point x="313" y="268" type="curve" smooth="yes"/>
      <point x="360" y="268"/>
      <point x="395" y="277"/>
      <point x="413" y="285" type="curve"/>
      <point x="412" y="319" type="line"/>
      <point x="387" y="310"/>
      <point x="352" y="302"/>
      <point x="310" y="302" type="curve" smooth="yes"/>
      <point x="251" y="302"/>
      <point x="214" y="319"/>
      <point x="162" y="319" type="curve" smooth="yes"/>
      <point x="140" y="319"/>
      <point x="104" y="313"/>
      <point x="83" y="305" type="curve"/>
    </contour>
  </outline>
</glyph>
<glyph name="exclamdown" format="2">
  <advance width="292"/>
  <unicode hex="00A1"/>
  <outline>
    <contour>
      <point x="120" y="-151" type="curve"/>
      <point x="172" y="-148" type="line"/>
      <point x="171" y="-102"/>
      <point x="166" y="44"/>
      <point x="164" y="134" type="curve" smooth="yes"/>
      <point x="162" y="211"/>
      <point x="161" y="313"/>
      <point x="160" y="341" type="curve"/>
      <point x="132" y="341" type="line"/>
      <point x="131" y="307"/>
      <point x="130" y="190"/>
      <point x="129" y="132" type="curve" smooth="yes"/>
      <point x="128" y="70"/>
      <point x="122" y="-98"/>
    </contour>
    <contour>
      <point x="127" y="456" type="line"/>
      <point x="164" y="458" type="line"/>
      <point x="167" y="555" type="line"/>
      <point x="122" y="551" type="line"/>
    </contour>
  </outline>
</glyph>
<glyph name="cent" format="2">
  <advance width="500"/>
  <unicode hex="00A2"/>
  <outline>
    <contour>
      <point x="251" y="30" type="curve" smooth="yes"/>
      <point x="355" y="30"/>
      <point x="397" y="84"/>
      <point x="397" y="185" type="curve" smooth="yes"/>
      <point x="397" y="199"/>
      <point x="396" y="212"/>
      <point x="395" y="227" type="curve"/>
      <point x="364" y="227" type="line"/>
      <point x="365" y="212"/>
      <point x="366" y="198"/>
      <point x="366" y="184" type="curve" smooth="yes"/>
      <point x="366" y="105"/>
      <point x="344" y="60"/>
      <point x="256" y="60" type="curve" smooth="yes"/>
      <point x="198" y="60"/>
      <point x="166" y="86"/>
      <point x="148" y="132" type="curve" smooth="yes"/>
      <point x="122" y="199"/>
      <point x="119" y="355"/>
      <point x="151" y="425" type="curve" smooth="yes"/>
      <point x="170" y="468"/>
      <point x="203" y="499"/>
      <point x="261" y="499" type="curve" smooth="yes"/>
      <point x="344" y="499"/>
      <point x="367" y="436"/>
      <point x="367" y="366" type="curve" smooth="yes"/>
      <point x="367" y="346"/>
      <point x="365" y="325"/>
      <point x="362" y="305" type="curve"/>
      <point x="393" y="305" type="line"/>
      <point x="396" y="324"/>
      <point x="398" y="343"/>
      <point x="398" y="362" type="curve" smooth="yes"/>
      <point x="398" y="445"/>
      <point x="367" y="526"/>
      <point x="266" y="526" type="curve" smooth="yes"/>
      <point x="194" y="526"/>
      <point x="150" y="491"/>
      <point x="125" y="440" type="curve" smooth="yes"/>
      <point x="86" y="362"/>
      <point x="87" y="202"/>
      <point x="119" y="119" type="curve" smooth="yes"/>
      <point x="140" y="67"/>
      <point x="179" y="30"/>
    </contour>
    <contour>
      <point x="272" y="-30" type="line"/>
      <point x="270" y="20"/>
      <point x="270" y="186"/>
      <point x="270" y="311" type="curve" smooth="yes"/>
      <point x="270" y="433"/>
      <point x="273" y="551"/>
      <point x="276" y="591" type="curve"/>
      <point x="247" y="592" type="line"/>
      <point x="247" y="562"/>
      <point x="245" y="483"/>
      <point x="245" y="322" type="curve" smooth="yes"/>
      <point x="245" y="142"/>
      <point x="244" y="12"/>
      <point x="243" y="-29" type="curve"/>
    </contour>
  </outline>
</glyph>
<glyph name="sterling" format="2">
  <advance width="500"/>
  <unicode hex="00A3"/>
  <outline>
    <contour>
      <point x="141" y="14" type="line"/>
      <point x="185" y="40"/>
      <point x="213" y="92"/>
      <point x="213" y="155" type="curve" smooth="yes"/>
      <point x="213" y="300"/>
      <point x="135" y="393"/>
      <point x="135" y="521" type="curve" smooth="yes"/>
      <point x="135" y="609"/>
      <point x="168" y="674"/>
      <point x="263" y="674" type="curve" smooth="yes"/>
      <point x="348" y="674"/>
      <point x="375" y="610"/>
      <point x="375" y="541" type="curve" smooth="yes"/>
      <point x="375" y="518"/>
      <point x="372" y="494"/>
      <point x="367" y="472" type="curve"/>
      <point x="403" y="473" type="line"/>
      <point x="409" y="499"/>
      <point x="412" y="526"/>
      <point x="412" y="551" type="curve" smooth="yes"/>
      <point x="412" y="635"/>
      <point x="375" y="706"/>
      <point x="258" y="706" type="curve" smooth="yes"/>
      <point x="149" y="706"/>
      <point x="99" y="626"/>
      <point x="99" y="524" type="curve" smooth="yes"/>
      <point x="99" y="384"/>
      <point x="179" y="300"/>
      <point x="179" y="133" type="curve" smooth="yes"/>
      <point x="179" y="75"/>
      <point x="134" y="31"/>
      <point x="88" y="31" type="curve"/>
    </contour>
    <contour>
      <point x="95" y="-3" type="line"/>
      <point x="118" y="-2"/>
      <point x="213" y="0"/>
      <point x="258" y="0" type="curve" smooth="yes"/>
      <point x="300" y="0"/>
      <point x="392" y="0"/>
      <point x="415" y="-1" type="curve"/>
      <point x="419" y="33" type="line"/>
      <point x="397" y="31"/>
      <point x="325" y="29"/>
      <point x="277" y="29" type="curve" smooth="yes"/>
      <point x="252" y="29"/>
      <point x="120" y="30"/>
      <point x="88" y="31" type="curve"/>
    </contour>
    <contour>
      <point x="77" y="276" type="line"/>
      <point x="77" y="276"/>
      <point x="166" y="283"/>
      <point x="233" y="283" type="curve" smooth="yes"/>
      <point x="347" y="283"/>
      <point x="355" y="280"/>
      <point x="355" y="280" type="curve"/>
      <point x="361" y="316" type="line"/>
      <point x="361" y="316"/>
      <point x="286" y="313"/>
      <point x="221" y="310" type="curve" smooth="yes"/>
      <point x="196" y="309"/>
      <point x="154" y="309"/>
      <point x="82" y="310" type="curve"/>
    </contour>
  </outline>
</glyph>
<glyph name="currency" format="2">
  <advance width="600"/>
  <unicode hex="00A4"/>
  <outline>
    <contour>
      <point x="293" y="40" type="curve" smooth="yes"/>
      <point x="462" y="40"/>
      <point x="535" y="160"/>
      <point x="535" y="284" type="curve" smooth="yes"/>
      <point x="535" y="421"/>
      <point x="459" y="517"/>
      <point x="310" y="517" type="curve" smooth="yes"/>
      <point x="159" y="517"/>
      <point x="75" y="409"/>
      <point x="75" y="270" type="curve" smooth="yes"/>
      <point x="75" y="148"/>
      <point x="137" y="40"/>
    </contour>
    <contour>
      <point x="78" y="18" type="line"/>
      <point x="149" y="103" type="line"/>
      <point x="126" y="125" type="line"/>
      <point x="50" y="44" type="line"/>
    </contour>
    <contour>
      <point x="126" y="431" type="line"/>
      <point x="149" y="453" type="line"/>
      <point x="78" y="538" type="line"/>
      <point x="50" y="512" type="line"/>
    </contour>
    <contour>
      <point x="297" y="69" type="curve" smooth="yes"/>
      <point x="177" y="69"/>
      <point x="109" y="159"/>
      <point x="109" y="277" type="curve" smooth="yes"/>
      <point x="109" y="382"/>
      <point x="169" y="486"/>
      <point x="306" y="486" type="curve" smooth="yes"/>
      <point x="433" y="486"/>
      <point x="501" y="410"/>
      <point x="501" y="276" type="curve" smooth="yes"/>
      <point x="501" y="144"/>
      <point x="425" y="69"/>
    </contour>
    <contour>
      <point x="521" y="13" type="line"/>
      <point x="549" y="39" type="line"/>
      <point x="473" y="120" type="line"/>
      <point x="450" y="98" type="line"/>
    </contour>
    <contour>
      <point x="474" y="436" type="line"/>
      <point x="550" y="517" type="line"/>
      <point x="522" y="543" type="line"/>
      <point x="451" y="458" type="line"/>
    </contour>
  </outline>
</glyph>
<glyph name="yen" format="2">
  <advance width="500"/>
  <unicode hex="00A5"/>
  <outline>
    <contour>
      <point x="228" y="0" type="line"/>
      <point x="267" y="1" type="line"/>
      <point x="262" y="254" type="line"/>
      <point x="296" y="345"/>
      <point x="323" y="418"/>
      <point x="353" y="500" type="curve" smooth="yes"/>
      <point x="377" y="566"/>
      <point x="401" y="631"/>
      <point x="425" y="697" type="curve"/>
      <point x="385" y="695" type="line"/>
      <point x="369" y="652"/>
      <point x="345" y="585"/>
      <point x="322" y="518" type="curve" smooth="yes"/>
      <point x="289" y="423"/>
      <point x="257" y="328"/>
      <point x="245" y="301" type="curve"/>
      <point x="222" y="369"/>
      <point x="202" y="434"/>
      <point x="173" y="525" type="curve" smooth="yes"/>
      <point x="158" y="576"/>
      <point x="140" y="633"/>
      <point x="117" y="704" type="curve"/>
      <point x="75" y="704" type="line"/>
      <point x="91" y="657"/>
      <point x="114" y="589"/>
      <point x="141" y="513" type="curve" smooth="yes"/>
      <point x="168" y="432"/>
      <point x="200" y="341"/>
      <point x="228" y="255" type="curve"/>
    </contour>
    <contour>
      <point x="96" y="134" type="line"/>
      <point x="134" y="137"/>
      <point x="202" y="141"/>
      <point x="251" y="141" type="curve" smooth="yes"/>
      <point x="301" y="141"/>
      <point x="358" y="139"/>
      <point x="386" y="138" type="curve"/>
      <point x="392" y="173" type="line"/>
      <point x="354" y="171"/>
      <point x="286" y="168"/>
      <point x="239" y="167" type="curve" smooth="yes"/>
      <point x="194" y="166"/>
      <point x="136" y="166"/>
      <point x="105" y="167" type="curve"/>
    </contour>
    <contour>
      <point x="96" y="241" type="line"/>
      <point x="134" y="244"/>
      <point x="202" y="248"/>
      <point x="251" y="248" type="curve" smooth="yes"/>
      <point x="301" y="248"/>
      <point x="358" y="246"/>
      <point x="386" y="245" type="curve"/>
      <point x="392" y="280" type="line"/>
      <point x="354" y="278"/>
      <point x="286" y="275"/>
      <point x="239" y="274" type="curve" smooth="yes"/>
      <point x="194" y="273"/>
      <point x="136" y="273"/>
      <point x="105" y="274" type="curve"/>
    </contour>
  </outline>
</glyph>
<glyph name="brokenbar" format="2">
  <advance width="250"/>
  <unicode hex="00A6"/>
  <outline>
    <contour>
      <point x="107" y="352" type="curve"/>
      <point x="137" y="352" type="line"/>
      <point x="138" y="489"/>
      <point x="142" y="646"/>
      <point x="144" y="694" type="curve"/>
      <point x="106" y="693" type="line"/>
      <point x="107" y="647"/>
      <point x="107" y="488"/>
    </contour>
    <contour>
      <point x="105" y="-134" type="curve"/>
      <point x="145" y="-136" type="line"/>
      <point x="143" y="-90"/>
      <point x="139" y="55"/>
      <point x="138" y="187" type="curve"/>
      <point x="107" y="187" type="line"/>
      <point x="107" y="56"/>
      <point x="106" y="-90"/>
    </contour>
  </outline>
</glyph>
<glyph name="section" format="2">
  <advance width="448"/>
  <unicode hex="00A7"/>
  <outline>
    <contour>
      <point x="229" y="702" type="curve" smooth="yes"/>
      <point x="157" y="702"/>
      <point x="100" y="656"/>
      <point x="100" y="561" type="curve" smooth="yes"/>
      <point x="100" y="479"/>
      <point x="149" y="436"/>
      <point x="200" y="401" type="curve" smooth="yes"/>
      <point x="256" y="362"/>
      <point x="316" y="334"/>
      <point x="316" y="272" type="curve" smooth="yes"/>
      <point x="316" y="213"/>
      <point x="269" y="197"/>
      <point x="237" y="191" type="curve"/>
      <point x="240" y="168" type="line"/>
      <point x="289" y="173"/>
      <point x="344" y="208"/>
      <point x="344" y="278" type="curve" smooth="yes"/>
      <point x="344" y="347"/>
      <point x="279" y="381"/>
      <point x="221" y="422" type="curve" smooth="yes"/>
      <point x="173" y="455"/>
      <point x="130" y="493"/>
      <point x="130" y="557" type="curve" smooth="yes"/>
      <point x="130" y="639"/>
      <point x="167" y="675"/>
      <point x="232" y="675" type="curve" smooth="yes"/>
      <point x="294" y="675"/>
      <point x="317" y="630"/>
      <point x="317" y="570" type="curve" smooth="yes"/>
      <point x="317" y="546"/>
      <point x="314" y="521"/>
      <point x="308" y="495" type="curve"/>
      <point x="339" y="495" type="line"/>
      <point x="344" y="519"/>
      <point x="348" y="544"/>
      <point x="348" y="568" type="curve" smooth="yes"/>
      <point x="348" y="640"/>
      <point x="318" y="702"/>
    </contour>
    <contour>
      <point x="219" y="-109" type="curve" smooth="yes"/>
      <point x="291" y="-109"/>
      <point x="348" y="-63"/>
      <point x="348" y="32" type="curve" smooth="yes"/>
      <point x="348" y="123"/>
      <point x="288" y="166"/>
      <point x="232" y="203" type="curve" smooth="yes"/>
      <point x="181" y="237"/>
      <point x="132" y="265"/>
      <point x="132" y="321" type="curve" smooth="yes"/>
      <point x="132" y="380"/>
      <point x="179" y="396"/>
      <point x="211" y="402" type="curve"/>
      <point x="208" y="425" type="line"/>
      <point x="159" y="420"/>
      <point x="104" y="385"/>
      <point x="104" y="315" type="curve" smooth="yes"/>
      <point x="104" y="250"/>
      <point x="161" y="216"/>
      <point x="215" y="179" type="curve" smooth="yes"/>
      <point x="267" y="144"/>
      <point x="318" y="106"/>
      <point x="318" y="36" type="curve" smooth="yes"/>
      <point x="318" y="-46"/>
      <point x="281" y="-82"/>
      <point x="216" y="-82" type="curve" smooth="yes"/>
      <point x="154" y="-82"/>
      <point x="131" y="-37"/>
      <point x="131" y="23" type="curve" smooth="yes"/>
      <point x="131" y="47"/>
      <point x="134" y="72"/>
      <point x="140" y="98" type="curve"/>
      <point x="109" y="98" type="line"/>
      <point x="104" y="74"/>
      <point x="100" y="49"/>
      <point x="100" y="25" type="curve" smooth="yes"/>
      <point x="100" y="-47"/>
      <point x="130" y="-109"/>
    </contour>
  </outline>
</glyph>
<glyph name="copyright" format="2">
  <advance width="727"/>
  <unicode hex="00A9"/>
  <outline>
    <contour>
      <point x="356" y="81" type="curve" smooth="yes"/>
      <point x="537" y="81"/>
      <point x="633" y="205"/>
      <point x="633" y="381" type="curve" smooth="yes"/>
      <point x="633" y="565"/>
      <point x="540" y="690"/>
      <point x="366" y="690" type="curve" smooth="yes"/>
      <point x="192" y="690"/>
      <point x="94" y="561"/>
      <point x="94" y="384" type="curve" smooth="yes"/>
      <point x="94" y="201"/>
      <point x="185" y="81"/>
    </contour>
    <contour>
      <point x="353" y="201" type="curve" smooth="yes"/>
      <point x="417" y="200"/>
      <point x="444" y="237"/>
      <point x="444" y="305" type="curve" smooth="yes"/>
      <point x="444" y="313"/>
      <point x="444" y="321"/>
      <point x="443" y="330" type="curve"/>
      <point x="413" y="330" type="line"/>
      <point x="413" y="324"/>
      <point x="414" y="317"/>
      <point x="414" y="312" type="curve" smooth="yes"/>
      <point x="415" y="258"/>
      <point x="406" y="230"/>
      <point x="356" y="230" type="curve" smooth="yes"/>
      <point x="322" y="230"/>
      <point x="304" y="253"/>
      <point x="295" y="290" type="curve" smooth="yes"/>
      <point x="288" y="319"/>
      <point x="286" y="356"/>
      <point x="286" y="398" type="curve" smooth="yes"/>
      <point x="286" y="437"/>
      <point x="289" y="471"/>
      <point x="297" y="498" type="curve" smooth="yes"/>
      <point x="307" y="532"/>
      <point x="326" y="553"/>
      <point x="359" y="552" type="curve" smooth="yes"/>
      <point x="402" y="551"/>
      <point x="415" y="517"/>
      <point x="415" y="464" type="curve" smooth="yes"/>
      <point x="415" y="447"/>
      <point x="414" y="428"/>
      <point x="412" y="408" type="curve"/>
      <point x="441" y="408" type="line"/>
      <point x="443" y="426"/>
      <point x="444" y="443"/>
      <point x="444" y="459" type="curve" smooth="yes"/>
      <point x="444" y="528"/>
      <point x="424" y="578"/>
      <point x="363" y="578" type="curve" smooth="yes"/>
      <point x="317" y="578"/>
      <point x="289" y="554"/>
      <point x="273" y="514" type="curve" smooth="yes"/>
      <point x="261" y="484"/>
      <point x="256" y="443"/>
      <point x="256" y="398" type="curve" smooth="yes"/>
      <point x="256" y="352"/>
      <point x="258" y="309"/>
      <point x="268" y="274" type="curve" smooth="yes"/>
      <point x="280" y="231"/>
      <point x="304" y="202"/>
    </contour>
    <contour>
      <point x="359" y="112" type="curve" smooth="yes"/>
      <point x="207" y="112"/>
      <point x="126" y="220"/>
      <point x="126" y="384" type="curve" smooth="yes"/>
      <point x="126" y="548"/>
      <point x="209" y="659"/>
      <point x="362" y="659" type="curve" smooth="yes"/>
      <point x="518" y="659"/>
      <point x="601" y="548"/>
      <point x="601" y="382" type="curve" smooth="yes"/>
      <point x="601" y="220"/>
      <point x="516" y="112"/>
    </contour>
  </outline>
</glyph>
<glyph name="ordfeminine" format="2">
  <advance width="393"/>
  <unicode hex="00AA"/>
  <outline>
    <contour>
      <point x="100" y="519" type="curve" smooth="yes"/>
      <point x="100" y="479"/>
      <point x="133" y="462"/>
      <point x="169" y="462" type="curve" smooth="yes"/>
      <point x="199" y="462"/>
      <point x="232" y="475"/>
      <point x="250" y="497" type="curve"/>
      <point x="251" y="483"/>
      <point x="257" y="473"/>
      <point x="266" y="464" type="curve"/>
      <point x="293" y="476" type="line"/>
      <point x="282" y="488"/>
      <point x="278" y="503"/>
      <point x="278" y="516" type="curve" smooth="yes"/>
      <point x="279" y="634" type="line" smooth="yes"/>
      <point x="279" y="675"/>
      <point x="253" y="703"/>
      <point x="197" y="703" type="curve" smooth="yes"/>
      <point x="142" y="703"/>
      <point x="114" y="674"/>
      <point x="109" y="633" type="curve"/>
      <point x="135" y="629" type="line"/>
      <point x="140" y="661"/>
      <point x="160" y="680"/>
      <point x="197" y="680" type="curve" smooth="yes"/>
      <point x="239" y="680"/>
      <point x="251" y="666"/>
      <point x="251" y="629" type="curve"/>
      <point x="250" y="605"/>
      <point x="208" y="597"/>
      <point x="168" y="583" type="curve" smooth="yes"/>
      <point x="133" y="570"/>
      <point x="100" y="560"/>
    </contour>
    <contour>
      <point x="128" y="518" type="curve" smooth="yes"/>
      <point x="128" y="547"/>
      <point x="151" y="552"/>
      <point x="177" y="561" type="curve" smooth="yes"/>
      <point x="204" y="570"/>
      <point x="234" y="577"/>
      <point x="250" y="592" type="curve"/>
      <point x="250" y="558" type="line" smooth="yes"/>
      <point x="250" y="511"/>
      <point x="217" y="484"/>
      <point x="167" y="484" type="curve" smooth="yes"/>
      <point x="145" y="484"/>
      <point x="128" y="496"/>
    </contour>
  </outline>
</glyph>
<glyph name="logicalnot" format="2">
  <advance width="550"/>
  <unicode hex="00AC"/>
  <outline>
    <contour>
      <point x="36" y="327" type="line"/>
      <point x="74" y="329"/>
      <point x="232" y="331"/>
      <point x="275" y="331" type="curve" smooth="yes"/>
      <point x="320" y="331"/>
      <point x="470" y="331"/>
      <point x="506" y="330" type="curve"/>
      <point x="508" y="365" type="line"/>
      <point x="469" y="362"/>
      <point x="314" y="360"/>
      <point x="267" y="360" type="curve" smooth="yes"/>
      <point x="222" y="360"/>
      <point x="72" y="360"/>
      <point x="34" y="362" type="curve"/>
    </contour>
    <contour>
      <point x="478" y="174" type="curve"/>
      <point x="511" y="176" type="line"/>
      <point x="510" y="197"/>
      <point x="508" y="238"/>
      <point x="507" y="275" type="curve" smooth="yes"/>
      <point x="506" y="308"/>
      <point x="507" y="336"/>
      <point x="508" y="365" type="curve"/>
      <point x="475" y="354" type="line"/>
      <point x="476" y="346"/>
      <point x="479" y="289"/>
      <point x="479" y="267" type="curve" smooth="yes"/>
      <point x="479" y="229"/>
      <point x="479" y="194"/>
    </contour>
  </outline>
</glyph>
<glyph name="registered" format="2">
  <advance width="470"/>
  <unicode hex="00AE"/>
  <outline>
    <contour>
      <point x="227" y="238" type="curve" smooth="yes"/>
      <point x="360" y="238"/>
      <point x="426" y="333"/>
      <point x="426" y="462" type="curve" smooth="yes"/>
      <point x="426" y="597"/>
      <point x="364" y="693"/>
      <point x="236" y="693" type="curve" smooth="yes"/>
      <point x="109" y="693"/>
      <point x="43" y="594"/>
      <point x="43" y="464" type="curve" smooth="yes"/>
      <point x="43" y="330"/>
      <point x="101" y="238"/>
    </contour>
    <contour>
      <point x="231" y="267" type="curve" smooth="yes"/>
      <point x="122" y="267"/>
      <point x="71" y="349"/>
      <point x="71" y="464" type="curve" smooth="yes"/>
      <point x="71" y="580"/>
      <point x="124" y="664"/>
      <point x="233" y="664" type="curve" smooth="yes"/>
      <point x="345" y="664"/>
      <point x="398" y="580"/>
      <point x="398" y="463" type="curve" smooth="yes"/>
      <point x="398" y="349"/>
      <point x="343" y="267"/>
    </contour>
    <contour>
      <point x="277" y="331" type="curve"/>
      <point x="304" y="332" type="line"/>
      <point x="284" y="367"/>
      <point x="267" y="400"/>
      <point x="252" y="432" type="curve"/>
      <point x="277" y="447"/>
      <point x="290" y="474"/>
      <point x="290" y="517" type="curve" smooth="yes"/>
      <point x="290" y="591"/>
      <point x="269" y="610"/>
      <point x="213" y="610" type="curve" smooth="yes"/>
      <point x="202" y="610"/>
      <point x="189" y="609"/>
      <point x="175" y="608" type="curve"/>
      <point x="177" y="577"/>
      <point x="178" y="518"/>
      <point x="178" y="470" type="curve" smooth="yes"/>
      <point x="178" y="421"/>
      <point x="177" y="363"/>
      <point x="177" y="332" type="curve"/>
      <point x="202" y="333" type="line"/>
      <point x="202" y="362"/>
      <point x="201" y="390"/>
      <point x="201" y="419" type="curve"/>
      <point x="212" y="420"/>
      <point x="222" y="421"/>
      <point x="231" y="424" type="curve"/>
      <point x="249" y="392"/>
      <point x="263" y="361"/>
    </contour>
    <contour>
      <point x="201" y="442" type="curve"/>
      <point x="201" y="451"/>
      <point x="201" y="460"/>
      <point x="201" y="469" type="curve" smooth="yes"/>
      <point x="201" y="480"/>
      <point x="202" y="552"/>
      <point x="202" y="586" type="curve"/>
      <point x="207" y="586"/>
      <point x="212" y="587"/>
      <point x="217" y="587" type="curve" smooth="yes"/>
      <point x="262" y="587"/>
      <point x="267" y="566"/>
      <point x="267" y="515" type="curve" smooth="yes"/>
      <point x="267" y="473"/>
      <point x="253" y="444"/>
    </contour>
  </outline>
</glyph>
<glyph name="plusminus" format="2">
  <advance width="500"/>
  <unicode hex="00B1"/>
  <outline>
    <contour>
      <point x="280" y="189" type="line"/>
      <point x="277" y="221"/>
      <point x="272" y="306"/>
      <point x="272" y="362" type="curve" smooth="yes"/>
      <point x="272" y="416"/>
      <point x="276" y="495"/>
      <point x="278" y="517" type="curve"/>
      <point x="234" y="514" type="line"/>
      <point x="235" y="489"/>
      <point x="238" y="412"/>
      <point x="238" y="361" type="curve" smooth="yes"/>
      <point x="238" y="308"/>
      <point x="237" y="216"/>
      <point x="235" y="187" type="curve"/>
    </contour>
    <contour>
      <point x="83" y="99" type="line"/>
      <point x="112" y="100"/>
      <point x="215" y="103"/>
      <point x="260" y="103" type="curve" smooth="yes"/>
      <point x="307" y="103"/>
      <point x="402" y="103"/>
      <point x="429" y="102" type="curve"/>
      <point x="431" y="141" type="line"/>
      <point x="402" y="140"/>
      <point x="301" y="138"/>
      <point x="252" y="136" type="curve" smooth="yes"/>
      <point x="204" y="134"/>
      <point x="108" y="137"/>
      <point x="80" y="138" type="curve"/>
    </contour>
    <contour>
      <point x="80" y="329" type="line"/>
      <point x="113" y="331"/>
      <point x="221" y="334"/>
      <point x="271" y="334" type="curve" smooth="yes"/>
      <point x="321" y="334"/>
      <point x="409" y="332"/>
      <point x="430" y="330" type="curve"/>
      <point x="434" y="371" type="line"/>
      <point x="405" y="369"/>
      <point x="315" y="368"/>
      <point x="270" y="367" type="curve" smooth="yes"/>
      <point x="221" y="366"/>
      <point x="114" y="367"/>
      <point x="84" y="368" type="curve"/>
    </contour>
  </outline>
</glyph>
<glyph name="twosuperior" format="2">
  <advance width="322"/>
  <unicode hex="00B2"/>
  <outline>
    <contour>
      <point x="110" y="577" type="line"/>
      <point x="165" y="611"/>
      <point x="226" y="676"/>
      <point x="226" y="739" type="curve" smooth="yes"/>
      <point x="226" y="773"/>
      <point x="209" y="805"/>
      <point x="162" y="805" type="curve" smooth="yes"/>
      <point x="117" y="805"/>
      <point x="93" y="778"/>
      <point x="93" y="737" type="curve" smooth="yes"/>
      <point x="93" y="730"/>
      <point x="94" y="722"/>
      <point x="96" y="713" type="curve"/>
      <point x="119" y="714" type="line"/>
      <point x="118" y="722"/>
      <point x="117" y="729"/>
      <point x="117" y="736" type="curve" smooth="yes"/>
      <point x="117" y="765"/>
      <point x="128" y="785"/>
      <point x="160" y="785" type="curve" smooth="yes"/>
      <point x="189" y="785"/>
      <point x="200" y="763"/>
      <point x="200" y="733" type="curve" smooth="yes"/>
      <point x="200" y="667"/>
      <point x="133" y="617"/>
      <point x="88" y="584" type="curve"/>
    </contour>
    <contour>
      <point x="87" y="563" type="line"/>
      <point x="103" y="564"/>
      <point x="134" y="565"/>
      <point x="159" y="565" type="curve" smooth="yes"/>
      <point x="174" y="565"/>
      <point x="214" y="565"/>
      <point x="230" y="565" type="curve"/>
      <point x="229" y="587" type="line"/>
      <point x="215" y="586"/>
      <point x="178" y="585"/>
      <point x="164" y="585" type="curve" smooth="yes"/>
      <point x="138" y="585"/>
      <point x="124" y="584"/>
      <point x="88" y="584" type="curve"/>
    </contour>
  </outline>
</glyph>
<glyph name="threesuperior" format="2">
  <advance width="322"/>
  <unicode hex="00B3"/>
  <outline>
    <contour>
      <point x="163" y="559" type="curve" smooth="yes"/>
      <point x="209" y="559"/>
      <point x="232" y="589"/>
      <point x="232" y="623" type="curve" smooth="yes"/>
      <point x="232" y="642"/>
      <point x="220" y="664"/>
      <point x="191" y="669" type="curve"/>
      <point x="217" y="678"/>
      <point x="236" y="707"/>
      <point x="236" y="741" type="curve" smooth="yes"/>
      <point x="236" y="770"/>
      <point x="219" y="806"/>
      <point x="170" y="806" type="curve" smooth="yes"/>
      <point x="125" y="806"/>
      <point x="102" y="776"/>
      <point x="102" y="746" type="curve" smooth="yes"/>
      <point x="102" y="740"/>
      <point x="102" y="734"/>
      <point x="104" y="728" type="curve"/>
      <point x="126" y="729" type="line"/>
      <point x="125" y="735"/>
      <point x="124" y="740"/>
      <point x="124" y="745" type="curve" smooth="yes"/>
      <point x="124" y="767"/>
      <point x="135" y="785"/>
      <point x="167" y="785" type="curve" smooth="yes"/>
      <point x="200" y="785"/>
      <point x="213" y="768"/>
      <point x="213" y="738" type="curve" smooth="yes"/>
      <point x="213" y="689"/>
      <point x="181" y="678"/>
      <point x="153" y="678" type="curve" smooth="yes"/>
      <point x="147" y="678"/>
      <point x="132" y="678"/>
      <point x="128" y="678" type="curve"/>
      <point x="128" y="657" type="line"/>
      <point x="134" y="657"/>
      <point x="152" y="657"/>
      <point x="155" y="657" type="curve" smooth="yes"/>
      <point x="182" y="657"/>
      <point x="208" y="651"/>
      <point x="208" y="622" type="curve" smooth="yes"/>
      <point x="208" y="594"/>
      <point x="197" y="578"/>
      <point x="164" y="578" type="curve" smooth="yes"/>
      <point x="132" y="578"/>
      <point x="124" y="591"/>
      <point x="121" y="606" type="curve"/>
      <point x="98" y="605" type="line"/>
      <point x="103" y="581"/>
      <point x="120" y="559"/>
    </contour>
  </outline>
</glyph>
<glyph name="acute" format="2">
  <advance width="189"/>
  <unicode hex="00B4"/>
  <anchor x="82" y="555" name="_top"/>
  <outline>
    <contour>
      <point x="32" y="625" type="line"/>
      <point x="53" y="635"/>
      <point x="78" y="647"/>
      <point x="101" y="659" type="curve" smooth="yes"/>
      <point x="126" y="671"/>
      <point x="151" y="682"/>
      <point x="174" y="693" type="curve"/>
      <point x="157" y="722" type="line"/>
      <point x="137" y="709"/>
      <point x="113" y="695"/>
      <point x="90" y="682" type="curve" smooth="yes"/>
      <point x="65" y="668"/>
      <point x="40" y="654"/>
      <point x="21" y="644" type="curve"/>
    </contour>
  </outline>
</glyph>
<glyph name="periodcentered" format="2">
  <advance width="285"/>
  <unicode hex="00B7"/>
  <outline>
    <contour>
      <point x="165" y="254" type="line"/>
      <point x="163" y="354" type="line"/>
      <point x="120" y="351" type="line"/>
      <point x="122" y="256" type="line"/>
    </contour>
  </outline>
</glyph>
<glyph name="onesuperior" format="2">
  <advance width="322"/>
  <unicode hex="00B9"/>
  <outline>
    <contour>
      <point x="176" y="567" type="curve"/>
      <point x="204" y="567" type="line"/>
      <point x="201" y="638"/>
      <point x="201" y="728"/>
      <point x="205" y="801" type="curve"/>
      <point x="189" y="801" type="line"/>
      <point x="178" y="773" type="line"/>
      <point x="178" y="717"/>
      <point x="178" y="619"/>
    </contour>
    <contour>
      <point x="99" y="745" type="line"/>
      <point x="127" y="746"/>
      <point x="161" y="751"/>
      <point x="179" y="757" type="curve"/>
      <point x="189" y="801" type="line"/>
      <point x="166" y="776"/>
      <point x="127" y="770"/>
      <point x="98" y="764" type="curve"/>
    </contour>
  </outline>
</glyph>
<glyph name="ordmasculine" format="2">
  <advance width="384"/>
  <unicode hex="00BA"/>
  <outline>
    <contour>
      <point x="188" y="469" type="curve" smooth="yes"/>
      <point x="251" y="469"/>
      <point x="284" y="509"/>
      <point x="284" y="590" type="curve" smooth="yes"/>
      <point x="284" y="667"/>
      <point x="255" y="703"/>
      <point x="195" y="703" type="curve" smooth="yes"/>
      <point x="134" y="703"/>
      <point x="100" y="663"/>
      <point x="100" y="590" type="curve" smooth="yes"/>
      <point x="100" y="510"/>
      <point x="129" y="469"/>
    </contour>
    <contour>
      <point x="190" y="497" type="curve" smooth="yes"/>
      <point x="148" y="497"/>
      <point x="129" y="525"/>
      <point x="129" y="589" type="curve" smooth="yes"/>
      <point x="129" y="652"/>
      <point x="151" y="678"/>
      <point x="194" y="678" type="curve" smooth="yes"/>
      <point x="235" y="678"/>
      <point x="255" y="653"/>
      <point x="255" y="593" type="curve" smooth="yes"/>
      <point x="255" y="541"/>
      <point x="245" y="497"/>
    </contour>
  </outline>
</glyph>
<glyph name="onequarter" format="2">
  <advance width="726"/>
  <unicode hex="00BC"/>
  <outline>
    <contour>
      <point x="145" y="0" type="curve"/>
      <point x="179" y="1" type="line"/>
      <point x="245" y="116"/>
      <point x="311" y="231"/>
      <point x="377" y="345" type="curve" smooth="yes"/>
      <point x="445" y="462"/>
      <point x="514" y="578"/>
      <point x="582" y="695" type="curve"/>
      <point x="546" y="696" type="line"/>
      <point x="478" y="575"/>
      <point x="414" y="455"/>
      <point x="343" y="334" type="curve" smooth="yes"/>
      <point x="277" y="222"/>
      <point x="211" y="111"/>
    </contour>
    <contour>
      <point x="168" y="461" type="curve"/>
      <point x="196" y="461" type="line"/>
      <point x="193" y="532"/>
      <point x="193" y="622"/>
      <point x="197" y="695" type="curve"/>
      <point x="181" y="695" type="line"/>
      <point x="158" y="670"/>
      <point x="119" y="664"/>
      <point x="90" y="658" type="curve"/>
      <point x="91" y="639" type="line"/>
      <point x="118" y="640"/>
      <point x="152" y="645"/>
      <point x="170" y="651" type="curve"/>
      <point x="170" y="593"/>
      <point x="170" y="508"/>
    </contour>
    <contour>
      <point x="546" y="-1" type="line"/>
      <point x="571" y="0" type="line"/>
      <point x="570" y="59" type="line"/>
      <point x="614" y="59" type="line"/>
      <point x="614" y="81" type="line"/>
      <point x="570" y="80" type="line"/>
      <point x="570" y="127" type="line" smooth="yes"/>
      <point x="570" y="169"/>
      <point x="571" y="214"/>
      <point x="571" y="235" type="curve"/>
      <point x="545" y="236" type="line"/>
      <point x="532" y="214"/>
      <point x="512" y="185"/>
      <point x="493" y="156" type="curve" smooth="yes"/>
      <point x="439" y="79" type="line"/>
      <point x="444" y="58" type="line"/>
      <point x="547" y="59" type="line"/>
    </contour>
    <contour>
      <point x="465" y="79" type="line"/>
      <point x="546" y="201" type="line"/>
      <point x="547" y="79" type="line"/>
    </contour>
  </outline>
</glyph>
<glyph name="onehalf" format="2">
  <advance width="726"/>
  <unicode hex="00BD"/>
  <outline>
    <contour>
      <point x="145" y="0" type="curve"/>
      <point x="179" y="1" type="line"/>
      <point x="245" y="116"/>
      <point x="311" y="231"/>
      <point x="377" y="345" type="curve" smooth="yes"/>
      <point x="445" y="462"/>
      <point x="514" y="578"/>
      <point x="582" y="695" type="curve"/>
      <point x="546" y="696" type="line"/>
      <point x="478" y="575"/>
      <point x="414" y="455"/>
      <point x="343" y="334" type="curve" smooth="yes"/>
      <point x="277" y="222"/>
      <point x="211" y="111"/>
    </contour>
    <contour>
      <point x="471" y="-2" type="line"/>
      <point x="487" y="-1"/>
      <point x="518" y="0"/>
      <point x="543" y="0" type="curve" smooth="yes"/>
      <point x="614" y="0" type="line"/>
      <point x="613" y="22" type="line"/>
      <point x="601" y="21"/>
      <point x="561" y="20"/>
      <point x="505" y="19" type="curve"/>
      <point x="557" y="55"/>
      <point x="610" y="115"/>
      <point x="610" y="174" type="curve" smooth="yes"/>
      <point x="610" y="208"/>
      <point x="593" y="240"/>
      <point x="546" y="240" type="curve" smooth="yes"/>
      <point x="501" y="240"/>
      <point x="477" y="213"/>
      <point x="477" y="172" type="curve" smooth="yes"/>
      <point x="477" y="165"/>
      <point x="478" y="157"/>
      <point x="480" y="148" type="curve"/>
      <point x="503" y="149" type="line"/>
      <point x="502" y="157"/>
      <point x="501" y="164"/>
      <point x="501" y="171" type="curve" smooth="yes"/>
      <point x="501" y="200"/>
      <point x="512" y="220"/>
      <point x="544" y="220" type="curve" smooth="yes"/>
      <point x="573" y="220"/>
      <point x="584" y="198"/>
      <point x="584" y="168" type="curve" smooth="yes"/>
      <point x="584" y="102"/>
      <point x="517" y="52"/>
      <point x="472" y="19" type="curve"/>
    </contour>
    <contour>
      <point x="168" y="461" type="curve"/>
      <point x="196" y="461" type="line"/>
      <point x="193" y="532"/>
      <point x="193" y="622"/>
      <point x="197" y="695" type="curve"/>
      <point x="181" y="695" type="line"/>
      <point x="158" y="670"/>
      <point x="119" y="664"/>
      <point x="90" y="658" type="curve"/>
      <point x="91" y="639" type="line"/>
      <point x="118" y="640"/>
      <point x="152" y="645"/>
      <point x="170" y="651" type="curve"/>
      <point x="170" y="593"/>
      <point x="170" y="508"/>
    </contour>
  </outline>
</glyph>
<glyph name="threequarters" format="2">
  <advance width="726"/>
  <unicode hex="00BE"/>
  <outline>
    <contour>
      <point x="145" y="0" type="curve"/>
      <point x="179" y="1" type="line"/>
      <point x="245" y="116"/>
      <point x="311" y="231"/>
      <point x="377" y="345" type="curve" smooth="yes"/>
      <point x="445" y="462"/>
      <point x="514" y="578"/>
      <point x="582" y="695" type="curve"/>
      <point x="546" y="696" type="line"/>
      <point x="478" y="575"/>
      <point x="414" y="455"/>
      <point x="343" y="334" type="curve" smooth="yes"/>
      <point x="277" y="222"/>
      <point x="211" y="111"/>
    </contour>
    <contour>
      <point x="163" y="459" type="curve" smooth="yes"/>
      <point x="209" y="459"/>
      <point x="232" y="489"/>
      <point x="232" y="523" type="curve" smooth="yes"/>
      <point x="232" y="542"/>
      <point x="220" y="564"/>
      <point x="191" y="569" type="curve"/>
      <point x="217" y="578"/>
      <point x="236" y="607"/>
      <point x="236" y="641" type="curve" smooth="yes"/>
      <point x="236" y="670"/>
      <point x="219" y="706"/>
      <point x="170" y="706" type="curve" smooth="yes"/>
      <point x="125" y="706"/>
      <point x="102" y="676"/>
      <point x="102" y="646" type="curve" smooth="yes"/>
      <point x="102" y="640"/>
      <point x="102" y="634"/>
      <point x="104" y="628" type="curve"/>
      <point x="126" y="629" type="line"/>
      <point x="125" y="635"/>
      <point x="124" y="640"/>
      <point x="124" y="645" type="curve" smooth="yes"/>
      <point x="124" y="667"/>
      <point x="135" y="685"/>
      <point x="167" y="685" type="curve" smooth="yes"/>
      <point x="200" y="685"/>
      <point x="213" y="668"/>
      <point x="213" y="638" type="curve" smooth="yes"/>
      <point x="213" y="589"/>
      <point x="181" y="578"/>
      <point x="153" y="578" type="curve" smooth="yes"/>
      <point x="147" y="578"/>
      <point x="132" y="578"/>
      <point x="128" y="578" type="curve"/>
      <point x="128" y="557" type="line"/>
      <point x="134" y="557"/>
      <point x="152" y="557"/>
      <point x="155" y="557" type="curve" smooth="yes"/>
      <point x="182" y="557"/>
      <point x="208" y="551"/>
      <point x="208" y="522" type="curve" smooth="yes"/>
      <point x="208" y="494"/>
      <point x="197" y="478"/>
      <point x="164" y="478" type="curve" smooth="yes"/>
      <point x="132" y="478"/>
      <point x="124" y="491"/>
      <point x="121" y="506" type="curve"/>
      <point x="98" y="505" type="line"/>
      <point x="103" y="481"/>
      <point x="120" y="459"/>
    </contour>
    <contour>
      <point x="546" y="-1" type="line"/>
      <point x="571" y="0" type="line"/>
      <point x="570" y="59" type="line"/>
      <point x="614" y="59" type="line"/>
      <point x="614" y="81" type="line"/>
      <point x="570" y="80" type="line"/>
      <point x="570" y="127" type="line" smooth="yes"/>
      <point x="570" y="169"/>
      <point x="571" y="214"/>
      <point x="571" y="235" type="curve"/>
      <point x="545" y="236" type="line"/>
      <point x="532" y="214"/>
      <point x="512" y="185"/>
      <point x="493" y="156" type="curve" smooth="yes"/>
      <point x="439" y="79" type="line"/>
      <point x="444" y="58" type="line"/>
      <point x="547" y="59" type="line"/>
    </contour>
    <contour>
      <point x="465" y="79" type="line"/>
      <point x="546" y="201" type="line"/>
      <point x="547" y="79" type="line"/>
    </contour>
  </outline>
</glyph>
<glyph name="questiondown" format="2">
  <advance width="540"/>
  <unicode hex="00BF"/>
  <outline>
    <contour>
      <point x="261" y="340" type="line"/>
      <point x="263" y="325"/>
      <point x="265" y="311"/>
      <point x="265" y="297" type="curve" smooth="yes"/>
      <point x="265" y="250"/>
      <point x="238" y="217"/>
      <point x="207" y="181" type="curve" smooth="yes"/>
      <point x="166" y="134"/>
      <point x="120" y="80"/>
      <point x="120" y="-18" type="curve" smooth="yes"/>
      <point x="120" y="-94"/>
      <point x="160" y="-159"/>
      <point x="266" y="-159" type="curve" smooth="yes"/>
      <point x="375" y="-159"/>
      <point x="420" y="-77"/>
      <point x="420" y="12" type="curve" smooth="yes"/>
      <point x="420" y="35"/>
      <point x="417" y="60"/>
      <point x="411" y="83" type="curve"/>
      <point x="381" y="84" type="line"/>
      <point x="387" y="62"/>
      <point x="390" y="38"/>
      <point x="390" y="14" type="curve" smooth="yes"/>
      <point x="390" y="-60"/>
      <point x="358" y="-130"/>
      <point x="268" y="-130" type="curve" smooth="yes"/>
      <point x="180" y="-130"/>
      <point x="153" y="-83"/>
      <point x="153" y="-15" type="curve" smooth="yes"/>
      <point x="153" y="70"/>
      <point x="192" y="118"/>
      <point x="229" y="161" type="curve" smooth="yes"/>
      <point x="263" y="201"/>
      <point x="296" y="236"/>
      <point x="296" y="292" type="curve" smooth="yes"/>
      <point x="296" y="306"/>
      <point x="295" y="322"/>
      <point x="293" y="339" type="curve"/>
    </contour>
    <contour>
      <point x="292" y="558" type="line"/>
      <point x="247" y="554" type="line"/>
      <point x="251" y="464" type="line"/>
      <point x="288" y="462" type="line"/>
    </contour>
  </outline>
</glyph>
<glyph name="AE" format="2">
  <advance width="653"/>
  <unicode hex="00C6"/>
  <anchor x="424" y="693" name="top"/>
  <outline>
    <contour>
      <point x="20" y="1" type="curve"/>
      <point x="63" y="0" type="line"/>
      <point x="89" y="60"/>
      <point x="116" y="121"/>
      <point x="142" y="181" type="curve"/>
      <point x="346" y="183" type="line"/>
      <point x="342" y="-5" type="line"/>
      <point x="615" y="0" type="line"/>
      <point x="614" y="25" type="line"/>
      <point x="387" y="30" type="line"/>
      <point x="383" y="215" type="line"/>
      <point x="606" y="219" type="line"/>
      <point x="608" y="249" type="line"/>
      <point x="383" y="252" type="line"/>
      <point x="382" y="350" type="line" smooth="yes"/>
      <point x="381" y="443"/>
      <point x="385" y="603"/>
      <point x="386" y="662" type="curve"/>
      <point x="602" y="663" type="line"/>
      <point x="602" y="693" type="line"/>
      <point x="325" y="701" type="line"/>
      <point x="296" y="628"/>
      <point x="236" y="483"/>
      <point x="180" y="354" type="curve" smooth="yes"/>
      <point x="124" y="223"/>
      <point x="56" y="76"/>
    </contour>
    <contour>
      <point x="346" y="213" type="line"/>
      <point x="156" y="215" type="line"/>
      <point x="174" y="258"/>
      <point x="193" y="301"/>
      <point x="211" y="344" type="curve" smooth="yes"/>
      <point x="258" y="455"/>
      <point x="314" y="597"/>
      <point x="347" y="667" type="curve"/>
      <point x="348" y="603"/>
      <point x="348" y="468"/>
      <point x="347" y="352" type="curve" smooth="yes"/>
    </contour>
  </outline>
</glyph>
<glyph name="Eth" format="2">
  <advance width="477"/>
  <unicode hex="00D0"/>
  <outline>
    <contour>
      <point x="27" y="331" type="line"/>
      <point x="48" y="331"/>
      <point x="98" y="332"/>
      <point x="160" y="332" type="curve"/>
      <point x="201" y="332"/>
      <point x="265" y="331"/>
      <point x="302" y="331" type="curve"/>
      <point x="299" y="359" type="line"/>
      <point x="268" y="358"/>
      <point x="211" y="356"/>
      <point x="166" y="357" type="curve"/>
      <point x="102" y="358"/>
      <point x="52" y="359"/>
      <point x="33" y="359" type="curve"/>
    </contour>
    <component base="D"/>
  </outline>
</glyph>
<glyph name="multiply" format="2">
  <advance width="500"/>
  <unicode hex="00D7"/>
  <outline>
    <contour>
      <point x="390" y="176" type="line"/>
      <point x="372" y="192"/>
      <point x="295" y="268"/>
      <point x="267" y="295" type="curve" smooth="yes"/>
      <point x="236" y="324"/>
      <point x="151" y="411"/>
      <point x="134" y="429" type="curve"/>
      <point x="109" y="406" type="line"/>
      <point x="130" y="387"/>
      <point x="217" y="304"/>
      <point x="248" y="274" type="curve" smooth="yes"/>
      <point x="278" y="244"/>
      <point x="349" y="169"/>
      <point x="361" y="155" type="curve"/>
    </contour>
    <contour>
      <point x="142" y="156" type="line"/>
      <point x="162" y="180"/>
      <point x="229" y="254"/>
      <point x="265" y="290" type="curve" smooth="yes"/>
      <point x="301" y="326"/>
      <point x="371" y="391"/>
      <point x="388" y="405" type="curve"/>
      <point x="359" y="430" type="line"/>
      <point x="341" y="411"/>
      <point x="277" y="344"/>
      <point x="244" y="310" type="curve" smooth="yes"/>
      <point x="211" y="275"/>
      <point x="132" y="201"/>
      <point x="112" y="182" type="curve"/>
    </contour>
  </outline>
</glyph>
<glyph name="Thorn" format="2">
  <advance width="437"/>
  <unicode hex="00DE"/>
  <outline>
    <contour>
      <point x="116" y="150" type="line"/>
      <point x="287" y="150"/>
      <point x="378" y="224"/>
      <point x="378" y="372" type="curve" smooth="yes"/>
      <point x="378" y="548"/>
      <point x="309" y="583"/>
      <point x="180" y="583" type="curve" smooth="yes"/>
      <point x="159" y="583"/>
      <point x="136" y="582"/>
      <point x="111" y="580" type="curve"/>
      <point x="111" y="542" type="line"/>
      <point x="141" y="547"/>
      <point x="167" y="549"/>
      <point x="190" y="549" type="curve" smooth="yes"/>
      <point x="290" y="549"/>
      <point x="343" y="509"/>
      <point x="343" y="369" type="curve" smooth="yes"/>
      <point x="343" y="253"/>
      <point x="275" y="176"/>
      <point x="112" y="184" type="curve"/>
    </contour>
    <contour>
      <point x="85" y="-2" type="curve"/>
      <point x="126" y="1" type="line"/>
      <point x="124" y="101"/>
      <point x="122" y="265"/>
      <point x="122" y="350" type="curve"/>
      <point x="122" y="385"/>
      <point x="124" y="662"/>
      <point x="125" y="698" type="curve"/>
      <point x="82" y="708" type="line"/>
      <point x="85" y="628"/>
      <point x="89" y="477"/>
      <point x="89" y="352" type="curve"/>
      <point x="89" y="227"/>
      <point x="87" y="77"/>
    </contour>
  </outline>
</glyph>
<glyph name="germandbls" format="2">
  <advance width="490"/>
  <unicode hex="00DF"/>
  <outline>
    <contour>
      <point x="91" y="-1" type="curve"/>
      <point x="130" y="0" type="line"/>
      <point x="128" y="40"/>
      <point x="127" y="159"/>
      <point x="127" y="271" type="curve" smooth="yes"/>
      <point x="127" y="388"/>
      <point x="129" y="459"/>
      <point x="131" y="530" type="curve" smooth="yes"/>
      <point x="134" y="619"/>
      <point x="163" y="670"/>
      <point x="259" y="670" type="curve" smooth="yes"/>
      <point x="339" y="670"/>
      <point x="371" y="620"/>
      <point x="371" y="561" type="curve" smooth="yes"/>
      <point x="371" y="463"/>
      <point x="234" y="445"/>
      <point x="234" y="362" type="curve" smooth="yes"/>
      <point x="234" y="319"/>
      <point x="273" y="292"/>
      <point x="315" y="263" type="curve" smooth="yes"/>
      <point x="363" y="229"/>
      <point x="415" y="193"/>
      <point x="415" y="127" type="curve" smooth="yes"/>
      <point x="415" y="60"/>
      <point x="355" y="13"/>
      <point x="250" y="28" type="curve"/>
      <point x="248" y="0" type="line"/>
      <point x="374" y="-15"/>
      <point x="449" y="47"/>
      <point x="449" y="129" type="curve" smooth="yes"/>
      <point x="449" y="204"/>
      <point x="392" y="243"/>
      <point x="342" y="279" type="curve" smooth="yes"/>
      <point x="302" y="306"/>
      <point x="267" y="331"/>
      <point x="267" y="367" type="curve" smooth="yes"/>
      <point x="267" y="430"/>
      <point x="402" y="453"/>
      <point x="402" y="565" type="curve" smooth="yes"/>
      <point x="402" y="634"/>
      <point x="361" y="700"/>
      <point x="258" y="700" type="curve" smooth="yes"/>
      <point x="138" y="700"/>
      <point x="100" y="621"/>
      <point x="98" y="532" type="curve" smooth="yes"/>
      <point x="97" y="492"/>
      <point x="96" y="348"/>
      <point x="96" y="270" type="curve" smooth="yes"/>
      <point x="96" y="157"/>
      <point x="92" y="39"/>
    </contour>
  </outline>
</glyph>
<glyph name="ae" format="2">
  <advance width="610"/>
  <unicode hex="00E6"/>
  <anchor x="329" y="515" name="top"/>
  <outline>
    <contour>
      <point x="157" y="-7" type="curve" smooth="yes"/>
      <point x="234" y="-7"/>
      <point x="277" y="46"/>
      <point x="298" y="116" type="curve"/>
      <point x="321" y="30"/>
      <point x="355" y="-10"/>
      <point x="429" y="-10" type="curve" smooth="yes"/>
      <point x="535" y="-10"/>
      <point x="569" y="51"/>
      <point x="569" y="137" type="curve" smooth="yes"/>
      <point x="569" y="147"/>
      <point x="569" y="157"/>
      <point x="568" y="167" type="curve"/>
      <point x="533" y="167" type="line"/>
      <point x="534" y="155"/>
      <point x="535" y="143"/>
      <point x="535" y="132" type="curve" smooth="yes"/>
      <point x="535" y="65"/>
      <point x="514" y="20"/>
      <point x="434" y="20" type="curve" smooth="yes"/>
      <point x="376" y="20"/>
      <point x="346" y="60"/>
      <point x="331" y="119" type="curve" smooth="yes"/>
      <point x="321" y="157"/>
      <point x="318" y="204"/>
      <point x="317" y="253" type="curve"/>
      <point x="364" y="254"/>
      <point x="466" y="256"/>
      <point x="560" y="256" type="curve"/>
      <point x="564" y="289"/>
      <point x="567" y="321"/>
      <point x="567" y="350" type="curve" smooth="yes"/>
      <point x="567" y="449"/>
      <point x="538" y="525"/>
      <point x="444" y="525" type="curve" smooth="yes"/>
      <point x="381" y="525"/>
      <point x="339" y="495"/>
      <point x="310" y="432" type="curve"/>
      <point x="297" y="481"/>
      <point x="266" y="525"/>
      <point x="195" y="525" type="curve" smooth="yes"/>
      <point x="112" y="525"/>
      <point x="71" y="468"/>
      <point x="71" y="392" type="curve" smooth="yes"/>
      <point x="71" y="372"/>
      <point x="73" y="350"/>
      <point x="79" y="328" type="curve"/>
      <point x="110" y="331" type="line"/>
      <point x="105" y="353"/>
      <point x="102" y="374"/>
      <point x="102" y="393" type="curve" smooth="yes"/>
      <point x="102" y="452"/>
      <point x="128" y="495"/>
      <point x="194" y="495" type="curve" smooth="yes"/>
      <point x="252" y="495"/>
      <point x="285" y="458"/>
      <point x="285" y="364" type="curve" smooth="yes"/>
      <point x="285" y="328"/>
      <point x="236" y="303"/>
      <point x="184" y="272" type="curve" smooth="yes"/>
      <point x="123" y="235"/>
      <point x="56" y="191"/>
      <point x="56" y="112" type="curve" smooth="yes"/>
      <point x="56" y="30"/>
      <point x="104" y="-7"/>
    </contour>
    <contour>
      <point x="162" y="25" type="curve" smooth="yes"/>
      <point x="108" y="25"/>
      <point x="91" y="61"/>
      <point x="91" y="118" type="curve" smooth="yes"/>
      <point x="91" y="175"/>
      <point x="141" y="209"/>
      <point x="192" y="241" type="curve" smooth="yes"/>
      <point x="228" y="263"/>
      <point x="265" y="283"/>
      <point x="285" y="309" type="curve"/>
      <point x="285" y="274"/>
      <point x="285" y="240"/>
      <point x="285" y="205" type="curve" smooth="yes"/>
      <point x="285" y="97"/>
      <point x="226" y="25"/>
    </contour>
    <contour>
      <point x="317" y="284" type="line"/>
      <point x="320" y="347"/>
      <point x="324" y="381"/>
      <point x="337" y="418" type="curve" smooth="yes"/>
      <point x="355" y="466"/>
      <point x="386" y="498"/>
      <point x="439" y="498" type="curve" smooth="yes"/>
      <point x="513" y="498"/>
      <point x="536" y="440"/>
      <point x="536" y="358" type="curve" smooth="yes"/>
      <point x="536" y="336"/>
      <point x="534" y="311"/>
      <point x="531" y="286" type="curve"/>
    </contour>
  </outline>
</glyph>
<glyph name="eth" format="2">
  <advance width="443"/>
  <unicode hex="00F0"/>
  <outline>
    <contour>
      <point x="207" y="-10" type="curve" smooth="yes"/>
      <point x="313" y="-10"/>
      <point x="358" y="59"/>
      <point x="358" y="307" type="curve" smooth="yes"/>
      <point x="358" y="592"/>
      <point x="254" y="671"/>
      <point x="161" y="714" type="curve"/>
      <point x="147" y="688" type="line"/>
      <point x="248" y="649"/>
      <point x="324" y="537"/>
      <point x="324" y="363" type="curve" smooth="yes"/>
      <point x="324" y="314"/>
      <point x="324" y="231"/>
      <point x="324" y="226" type="curve" smooth="yes"/>
      <point x="324" y="90"/>
      <point x="299" y="15"/>
      <point x="209" y="15" type="curve" smooth="yes"/>
      <point x="138" y="15"/>
      <point x="107" y="78"/>
      <point x="107" y="204" type="curve" smooth="yes"/>
      <point x="107" y="307"/>
      <point x="134" y="387"/>
      <point x="217" y="387" type="curve" smooth="yes"/>
      <point x="290" y="387"/>
      <point x="324" y="335"/>
      <point x="324" y="226" type="curve"/>
      <point x="342" y="279" type="line"/>
      <point x="325" y="382"/>
      <point x="276" y="414"/>
      <point x="219" y="414" type="curve" smooth="yes"/>
      <point x="120" y="414"/>
      <point x="75" y="328"/>
      <point x="75" y="196" type="curve" smooth="yes"/>
      <point x="75" y="66"/>
      <point x="118" y="-10"/>
    </contour>
    <contour>
      <point x="186" y="515" type="line"/>
      <point x="201" y="527"/>
      <point x="249" y="556"/>
      <point x="282" y="579" type="curve" smooth="yes"/>
      <point x="306" y="596"/>
      <point x="366" y="630"/>
      <point x="387" y="644" type="curve"/>
      <point x="371" y="665" type="line"/>
      <point x="353" y="651"/>
      <point x="300" y="619"/>
      <point x="274" y="600" type="curve" smooth="yes"/>
      <point x="238" y="574"/>
      <point x="188" y="549"/>
      <point x="171" y="538" type="curve"/>
    </contour>
  </outline>
</glyph>
<glyph name="divide" format="2">
  <advance width="500"/>
  <unicode hex="00F7"/>
  <outline>
    <contour>
      <point x="84" y="273" type="line"/>
      <point x="104" y="274"/>
      <point x="215" y="275"/>
      <point x="246" y="275" type="curve" smooth="yes"/>
      <point x="277" y="275"/>
      <point x="393" y="274"/>
      <point x="416" y="273" type="curve"/>
      <point x="414" y="306" type="line"/>
      <point x="395" y="305"/>
      <point x="283" y="303"/>
      <point x="251" y="304" type="curve" smooth="yes"/>
      <point x="217" y="305"/>
      <point x="105" y="306"/>
      <point x="86" y="307" type="curve"/>
    </contour>
    <contour>
      <point x="249" y="135" type="curve" smooth="yes"/>
      <point x="270" y="135"/>
      <point x="287" y="151"/>
      <point x="287" y="172" type="curve" smooth="yes"/>
      <point x="287" y="193"/>
      <point x="270" y="209"/>
      <point x="246" y="209" type="curve" smooth="yes"/>
      <point x="224" y="209"/>
      <point x="209" y="195"/>
      <point x="209" y="174" type="curve" smooth="yes"/>
      <point x="209" y="152"/>
      <point x="226" y="135"/>
    </contour>
    <contour>
      <point x="250" y="380" type="curve" smooth="yes"/>
      <point x="271" y="380"/>
      <point x="287" y="396"/>
      <point x="287" y="417" type="curve" smooth="yes"/>
      <point x="287" y="438"/>
      <point x="269" y="454"/>
      <point x="245" y="454" type="curve" smooth="yes"/>
      <point x="223" y="454"/>
      <point x="209" y="440"/>
      <point x="209" y="419" type="curve" smooth="yes"/>
      <point x="209" y="397"/>
      <point x="227" y="380"/>
    </contour>
  </outline>
</glyph>
<glyph name="Hbar" format="2">
  <advance width="502"/>
  <unicode hex="0126"/>
  <anchor x="251" y="459" name="_center"/>
  <outline>
    <contour>
      <point x="30" y="444" type="line"/>
      <point x="30" y="444"/>
      <point x="164" y="445"/>
      <point x="248" y="445" type="curve"/>
      <point x="304" y="445"/>
      <point x="475" y="444"/>
      <point x="475" y="444" type="curve"/>
      <point x="474" y="471" type="line"/>
      <point x="474" y="471"/>
      <point x="316" y="468"/>
      <point x="255" y="469" type="curve"/>
      <point x="166" y="470"/>
      <point x="31" y="471"/>
      <point x="31" y="471" type="curve"/>
    </contour>
    <component base="H"/>
  </outline>
</glyph>
<glyph name="kgreenlandic" format="2">
  <advance width="418"/>
  <unicode hex="0138"/>
  <outline>
    <contour>
      <point x="356" y="0" type="curve"/>
      <point x="397" y="3" type="line"/>
      <point x="300" y="103"/>
      <point x="230" y="181"/>
      <point x="152" y="270" type="curve"/>
      <point x="225" y="356"/>
      <point x="299" y="438"/>
      <point x="373" y="519" type="curve"/>
      <point x="335" y="521" type="line"/>
      <point x="272" y="445"/>
      <point x="207" y="370"/>
      <point x="117" y="269" type="curve"/>
      <point x="199" y="177"/>
      <point x="279" y="88"/>
    </contour>
    <contour>
      <point x="93" y="0" type="curve"/>
      <point x="127" y="0" type="line"/>
      <point x="127" y="61"/>
      <point x="127" y="180"/>
      <point x="127" y="284" type="curve"/>
      <point x="127" y="389"/>
      <point x="128" y="479"/>
      <point x="129" y="518" type="curve"/>
      <point x="93" y="515" type="line"/>
      <point x="94" y="479"/>
      <point x="96" y="392"/>
      <point x="96" y="285" type="curve"/>
      <point x="96" y="179"/>
      <point x="94" y="60"/>
    </contour>
  </outline>
</glyph>
<glyph name="lcaron" format="2">
  <advance width="266"/>
  <unicode hex="013E"/>
  <outline>
    <contour>
      <point x="93" y="0" type="curve"/>
      <point x="127" y="6" type="line"/>
      <point x="127" y="64"/>
      <point x="127" y="180"/>
      <point x="127" y="284" type="curve"/>
      <point x="127" y="389"/>
      <point x="128" y="580"/>
      <point x="129" y="694" type="curve"/>
      <point x="93" y="694" type="line"/>
      <point x="94" y="581"/>
      <point x="96" y="392"/>
      <point x="96" y="285" type="curve"/>
      <point x="96" y="179"/>
      <point x="94" y="60"/>
    </contour>
    <contour>
      <point x="223" y="528" type="line"/>
      <point x="247" y="547"/>
      <point x="253" y="586"/>
      <point x="253" y="609" type="curve"/>
      <point x="253" y="636"/>
      <point x="251" y="676"/>
      <point x="250" y="698" type="curve"/>
      <point x="200" y="692" type="line"/>
      <point x="207" y="612" type="line"/>
      <point x="229" y="611" type="line"/>
      <point x="231" y="588"/>
      <point x="225" y="558"/>
      <point x="206" y="543" type="curve"/>
    </contour>
  </outline>
</glyph>
<glyph name="ldot" format="2">
  <advance width="254"/>
  <unicode hex="0140"/>
  <outline>
    <contour>
      <point x="93" y="0" type="curve"/>
      <point x="127" y="6" type="line"/>
      <point x="127" y="6"/>
      <point x="127" y="141"/>
      <point x="127" y="284" type="curve"/>
      <point x="127" y="428"/>
      <point x="129" y="694"/>
      <point x="129" y="694" type="curve"/>
      <point x="93" y="694" type="line"/>
      <point x="93" y="694"/>
      <point x="96" y="431"/>
      <point x="96" y="285" type="curve"/>
      <point x="96" y="140"/>
      <point x="93" y="0"/>
    </contour>
    <contour>
      <point x="259" y="316" type="line"/>
      <point x="257" y="393" type="line"/>
      <point x="213" y="390" type="line"/>
      <point x="217" y="318" type="line"/>
    </contour>
  </outline>
</glyph>
<glyph name="napostrophe" format="2">
  <advance width="440"/>
  <unicode hex="0149"/>
  <outline>
    <contour>
      <point x="99" y="564" type="line"/>
      <point x="123" y="585"/>
      <point x="133" y="626"/>
      <point x="133" y="652" type="curve"/>
      <point x="132" y="692"/>
      <point x="130" y="732"/>
      <point x="130" y="732" type="curve"/>
      <point x="82" y="725" type="line"/>
      <point x="90" y="655" type="line"/>
      <point x="110" y="654" type="line"/>
      <point x="111" y="607"/>
      <point x="82" y="577"/>
      <point x="82" y="577" type="curve"/>
    </contour>
    <component base="n"/>
  </outline>
</glyph>
<glyph name="Eng" format="2">
  <advance width="509"/>
  <unicode hex="014A"/>
  <outline>
    <contour>
      <point x="327" y="-156" type="line"/>
      <point x="397" y="-155"/>
      <point x="423" y="-104"/>
      <point x="423" y="-42" type="curve" smooth="yes"/>
      <point x="422" y="103"/>
      <point x="422" y="247"/>
      <point x="421" y="392" type="curve" smooth="yes"/>
      <point x="421" y="519"/>
      <point x="422" y="637"/>
      <point x="425" y="715" type="curve"/>
      <point x="382" y="715" type="line"/>
      <point x="384" y="600"/>
      <point x="384" y="492"/>
      <point x="385" y="382" type="curve" smooth="yes"/>
      <point x="385" y="283"/>
      <point x="386" y="182"/>
      <point x="386" y="72" type="curve"/>
      <point x="357" y="138"/>
      <point x="311" y="253"/>
      <point x="264" y="372" type="curve" smooth="yes"/>
      <point x="215" y="495"/>
      <point x="165" y="622"/>
      <point x="135" y="704" type="curve"/>
      <point x="84" y="704" type="line"/>
      <point x="87" y="616"/>
      <point x="88" y="486"/>
      <point x="89" y="355" type="curve" smooth="yes"/>
      <point x="89" y="225"/>
      <point x="89" y="93"/>
      <point x="87" y="1" type="curve"/>
      <point x="127" y="0" type="line"/>
      <point x="125" y="130"/>
      <point x="125" y="251"/>
      <point x="124" y="364" type="curve" smooth="yes"/>
      <point x="124" y="458"/>
      <point x="123" y="547"/>
      <point x="123" y="628" type="curve"/>
      <point x="140" y="587"/>
      <point x="187" y="472"/>
      <point x="240" y="339" type="curve" smooth="yes"/>
      <point x="289" y="216"/>
      <point x="338" y="93"/>
      <point x="387" y="-30" type="curve"/>
      <point x="389" y="-97"/>
      <point x="374" y="-128"/>
      <point x="322" y="-128" type="curve"/>
    </contour>
  </outline>
</glyph>
<glyph name="eng" format="2">
  <advance width="440"/>
  <unicode hex="014B"/>
  <outline>
    <contour>
      <point x="237" y="-156" type="line"/>
      <point x="309" y="-155"/>
      <point x="354" y="-112"/>
      <point x="358" y="-30" type="curve" smooth="yes"/>
      <point x="361" y="25"/>
      <point x="360" y="116"/>
      <point x="360" y="259" type="curve" smooth="yes"/>
      <point x="360" y="381" type="line" smooth="yes"/>
      <point x="360" y="480"/>
      <point x="321" y="522"/>
      <point x="256" y="522" type="curve" smooth="yes"/>
      <point x="196" y="522"/>
      <point x="150" y="483"/>
      <point x="124" y="412" type="curve"/>
      <point x="125" y="463"/>
      <point x="126" y="498"/>
      <point x="127" y="519" type="curve"/>
      <point x="88" y="516" type="line"/>
      <point x="90" y="484"/>
      <point x="91" y="381"/>
      <point x="92" y="245" type="curve" smooth="yes"/>
      <point x="93" y="112"/>
      <point x="90" y="51"/>
      <point x="88" y="0" type="curve"/>
      <point x="125" y="0" type="line"/>
      <point x="123" y="50"/>
      <point x="125" y="143"/>
      <point x="125" y="276" type="curve" smooth="yes"/>
      <point x="125" y="397"/>
      <point x="169" y="492"/>
      <point x="254" y="492" type="curve" smooth="yes"/>
      <point x="305" y="492"/>
      <point x="329" y="457"/>
      <point x="329" y="384" type="curve" smooth="yes"/>
      <point x="329" y="258" type="line" smooth="yes"/>
      <point x="329" y="114"/>
      <point x="327" y="9"/>
      <point x="325" y="-32" type="curve" smooth="yes"/>
      <point x="322" y="-94"/>
      <point x="294" y="-128"/>
      <point x="236" y="-127" type="curve"/>
    </contour>
  </outline>
</glyph>
<glyph name="OE" format="2">
  <advance width="684"/>
  <unicode hex="0152"/>
  <outline>
    <contour>
      <point x="252" y="-2" type="curve" smooth="yes"/>
      <point x="315" y="-2"/>
      <point x="335" y="0"/>
      <point x="383" y="0" type="curve" smooth="yes"/>
      <point x="617" y="0" type="line"/>
      <point x="617" y="25" type="line"/>
      <point x="388" y="30" type="line"/>
      <point x="385" y="216" type="line"/>
      <point x="610" y="220" type="line"/>
      <point x="612" y="248" type="line"/>
      <point x="385" y="251" type="line"/>
      <point x="384" y="350" type="line" smooth="yes"/>
      <point x="384" y="442"/>
      <point x="386" y="601"/>
      <point x="387" y="662" type="curve"/>
      <point x="607" y="663" type="line"/>
      <point x="607" y="693" type="line"/>
      <point x="397" y="693" type="line" smooth="yes"/>
      <point x="335" y="693"/>
      <point x="318" y="709"/>
      <point x="269" y="709" type="curve" smooth="yes"/>
      <point x="115" y="709"/>
      <point x="84" y="555"/>
      <point x="84" y="360" type="curve" smooth="yes"/>
      <point x="84" y="155"/>
      <point x="103" y="-2"/>
    </contour>
    <contour>
      <point x="267" y="30" type="curve" smooth="yes"/>
      <point x="125" y="30"/>
      <point x="120" y="157"/>
      <point x="120" y="349" type="curve" smooth="yes"/>
      <point x="120" y="508"/>
      <point x="136" y="679"/>
      <point x="262" y="679" type="curve" smooth="yes"/>
      <point x="287" y="679"/>
      <point x="315" y="671"/>
      <point x="345" y="656" type="curve"/>
      <point x="347" y="597"/>
      <point x="351" y="475"/>
      <point x="351" y="352" type="curve" smooth="yes"/>
      <point x="351" y="227"/>
      <point x="349" y="96"/>
      <point x="348" y="35" type="curve"/>
      <point x="317" y="32"/>
      <point x="290" y="30"/>
    </contour>
  </outline>
</glyph>
<glyph name="oe" format="2">
  <advance width="650"/>
  <unicode hex="0153"/>
  <outline>
    <contour>
      <point x="201" y="-10" type="curve" smooth="yes"/>
      <point x="266" y="-10"/>
      <point x="304" y="24"/>
      <point x="325" y="77" type="curve" smooth="yes"/>
      <point x="345" y="127"/>
      <point x="350" y="192"/>
      <point x="350" y="262" type="curve" smooth="yes"/>
      <point x="350" y="320"/>
      <point x="345" y="377"/>
      <point x="331" y="423" type="curve" smooth="yes"/>
      <point x="313" y="484"/>
      <point x="278" y="526"/>
      <point x="215" y="526" type="curve" smooth="yes"/>
      <point x="147" y="526"/>
      <point x="108" y="486"/>
      <point x="87" y="427" type="curve" smooth="yes"/>
      <point x="70" y="380"/>
      <point x="64" y="322"/>
      <point x="64" y="263" type="curve" smooth="yes"/>
      <point x="64" y="189"/>
      <point x="69" y="115"/>
      <point x="92" y="63" type="curve" smooth="yes"/>
      <point x="112" y="19"/>
      <point x="146" y="-10"/>
    </contour>
    <contour>
      <point x="204" y="20" type="curve" smooth="yes"/>
      <point x="161" y="20"/>
      <point x="134" y="44"/>
      <point x="119" y="81" type="curve" smooth="yes"/>
      <point x="101" y="123"/>
      <point x="97" y="182"/>
      <point x="97" y="243" type="curve" smooth="yes"/>
      <point x="97" y="303"/>
      <point x="100" y="365"/>
      <point x="115" y="412" type="curve" smooth="yes"/>
      <point x="131" y="463"/>
      <point x="160" y="497"/>
      <point x="215" y="497" type="curve" smooth="yes"/>
      <point x="263" y="497"/>
      <point x="290" y="458"/>
      <point x="304" y="406" type="curve" smooth="yes"/>
      <point x="316" y="364"/>
      <point x="318" y="313"/>
      <point x="317" y="266" type="curve" smooth="yes"/>
      <point x="315" y="204"/>
      <point x="313" y="143"/>
      <point x="298" y="98" type="curve" smooth="yes"/>
      <point x="283" y="51"/>
      <point x="256" y="20"/>
    </contour>
    <contour>
      <point x="461" y="-10" type="curve" smooth="yes"/>
      <point x="567" y="-10"/>
      <point x="601" y="51"/>
      <point x="601" y="137" type="curve" smooth="yes"/>
      <point x="601" y="147"/>
      <point x="601" y="157"/>
      <point x="600" y="167" type="curve"/>
      <point x="565" y="167" type="line"/>
      <point x="566" y="155"/>
      <point x="567" y="143"/>
      <point x="567" y="132" type="curve" smooth="yes"/>
      <point x="567" y="65"/>
      <point x="546" y="20"/>
      <point x="466" y="20" type="curve" smooth="yes"/>
      <point x="408" y="20"/>
      <point x="378" y="60"/>
      <point x="363" y="119" type="curve" smooth="yes"/>
      <point x="352" y="162"/>
      <point x="349" y="215"/>
      <point x="349" y="270" type="curve" smooth="yes"/>
      <point x="349" y="323"/>
      <point x="354" y="376"/>
      <point x="369" y="418" type="curve" smooth="yes"/>
      <point x="387" y="466"/>
      <point x="418" y="498"/>
      <point x="471" y="498" type="curve" smooth="yes"/>
      <point x="545" y="498"/>
      <point x="568" y="440"/>
      <point x="568" y="358" type="curve" smooth="yes"/>
      <point x="568" y="335"/>
      <point x="566" y="309"/>
      <point x="563" y="283" type="curve"/>
      <point x="592" y="256" type="line"/>
      <point x="596" y="289"/>
      <point x="599" y="321"/>
      <point x="599" y="350" type="curve" smooth="yes"/>
      <point x="599" y="449"/>
      <point x="570" y="525"/>
      <point x="476" y="525" type="curve" smooth="yes"/>
      <point x="410" y="525"/>
      <point x="369" y="491"/>
      <point x="345" y="438" type="curve" smooth="yes"/>
      <point x="325" y="392"/>
      <point x="317" y="334"/>
      <point x="317" y="271" type="curve" smooth="yes"/>
      <point x="317" y="210"/>
      <point x="320" y="150"/>
      <point x="334" y="101" type="curve" smooth="yes"/>
      <point x="352" y="35"/>
      <point x="388" y="-10"/>
    </contour>
    <contour>
      <point x="333" y="252" type="line"/>
      <point x="367" y="254"/>
      <point x="485" y="256"/>
      <point x="592" y="256" type="curve"/>
      <point x="594" y="286" type="line"/>
      <point x="333" y="284" type="line"/>
    </contour>
  </outline>
</glyph>
